<?xml version="1.0" encoding="utf-8"?>
<!-- Generator: Adobe Illustrator 23.0.1, SVG Export Plug-In . SVG Version: 6.00 Build 0)  -->
<svg version="1.1" id="Layer_1" xmlns="http://www.w3.org/2000/svg" xmlns:xlink="http://www.w3.org/1999/xlink" x="0px" y="0px"
	 viewBox="0 0 594.27 387.16" style="enable-background:new 0 0 594.27 387.16;" xml:space="preserve">
<style type="text/css">
	.st0{opacity:0.8;fill:#FFFFFF;stroke:#000000;stroke-width:3;stroke-miterlimit:10;enable-background:new    ;}
</style>
<polygon class="st0" points="5.25,194.84 49.25,123.84 69.25,148.84 "/>
<polygon class="st0" points="91.25,116.84 49.25,123.84 230.25,372.84 214.25,269.84 "/>
<polygon class="st0" points="193.25,198.84 214.25,269.84 227.25,352.84 221.25,270.84 283.25,170.84 "/>
<polygon class="st0" points="308.25,163.84 377.25,144.84 390.25,221.84 384.25,223.84 "/>
<polygon class="st0" points="310.25,345.84 233.25,384.84 221.25,270.84 "/>
<polygon class="st0" points="294.25,149.84 221.25,270.84 384.25,223.84 "/>
<polygon class="st0" points="424.25,210.84 221.25,270.84 588.25,327.84 "/>
<polygon class="st0" points="178.25,38.84 193.25,198.84 281.19,171.48 294.25,149.84 310.51,163.22 377.25,144.84 "/>
<polygon class="st0" points="310.25,345.84 308.25,284.35 221.25,270.84 "/>
<polygon class="st0" points="353.58,291.39 310.25,345.84 308.25,284.84 "/>
<polygon class="st0" points="387.25,350.84 310.25,345.84 351.6,291.11 412.06,300.48 "/>
<polygon class="st0" points="424.25,210.84 565.25,0.84 450.27,229.41 "/>
</svg>
