<?xml version="1.0" encoding="utf-8"?>
<!-- Generator: Adobe Illustrator 23.0.1, SVG Export Plug-In . SVG Version: 6.00 Build 0)  -->
<svg version="1.1" id="Layer_1" xmlns="http://www.w3.org/2000/svg" xmlns:xlink="http://www.w3.org/1999/xlink" x="0px" y="0px"
	 viewBox="0 0 664.41 536.68" style="enable-background:new 0 0 664.41 536.68;" xml:space="preserve">
<style type="text/css">
	.st0{opacity:0.8;fill:#FFFFFF;stroke:#000000;stroke-width:3;stroke-miterlimit:10;enable-background:new    ;}
</style>
<polygon class="st0" points="65.71,220.12 359.45,1.87 376.46,38.26 125.46,251.02 166.78,501.4 188.36,516.2 196.38,503.86 
	221.08,498.93 192.68,532.85 157.53,503.25 "/>
<polygon class="st0" points="404.03,15.54 125.46,251.02 166.78,501.4 143.15,258.47 405.91,26.59 "/>
<polygon class="st0" points="409.93,22.84 143.15,258.47 166.78,501.4 156.68,262.12 409.93,34.55 "/>
<polygon class="st0" points="419.76,25.72 156.68,262.12 166.78,501.4 169.83,503.49 171.12,267.36 419.76,36.74 "/>
<polygon class="st0" points="432.76,25.72 171.12,267.36 169.83,503.49 182.26,272.38 432.76,40.57 "/>
<polygon class="st0" points="447.26,29.86 182.26,272.38 169.83,503.49 174.42,506.63 193.33,283 447.26,46.3 "/>
<polygon class="st0" points="460.61,35.8 193.33,283 174.42,506.63 177.85,508.99 221.08,297.87 454.57,89.49 "/>
<polygon class="st0" points="495.74,55.5 221.08,297.87 177.85,508.99 235.76,305 488.32,81.23 "/>
<polygon class="st0" points="508.74,62.74 235.76,305 177.85,508.99 447.26,234.68 "/>
<polygon class="st0" points="345.26,471.73 177.85,508.99 188.36,516.2 196.38,503.86 225.41,496.99 192.68,532.85 "/>
<polygon class="st0" points="607.76,160.34 447.26,234.68 177.85,508.99 345.26,471.73 "/>
</svg>
