<?xml version="1.0" encoding="utf-8"?>
<!-- Generator: Adobe Illustrator 23.0.1, SVG Export Plug-In . SVG Version: 6.00 Build 0)  -->
<svg version="1.1" id="Layer_1" xmlns="http://www.w3.org/2000/svg" xmlns:xlink="http://www.w3.org/1999/xlink" x="0px" y="0px"
	 viewBox="0 0 574.49 527.55" style="enable-background:new 0 0 574.49 527.55;" xml:space="preserve">
<style type="text/css">
	.st0{opacity:0.8;fill:#FFFFFF;stroke:#000000;stroke-width:3;stroke-miterlimit:10;enable-background:new    ;}
</style>
<polygon class="st0" points="58.53,477.31 50.63,467.75 43.57,470.24 8.66,518.86 "/>
<polygon class="st0" points="61.55,479.36 58.53,477.31 8.66,518.86 10.38,520.53 "/>
<polygon class="st0" points="72.4,487.21 61.55,479.36 10.38,520.53 65.78,495.04 "/>
<polygon class="st0" points="68.72,438.95 50.63,467.75 57.09,475.57 81.8,455.1 "/>
<polygon class="st0" points="86.59,461 81.8,455.1 58.53,475.57 64.05,481.17 "/>
<polygon class="st0" points="105.43,475.57 72.4,487.21 64.05,481.17 86.59,461 "/>
<polygon class="st0" points="72.56,443.69 93.28,431.24 109.33,414.55 153.44,336.43 144.96,360.63 144.96,377 144.96,386.95 
	149.45,394.33 84.74,457.26 "/>
<polygon class="st0" points="99.14,470.71 108.05,453.39 136.29,431.24 203.69,397.54 183.15,402.36 163.89,401.07 148.31,395.44 
	84.74,457.26 "/>
<polygon class="st0" points="191.57,233.16 213.32,225.69 144.96,386.95 144.96,360.63 153.44,336.43 "/>
<polygon class="st0" points="219.99,230.23 213.32,225.69 144.96,386.95 148.18,392.24 "/>
<polygon class="st0" points="248.66,203.16 219.99,230.23 148.18,392.24 "/>
<polygon class="st0" points="268.83,192.01 248.66,203.16 148.18,392.24 "/>
<polygon class="st0" points="305.46,156.97 268.83,192.01 148.18,392.24 148.31,395.44 "/>
<polygon class="st0" points="324.58,147.94 305.46,156.97 148.31,395.44 "/>
<polygon class="st0" points="409.03,68.65 324.58,147.94 148.31,395.44 "/>
<polygon class="st0" points="455.51,46.71 409.03,68.65 148.31,395.44 "/>
<polygon class="st0" points="568.06,6 455.51,46.71 148.31,395.44 "/>
<polygon class="st0" points="523.21,108.51 568.06,6 148.31,395.44 "/>
<polygon class="st0" points="495.02,147.94 523.21,108.51 148.31,395.44 "/>
<polygon class="st0" points="424.97,214.12 495.02,147.94 148.31,395.44 "/>
<polygon class="st0" points="400.14,258.15 409.03,224.57 148.18,392.24 "/>
<polygon class="st0" points="353.22,311.59 160.85,399.97 148.31,395.44 358.19,280.47 "/>
<polygon class="st0" points="328.18,345.79 321.67,326.09 163.89,401.07 185.7,401.76 203.69,397.54 "/>
</svg>
