<?xml version="1.0" encoding="utf-8"?>
<!-- Generator: Adobe Illustrator 23.0.1, SVG Export Plug-In . SVG Version: 6.00 Build 0)  -->
<svg version="1.1" id="Layer_1" xmlns="http://www.w3.org/2000/svg" xmlns:xlink="http://www.w3.org/1999/xlink" x="0px" y="0px"
	 viewBox="0 0 592.86 396.54" style="enable-background:new 0 0 592.86 396.54;" xml:space="preserve">
<style type="text/css">
	.st0{opacity:0.8;fill:#FFFFFF;stroke:#000000;stroke-width:3;stroke-miterlimit:10;enable-background:new    ;}
</style>
<polygon class="st0" points="1.69,141.38 50.47,105.13 186.51,157.38 197.16,184.91 155.44,242.9 38.05,292.4 "/>
<polygon class="st0" points="9.77,281.79 20.47,219.37 38.05,292.4 "/>
<polygon class="st0" points="51.49,386.45 14.65,283.62 38.05,292.4 51.49,286.73 63.51,386.45 "/>
<polygon class="st0" points="88.97,283.62 162.51,255.88 153.32,243.79 70.67,278.64 "/>
<polygon class="st0" points="112.78,373.98 70.67,278.64 88.97,283.62 112.78,274.64 120.85,373.98 "/>
<polygon class="st0" points="91.97,76.58 50.47,105.13 201.16,162.26 166.28,69.75 "/>
<polygon class="st0" points="249.94,295.61 201.16,162.26 186.51,157.38 197.16,184.91 155.44,242.9 153.32,243.79 166.68,260.25 
	"/>
<polygon class="st0" points="223.88,295.61 249.94,295.61 173.89,263.31 "/>
<polygon class="st0" points="388.6,295.61 175.38,65.12 166.89,62.36 166.28,69.75 249.94,295.61 "/>
<polygon class="st0" points="388.6,62.36 261.99,69.24 175.38,65.12 388.6,295.61 408.63,90.61 391.1,84.04 "/>
<polygon class="st0" points="434.46,90.08 408.63,90.61 388.6,295.61 517.27,185.83 491.39,116.01 "/>
<polygon class="st0" points="362.96,389.19 353.29,389.19 323.77,295.61 372.64,295.61 "/>
<polygon class="st0" points="338.02,369.85 353.29,389.19 327.48,307.38 "/>
<polygon class="st0" points="372.64,375.96 364.33,375.96 372.64,295.61 388.6,295.61 "/>
<polygon class="st0" points="419.07,286.69 501.79,199.05 399.06,286.69 "/>
<polygon class="st0" points="399.35,39.26 427.14,70.09 434.46,90.08 408.63,90.61 391.1,84.04 388.6,62.36 "/>
<polygon class="st0" points="420.31,39.26 399.35,39.26 427.14,70.09 435.63,90.61 587.29,154.5 422.66,51.13 "/>
<polygon class="st0" points="579.3,171.76 579.3,162.05 587.29,154.5 491.39,116.01 514.24,177.66 "/>
<polygon class="st0" points="501.79,58.71 452.94,70.14 587.29,154.5 591.17,140.14 "/>
<polygon class="st0" points="426.68,24.82 420.31,39.26 421.51,45.3 433.43,27.84 "/>
<polygon class="st0" points="448,2.28 421.51,45.3 422.66,51.13 452.94,70.14 511.9,55.19 511.9,36.21 "/>
<polygon class="st0" points="517.27,9.43 511.9,36.21 448,2.28 "/>
</svg>
