<?xml version="1.0" encoding="utf-8"?>
<!-- Generator: Adobe Illustrator 23.0.1, SVG Export Plug-In . SVG Version: 6.00 Build 0)  -->
<svg version="1.1" id="Layer_1" xmlns="http://www.w3.org/2000/svg" xmlns:xlink="http://www.w3.org/1999/xlink" x="0px" y="0px"
	 viewBox="0 0 595.49 501.5" style="enable-background:new 0 0 595.49 501.5;" xml:space="preserve">
<style type="text/css">
	.st0{opacity:0.8;fill:#FFFFFF;stroke:#000000;stroke-width:3;stroke-miterlimit:10;enable-background:new    ;}
</style>
<polygon class="st0" points="320.59,158.38 314.23,249.59 393.78,198.68 363.02,172.17 "/>
<polygon class="st0" points="237.87,195.5 269.68,158.38 320.59,158.38 314.23,249.59 "/>
<polygon class="st0" points="237.87,289.9 226.2,244.29 237.87,195.5 314.23,249.59 "/>
<polygon class="st0" points="307.42,342.93 262.26,329.14 237.87,289.9 314.23,249.59 "/>
<polygon class="st0" points="347.11,333.38 387.41,310.05 314.23,249.59 307.42,342.93 "/>
<polygon class="st0" points="399.08,289.9 408.62,260.2 393.78,198.68 314.23,249.59 "/>
<polygon class="st0" points="393.78,427.78 401.2,321.71 399.08,289.9 314.23,249.59 387.41,310.05 347.11,333.38 307.42,342.93 
	297.26,383.23 349.23,385.35 337.56,427.78 "/>
<polygon class="st0" points="320.59,427.78 337.56,427.78 349.23,385.35 297.26,383.23 "/>
<polygon class="st0" points="226.2,415.05 320.59,427.78 297.26,383.23 262.26,329.14 237.87,289.9 219.84,358.84 "/>
<polygon class="st0" points="307.42,342.93 262.26,329.14 297.26,383.23 "/>
<polygon class="st0" points="74.18,237.83 237.87,289.9 219.84,358.84 137.61,312.89 "/>
<polygon class="st0" points="226.2,415.05 137.61,312.89 219.84,358.84 "/>
<polygon class="st0" points="156.03,393.22 198.61,383.23 74.18,237.83 81.58,303.37 "/>
<polygon class="st0" points="427.24,249.59 471.64,162.78 445.21,184.98 "/>
<polygon class="st0" points="494.89,280.12 427.24,249.59 471.64,162.78 494.89,172.3 503.35,221.45 "/>
<polygon class="st0" points="449.44,308.66 482.78,320.22 491.03,305.79 494.89,280.12 427.24,249.59 "/>
<polygon class="st0" points="429.89,289.9 436.07,305.79 449.44,308.66 427.24,249.59 "/>
<polygon class="st0" points="206.84,179.74 223.49,238.6 236.59,284.91 226.58,242.7 237.87,195.5 "/>
<polygon class="st0" points="74.18,237.83 206.84,179.74 237.87,289.9 "/>
<polygon class="st0" points="125.61,115.01 74.18,237.83 206.84,179.74 "/>
<polygon class="st0" points="87.97,162.78 125.61,115.01 74.18,237.83 "/>
<polygon class="st0" points="198.61,24.05 206.84,179.74 125.61,115.01 "/>
<polygon class="st0" points="156.03,28.23 113.91,129.86 198.61,24.05 "/>
<polygon class="st0" points="248.98,0 156.03,28.23 198.61,24.05 206.84,179.74 307.42,48.1 "/>
<polygon class="st0" points="334.71,4.19 248.98,0 307.42,48.1 354,12.55 "/>
<polygon class="st0" points="432.99,12.55 334.71,4.19 438.34,60.64 455.99,48.1 "/>
<polygon class="st0" points="427.24,158.38 386.53,32.41 354,12.55 307.42,48.1 "/>
<polygon class="st0" points="320.59,158.38 307.42,48.1 206.84,179.74 237.87,195.5 269.68,158.38 "/>
<polygon class="st0" points="494.89,172.3 455.99,48.1 438.34,60.64 427.24,158.38 471.64,162.78 "/>
<polygon class="st0" points="307.42,426 340.98,492.43 367.33,427.78 "/>
<polygon class="st0" points="377.58,499.75 340.98,492.43 367.33,427.78 393.78,427.78 394.45,418.2 408.62,414.43 "/>
<polygon class="st0" points="423.66,409.24 405.26,499.75 379.38,494.79 408.62,414.43 "/>
<polygon class="st0" points="431.21,480.95 431.21,402.16 423.66,409.24 408.62,483.18 "/>
<polygon class="st0" points="434.98,402.16 440.64,474.81 435.92,474.81 431.21,474.81 431.21,402.16 "/>
<polygon class="st0" points="452.44,485.19 435.92,474.81 440.64,474.81 434.98,402.16 "/>
<polygon class="st0" points="452.44,488.97 465.3,494.63 461.07,462.08 434.98,402.16 "/>
<polygon class="st0" points="401.52,312.89 423.66,329.14 423.66,409.24 394.45,418.2 "/>
<polygon class="st0" points="456.73,402.16 423.66,332.71 423.66,405.5 434.98,402.16 "/>
<polygon class="st0" points="443.71,422.21 456.73,422.21 494.89,317.59 500.99,237.83 491.03,305.79 482.78,320.22 449.44,308.66 
	436.07,305.79 427.24,289.9 413.76,298.34 416.96,324.22 423.66,329.14 456.73,402.16 434.98,402.16 "/>
<polygon class="st0" points="427.24,158.38 427.24,249.59 445.21,184.98 471.64,162.78 "/>
<polygon class="st0" points="399.08,289.9 413.76,298.34 416.96,324.22 401.52,312.89 "/>
<polygon class="st0" points="307.42,48.1 320.59,158.38 363.02,172.17 393.78,198.68 408.62,260.2 399.08,289.9 413.76,298.34 
	427.24,289.9 427.24,249.59 427.24,158.38 "/>
<polygon class="st0" points="386.53,32.41 427.24,149.8 438.34,60.64 "/>
</svg>
