<?xml version="1.0" encoding="utf-8"?>
<!-- Generator: Adobe Illustrator 23.0.1, SVG Export Plug-In . SVG Version: 6.00 Build 0)  -->
<svg version="1.1" id="Layer_1" xmlns="http://www.w3.org/2000/svg" xmlns:xlink="http://www.w3.org/1999/xlink" x="0px" y="0px"
	 viewBox="0 0 559.29 529.2" style="enable-background:new 0 0 559.29 529.2;" xml:space="preserve">
<style type="text/css">
	.st0{opacity:0.8;fill:#FFFFFF;stroke:#000000;stroke-width:3;stroke-miterlimit:10;enable-background:new    ;}
</style>
<polygon class="st0" points="305.59,259.47 222.23,147.99 203.15,226.33 "/>
<polygon class="st0" points="176.03,300.65 203.15,226.33 305.59,259.47 "/>
<polygon class="st0" points="240.81,345.84 176.03,300.65 305.59,259.47 "/>
<polygon class="st0" points="305.59,391.04 240.81,345.84 305.59,259.47 "/>
<polygon class="st0" points="368.87,345.84 305.59,391.04 305.59,259.47 "/>
<polygon class="st0" points="434.15,300.65 305.59,259.47 368.87,345.84 "/>
<polygon class="st0" points="411.05,226.33 434.15,300.65 305.59,259.47 "/>
<polygon class="st0" points="383.93,152 411.05,226.33 305.59,259.47 "/>
<polygon class="st0" points="305.59,152 383.93,152 305.59,259.47 "/>
<polygon class="st0" points="222.23,147.99 305.59,152 305.59,259.47 "/>
<polygon class="st0" points="286.18,3.13 222.23,147.99 383.93,152 "/>
<polygon class="st0" points="556.1,205.74 434.15,300.65 383.93,152 "/>
<polygon class="st0" points="434.15,317.78 434.15,300.65 556.1,205.74 "/>
<polygon class="st0" points="455,524.51 434.15,300.65 305.59,391.04 "/>
<polygon class="st0" points="273.2,450.04 305.59,391.04 455,524.51 "/>
<polygon class="st0" points="114.59,524.51 305.59,391.04 273.2,450.04 "/>
<polygon class="st0" points="176.03,300.65 114.59,524.51 305.59,391.04 "/>
<polygon class="st0" points="7.31,203.73 222.23,147.99 176.03,300.65 "/>
<polygon class="st0" points="156.75,370.9 7.31,203.73 176.03,300.65 "/>
</svg>
