<?xml version="1.0" encoding="utf-8"?>
<!-- Generator: Adobe Illustrator 23.0.1, SVG Export Plug-In . SVG Version: 6.00 Build 0)  -->
<svg version="1.1" id="Layer_1" xmlns="http://www.w3.org/2000/svg" xmlns:xlink="http://www.w3.org/1999/xlink" x="0px" y="0px"
	 viewBox="0 0 580.24 545.54" style="enable-background:new 0 0 580.24 545.54;" xml:space="preserve">
<style type="text/css">
	.st0{opacity:0.8;fill:#FFFFFF;stroke:#000000;stroke-width:3;stroke-miterlimit:10;enable-background:new    ;}
</style>
<g>
	<polygon class="st0" points="283.68,227.06 283.68,275.3 384.14,388.41 	"/>
	<polygon class="st0" points="289.73,220.8 389.87,388.41 339.8,240.4 	"/>
	<polygon class="st0" points="351.59,275.24 380.25,275.24 389.87,388.41 	"/>
	<polygon class="st0" points="414.64,275.24 380.25,275.24 389.87,388.41 	"/>
	<polygon class="st0" points="468.8,218.45 425.19,245.77 389.87,388.41 	"/>
	<polygon class="st0" points="476.95,265.44 471.68,218.45 389.87,388.41 	"/>
	<polygon class="st0" points="474.92,320.37 457.85,292.41 389.87,388.41 	"/>
	<polygon class="st0" points="495.67,348.21 474.92,320.37 389.87,388.41 	"/>
	<polygon class="st0" points="528.57,336.53 389.87,388.41 575.14,357.83 	"/>
	<polygon class="st0" points="572.61,367.95 389.87,388.41 533.63,396.3 	"/>
	<polygon class="st0" points="485.63,420.94 500.65,394.49 389.87,388.41 	"/>
	<polygon class="st0" points="484.69,425.16 468.8,456.05 389.87,388.41 	"/>
	<polygon class="st0" points="495.67,524.72 495.67,478.96 389.87,388.41 	"/>
	<polygon class="st0" points="488.33,524.72 389.87,388.41 442.77,512.09 	"/>
	<polygon class="st0" points="394.62,483.69 429.33,480.68 389.87,388.41 	"/>
	<polygon class="st0" points="359.75,486.85 394.62,483.69 389.87,388.41 	"/>
	<polygon class="st0" points="307.68,542.07 351.59,519.98 389.87,388.41 	"/>
	<polygon class="st0" points="299.8,536.55 389.87,388.41 289.73,490.79 	"/>
	<polygon class="st0" points="295.06,437.63 389.87,388.41 314.73,465.24 	"/>
	<polygon class="st0" points="275.32,404.68 389.87,388.41 295.06,433.47 	"/>
	<polygon class="st0" points="192.47,384.79 389.87,388.41 243.77,415.82 	"/>
	<polygon class="st0" points="192.47,380.08 233.25,354.39 266.71,361.66 389.87,388.41 	"/>
	<polygon class="st0" points="291.17,331.83 384.14,388.41 266.71,361.66 	"/>
	<polygon class="st0" points="304.81,300.71 289.73,327.48 384.14,388.41 	"/>
</g>
<g>
	<polygon class="st0" points="107.61,188.87 165.96,114.69 272.56,114.69 341.7,179.51 341.7,272.42 281.2,336.53 176.76,336.53 
		112.66,275.3 	"/>
	<polygon class="st0" points="84.29,77.8 118.56,174.95 165.96,114.69 179.24,114.69 	"/>
	<polygon class="st0" points="232.49,3.45 173.18,112.33 179.24,114.69 272.56,114.69 283.68,125.11 	"/>
	<polygon class="st0" points="321.89,160.93 457.85,202.09 346.86,265.44 341.7,253.67 341.7,179.51 	"/>
	<polygon class="st0" points="275.32,105.25 372.8,64.28 347.88,168.8 321.89,160.93 283.68,125.11 	"/>
	<polygon class="st0" points="341.7,253.67 394.62,365.23 289.73,327.48 341.7,272.42 	"/>
	<polygon class="st0" points="230.09,442.1 289.73,327.48 281.2,336.53 176.76,336.53 	"/>
	<polygon class="st0" points="117.19,171.06 3.68,225.61 112.37,270.34 107.61,188.87 118.56,174.95 	"/>
	<polygon class="st0" points="112.66,275.3 95.88,374.45 176.76,336.53 	"/>
</g>
</svg>
