<?xml version="1.0" encoding="utf-8"?>
<!-- Generator: Adobe Illustrator 23.0.1, SVG Export Plug-In . SVG Version: 6.00 Build 0)  -->
<svg version="1.1" id="Layer_1" xmlns="http://www.w3.org/2000/svg" xmlns:xlink="http://www.w3.org/1999/xlink" x="0px" y="0px"
	 viewBox="0 0 673.47 642.25" style="enable-background:new 0 0 673.47 642.25;" xml:space="preserve">
<style type="text/css">
	.st0{opacity:0.8;fill:#FFFFFF;stroke:#000000;stroke-width:3;stroke-miterlimit:10;enable-background:new    ;}
</style>
<polygon class="st0" points="279.08,106.66 329.98,96.92 388.39,106.66 429.55,146.93 444.6,192.07 436.19,255.36 402.56,297.84 
	349.01,316.87 287.49,302.71 243.24,266.42 227.75,214.2 239.26,154.46 "/>
<polygon class="st0" points="276.95,4.94 293.78,103.85 279.08,106.66 274.85,111.75 253.64,72.04 244.69,71.04 "/>
<polygon class="st0" points="340,65.17 336.17,96.92 329.98,96.92 317.9,96.92 281.53,7.62 "/>
<polygon class="st0" points="293.78,103.85 317.9,96.92 280.5,10.62 "/>
<polygon class="st0" points="335.89,58.34 404.79,11.6 361.13,102.12 336.17,96.92 340,65.17 "/>
<polygon class="st0" points="419.12,84.27 410.93,9.04 376.64,103.85 388.39,106.66 397.88,115.94 "/>
<polygon class="st0" points="408.14,10.9 404.79,11.6 361.13,102.12 376.64,103.85 "/>
<polygon class="st0" points="494.99,72.55 411.97,129.73 397.88,115.94 419.12,84.27 419.12,72.55 "/>
<polygon class="st0" points="502.45,85.77 435.33,164.26 485.22,140.35 502.45,96.92 "/>
<polygon class="st0" points="502.45,77.15 494.99,72.55 411.97,129.73 429.55,146.93 435.33,164.26 502.45,85.77 "/>
<polygon class="st0" points="531.6,164.26 437.35,170.31 435.33,164.26 485.22,140.35 "/>
<polygon class="st0" points="444.6,198.13 528.88,170.31 486.74,216.61 441.34,216.61 "/>
<polygon class="st0" points="528.88,167.16 528.88,170.31 444.6,198.13 444.6,192.07 437.35,170.31 528.88,164.26 "/>
<polygon class="st0" points="537.77,262.63 495.58,206.9 486.74,216.61 441.34,216.61 440.33,224.22 "/>
<polygon class="st0" points="523.78,280.62 430.44,262.63 426.13,268.06 474.96,296.11 "/>
<polygon class="st0" points="537.77,274.12 537.77,262.63 440.33,224.22 436.19,255.36 430.44,262.63 523.78,280.62 "/>
<polygon class="st0" points="416.19,280.62 474.96,360.86 474.96,296.11 426.13,268.06 "/>
<polygon class="st0" points="391.13,301.9 411.97,347.12 474.96,360.86 407.09,296.11 402.56,297.84 "/>
<polygon class="st0" points="416.19,280.62 407.09,296.11 474.96,360.86 "/>
<polygon class="st0" points="399.89,403.37 386.03,303.72 391.13,301.9 411.97,347.12 426.13,350.21 "/>
<polygon class="st0" points="349.01,316.87 373.73,403.37 341.02,374.59 341.02,315.03 "/>
<polygon class="st0" points="386.03,415.8 399.89,403.37 386.03,303.72 349.01,316.87 373.73,403.37 "/>
<polygon class="st0" points="289.77,411.88 329.64,312.41 341.02,315.03 341.02,374.59 "/>
<polygon class="st0" points="312.36,308.44 286.63,409.19 265.58,337.07 287.49,302.71 "/>
<polygon class="st0" points="286.63,411.88 312.36,308.44 329.64,312.41 289.77,411.88 "/>
<polygon class="st0" points="271.92,289.94 196.29,349.15 269.1,349.15 265.58,337.07 287.49,302.71 "/>
<polygon class="st0" points="246.93,269.45 178.24,333.81 194.28,273.07 240.11,255.87 243.24,266.42 "/>
<polygon class="st0" points="178.24,345.84 179.79,333.81 246.93,269.45 271.92,289.94 198.54,347.39 "/>
<polygon class="st0" points="229.16,206.9 196.29,203.87 144.87,254.37 232.17,229.12 227.75,214.2 "/>
<polygon class="st0" points="237.62,247.48 148.23,259.42 192.24,280.78 194.28,273.07 240.11,255.87 "/>
<polygon class="st0" points="148.23,255.87 152.64,252.12 232.17,229.12 237.62,247.48 150.68,259.09 "/>
<polygon class="st0" points="194.17,57.23 253.64,72.04 274.85,111.75 263.4,125.48 "/>
<polygon class="st0" points="201.53,123.05 196.58,63.69 254.95,135.62 242.45,150.62 210.6,120.58 "/>
<polygon class="st0" points="263.4,125.48 254.95,135.62 198.9,66.55 198.9,61.9 "/>
<polygon class="st0" points="150.41,139.13 210.6,120.58 242.45,150.62 239.26,154.46 238.16,160.14 "/>
<polygon class="st0" points="148.23,144.49 232.17,191.22 229.16,206.9 196.29,203.87 186.46,213.52 "/>
<polygon class="st0" points="150.41,142.02 150.41,139.13 238.16,160.14 232.17,191.22 150.41,145.7 "/>
<polygon class="st0" points="304.12,401.44 289.56,512.65 328.48,530.63 338.92,376.37 "/>
<polygon class="st0" points="376.53,406.2 380.18,513.79 328.48,530.63 338.92,376.37 341.02,374.59 "/>
<polygon class="st0" points="500.72,467.85 328.48,530.63 335.37,639.83 462.94,587.84 "/>
<polygon class="st0" points="223.15,587.83 335.37,639.83 328.48,530.63 179.27,461.24 "/>
<polygon class="st0" points="301.49,421.51 179.27,461.24 289.56,512.65 "/>
<polygon class="st0" points="376.89,417.2 500.72,467.85 380.18,513.79 "/>
</svg>
