<?xml version="1.0" encoding="utf-8"?>
<!-- Generator: Adobe Illustrator 23.0.1, SVG Export Plug-In . SVG Version: 6.00 Build 0)  -->
<svg version="1.1" id="Layer_1" xmlns="http://www.w3.org/2000/svg" xmlns:xlink="http://www.w3.org/1999/xlink" x="0px" y="0px"
	 viewBox="0 0 280 210.38" style="enable-background:new 0 0 280 210.38;" xml:space="preserve">
<style type="text/css">
	.st0{fill:#FBC53B;}
	.st1{fill:none;stroke:#E6E6E6;stroke-width:10;stroke-miterlimit:10;}
</style>
<g>
	<ellipse class="st0" cx="167.27" cy="102.92" rx="66.41" ry="66.54"/>
	<path class="st0" d="M153.13,26.94L167.12,0l13.43,26.94c-2.88-1.12-7.66-2.58-13.71-2.58C163.75,24.36,158.77,24.74,153.13,26.94z
		"/>
	<path class="st0" d="M180.88,179.33l-13.78,27.05l-13.65-26.83c2.89,1.1,7.68,2.51,13.73,2.47
		C170.28,181.99,175.26,181.57,180.88,179.33z"/>
	<path class="st0" d="M90.86,116.9l-26.85-14.09l26.92-13.39c-1.13,2.88-2.59,7.66-2.6,13.73C88.32,106.25,88.68,111.24,90.86,116.9
		z"/>
	<path class="st0" d="M243.04,89.47L270,103.34l-26.81,13.6c1.1-2.89,2.53-7.68,2.5-13.75C245.67,100.1,245.26,95.11,243.04,89.47z"
		/>
	<path class="st0" d="M193.14,30.24l25.58-16.28l-1.86,30.05c-1.93-2.41-5.34-6.07-10.58-9.11
		C203.62,33.35,199.12,31.17,193.14,30.24z"/>
	<path class="st0" d="M140.92,176.04l-25.45,16.49l1.62-30.07c1.95,2.4,5.39,6.03,10.65,9.03
		C130.41,173.02,134.93,175.16,140.92,176.04z"/>
	<path class="st0" d="M94.25,76.82L78.06,51.15l29.99,1.93c-2.41,1.93-6.08,5.33-9.12,10.57C97.38,66.33,95.2,70.83,94.25,76.82z"/>
	<path class="st0" d="M239.66,129.5l16.39,25.54l-30.01-1.69c2.4-1.95,6.03-5.38,9.04-10.65
		C236.61,140.02,238.76,135.5,239.66,129.5z"/>
	<path class="st0" d="M225.45,52.41l30.27-1.64l-16.31,25.29c-0.5-3.05-1.68-7.91-4.77-13.14
		C233.07,60.26,230.21,56.16,225.45,52.41z"/>
	<path class="st0" d="M108.65,153.91L78.4,155.8l16.11-25.42c0.53,3.05,1.75,7.9,4.87,13.1
		C100.97,146.12,103.86,150.2,108.65,153.91z"/>
	<path class="st0" d="M116.47,44.5l-1.57-30.33l25.21,16.4c-3.05,0.5-7.9,1.67-13.12,4.74C124.32,36.89,120.22,39.74,116.47,44.5z"
		/>
	<path class="st0" d="M217.49,161.78l1.81,30.31l-25.34-16.2c3.04-0.52,7.89-1.73,13.08-4.85
		C209.69,169.45,213.77,166.57,217.49,161.78z"/>
	<line class="st1" x1="0" y1="120.38" x2="192" y2="120.38"/>
	<line class="st1" x1="34" y1="205.38" x2="169" y2="205.38"/>
	<line class="st1" x1="73" y1="162.38" x2="280" y2="162.38"/>
</g>
</svg>
