<?xml version="1.0" encoding="utf-8"?>
<!-- Generator: Adobe Illustrator 23.0.1, SVG Export Plug-In . SVG Version: 6.00 Build 0)  -->
<svg version="1.1" id="Layer_1" xmlns="http://www.w3.org/2000/svg" xmlns:xlink="http://www.w3.org/1999/xlink" x="0px" y="0px"
	 viewBox="0 0 243 211.38" style="enable-background:new 0 0 243 211.38;" xml:space="preserve">
<style type="text/css">
	.st0{fill:#FBC53B;}
	.st1{opacity:0.5;fill:#B3B3B3;enable-background:new    ;}
	.st2{fill:none;stroke:#E6E6E6;stroke-width:10;stroke-miterlimit:10;}
</style>
<g>
	<ellipse class="st0" cx="140.27" cy="102.92" rx="66.41" ry="66.54"/>
	<path class="st0" d="M126.13,26.94L140.12,0l13.43,26.94c-2.88-1.12-7.66-2.58-13.71-2.58C136.75,24.36,131.77,24.74,126.13,26.94z
		"/>
	<path class="st0" d="M153.88,179.33l-13.78,27.05l-13.65-26.83c2.89,1.1,7.68,2.51,13.73,2.47
		C143.28,181.99,148.26,181.57,153.88,179.33z"/>
	<path class="st0" d="M63.86,116.9l-26.85-14.09l26.92-13.39c-1.13,2.88-2.59,7.66-2.6,13.73C61.32,106.25,61.68,111.24,63.86,116.9
		z"/>
	<path class="st0" d="M216.04,89.47L243,103.34l-26.81,13.6c1.1-2.89,2.53-7.68,2.5-13.75C218.67,100.1,218.26,95.11,216.04,89.47z"
		/>
	<path class="st0" d="M166.14,30.24l25.58-16.28l-1.86,30.05c-1.93-2.41-5.34-6.07-10.58-9.11
		C176.62,33.35,172.12,31.17,166.14,30.24z"/>
	<path class="st0" d="M113.92,176.04l-25.45,16.49l1.62-30.07c1.95,2.4,5.39,6.03,10.65,9.03
		C103.41,173.02,107.93,175.16,113.92,176.04z"/>
	<path class="st0" d="M67.25,76.82L51.06,51.15l29.99,1.93c-2.41,1.93-6.08,5.33-9.12,10.57C70.38,66.33,68.2,70.83,67.25,76.82z"/>
	<path class="st0" d="M212.66,129.5l16.39,25.54l-30.01-1.69c2.4-1.95,6.03-5.38,9.04-10.65
		C209.61,140.02,211.76,135.5,212.66,129.5z"/>
	<path class="st0" d="M198.45,52.41l30.27-1.64l-16.31,25.29c-0.5-3.05-1.68-7.91-4.77-13.14
		C206.07,60.26,203.21,56.16,198.45,52.41z"/>
	<path class="st0" d="M81.65,153.91L51.4,155.8l16.11-25.42c0.53,3.05,1.75,7.9,4.87,13.1C73.97,146.12,76.86,150.2,81.65,153.91z"
		/>
	<path class="st0" d="M89.47,44.5L87.9,14.18l25.21,16.4c-3.05,0.5-7.9,1.67-13.12,4.74C97.32,36.89,93.22,39.74,89.47,44.5z"/>
	<path class="st0" d="M190.49,161.78l1.81,30.31l-25.34-16.2c3.04-0.52,7.89-1.73,13.08-4.85
		C182.69,169.45,186.77,166.57,190.49,161.78z"/>
	<rect y="114.38" class="st1" width="237" height="97"/>
	<line class="st2" x1="0" y1="120.38" x2="237" y2="120.38"/>
	<line class="st2" x1="0" y1="205.38" x2="237" y2="205.38"/>
</g>
</svg>
