<?xml version="1.0" encoding="utf-8"?>
<!-- Generator: Adobe Illustrator 23.0.1, SVG Export Plug-In . SVG Version: 6.00 Build 0)  -->
<svg version="1.1" id="Layer_1" xmlns="http://www.w3.org/2000/svg" xmlns:xlink="http://www.w3.org/1999/xlink" x="0px" y="0px"
	 viewBox="0 0 306.6 210" style="enable-background:new 0 0 306.6 210;" xml:space="preserve">
<style type="text/css">
	.st0{fill:none;stroke:#FFFFFF;stroke-miterlimit:10;}
	.st1{fill:#FFFFFF;}
	.st2{fill:#FBC53B;}
	.st3{fill:none;stroke:#E6E6E6;stroke-width:10;stroke-miterlimit:10;}
</style>
<g>
	<line class="st0" x1="61.56" y1="151.13" x2="66.87" y2="156.13"/>
	<line class="st0" x1="72.82" y1="151.13" x2="67.51" y2="156.13"/>
	<line class="st0" x1="77.12" y1="154.41" x2="76.02" y2="161.71"/>
	<line class="st0" x1="83.39" y1="163.98" x2="76.38" y2="162.25"/>
	<line class="st0" x1="83.98" y1="170.29" x2="77.11" y2="172.55"/>
	<line class="st0" x1="78.42" y1="180.31" x2="76.8" y2="173.11"/>
	<line class="st0" x1="72.74" y1="183.25" x2="67.58" y2="178.1"/>
	<line class="st0" x1="61.5" y1="182.92" x2="66.94" y2="178.08"/>
	<line class="st0" x1="56.03" y1="179.87" x2="57.57" y2="172.65"/>
	<line class="st0" x1="50.35" y1="169.92" x2="57.25" y2="172.09"/>
	<line class="st0" x1="51.1" y1="163.73" x2="58.05" y2="161.75"/>
	<line class="st0" x1="57.04" y1="153.94" x2="58.39" y2="161.19"/>
	<line class="st0" x1="67.08" y1="147" x2="67.08" y2="187"/>
	<line class="st0" x1="84" y1="157" x2="50.17" y2="177"/>
	<line class="st0" x1="50.17" y1="157" x2="84" y2="177"/>
	<ellipse class="st1" cx="169.09" cy="67.89" rx="35.37" ry="42.99"/>
	<ellipse class="st1" cx="50.53" cy="79.14" rx="50.53" ry="35.75"/>
	<ellipse class="st1" cx="91.74" cy="84.36" rx="45.87" ry="54.64"/>
	<ellipse class="st1" cx="116.61" cy="36.96" rx="40.43" ry="36.96"/>
	<ellipse class="st1" cx="185.41" cy="87.18" rx="55.59" ry="38.97"/>
	<ellipse class="st1" cx="72.69" cy="37.36" rx="21.38" ry="22.1"/>
	<ellipse class="st1" cx="136.05" cy="97.62" rx="28.76" ry="33.34"/>
	<line class="st0" x1="104.79" y1="130.48" x2="107.92" y2="133.48"/>
	<line class="st0" x1="111.42" y1="130.48" x2="108.29" y2="133.48"/>
	<line class="st0" x1="113.95" y1="132.45" x2="113.31" y2="136.83"/>
	<line class="st0" x1="117.64" y1="138.19" x2="113.51" y2="137.15"/>
	<line class="st0" x1="117.99" y1="141.98" x2="113.95" y2="143.33"/>
	<line class="st0" x1="114.72" y1="147.99" x2="113.76" y2="143.67"/>
	<line class="st0" x1="111.37" y1="149.75" x2="108.33" y2="146.66"/>
	<line class="st0" x1="104.75" y1="149.55" x2="107.96" y2="146.65"/>
	<line class="st0" x1="101.54" y1="147.72" x2="102.44" y2="143.39"/>
	<line class="st0" x1="98.19" y1="141.75" x2="102.25" y2="143.05"/>
	<line class="st0" x1="98.64" y1="138.04" x2="102.73" y2="136.85"/>
	<line class="st0" x1="102.13" y1="132.16" x2="102.92" y2="136.52"/>
	<line class="st0" x1="108.04" y1="128" x2="108.04" y2="152"/>
	<line class="st0" x1="118" y1="134" x2="98.08" y2="146"/>
	<line class="st0" x1="98.08" y1="134" x2="118" y2="146"/>
	<line class="st0" x1="125.25" y1="167.85" x2="131.34" y2="173.73"/>
	<line class="st0" x1="138.16" y1="167.85" x2="132.07" y2="173.73"/>
	<line class="st0" x1="143.11" y1="171.71" x2="141.85" y2="180.28"/>
	<line class="st0" x1="150.3" y1="182.95" x2="142.25" y2="180.92"/>
	<line class="st0" x1="150.98" y1="190.37" x2="143.1" y2="193.02"/>
	<line class="st0" x1="144.6" y1="202.14" x2="142.74" y2="193.68"/>
	<line class="st0" x1="138.08" y1="205.59" x2="132.15" y2="199.54"/>
	<line class="st0" x1="125.17" y1="205.21" x2="131.42" y2="199.52"/>
	<line class="st0" x1="118.9" y1="201.62" x2="120.66" y2="193.14"/>
	<line class="st0" x1="112.38" y1="189.93" x2="120.29" y2="192.48"/>
	<line class="st0" x1="113.24" y1="182.65" x2="121.22" y2="180.33"/>
	<line class="st0" x1="120.06" y1="171.15" x2="121.61" y2="179.68"/>
	<line class="st0" x1="131.58" y1="163" x2="131.58" y2="210"/>
	<line class="st0" x1="151" y1="174.75" x2="112.17" y2="198.25"/>
	<line class="st0" x1="112.17" y1="174.75" x2="151" y2="198.25"/>
</g>
<g>
	<ellipse class="st2" cx="215.87" cy="91.68" rx="53.45" ry="54.27"/>
	<path class="st2" d="M204.49,29.71l11.26-21.97l10.81,21.97c-2.32-0.91-6.16-2.1-11.03-2.1C213.04,27.61,209.03,27.92,204.49,29.71
		z"/>
	<path class="st2" d="M226.83,154l-11.09,22.06l-10.99-21.88c2.33,0.9,6.18,2.05,11.05,2.01C218.3,156.17,222.3,155.83,226.83,154z"
		/>
	<path class="st2" d="M154.38,103.08l-21.61-11.49l21.67-10.92c-0.91,2.35-2.08,6.25-2.09,11.2
		C152.33,94.4,152.62,98.47,154.38,103.08z"/>
	<path class="st2" d="M276.85,80.71l21.7,11.31l-21.58,11.09c0.89-2.36,2.04-6.26,2.01-11.21
		C278.97,89.38,278.64,85.31,276.85,80.71z"/>
	<path class="st2" d="M236.69,32.41l20.59-13.28l-1.5,24.51c-1.55-1.97-4.3-4.95-8.51-7.43C245.13,34.94,241.51,33.16,236.69,32.41z
		"/>
	<path class="st2" d="M194.67,151.32l-20.48,13.45l1.3-24.52c1.57,1.96,4.34,4.92,8.57,7.36
		C186.21,148.86,189.85,150.6,194.67,151.32z"/>
	<path class="st2" d="M157.11,70.4l-13.03-20.94l24.14,1.57c-1.94,1.57-4.89,4.35-7.34,8.62C159.63,61.84,157.87,65.51,157.11,70.4z
		"/>
	<path class="st2" d="M274.13,113.36l13.19,20.83l-24.15-1.38c1.93-1.59,4.85-4.39,7.28-8.69
		C271.68,121.94,273.41,118.25,274.13,113.36z"/>
	<path class="st2" d="M262.7,50.49l24.36-1.34l-13.13,20.63c-0.4-2.49-1.35-6.45-3.84-10.72C268.83,56.89,266.53,53.55,262.7,50.49z
		"/>
	<path class="st2" d="M168.7,133.27l-24.35,1.54l12.97-20.73c0.43,2.49,1.41,6.44,3.92,10.68
		C162.52,126.92,164.84,130.24,168.7,133.27z"/>
	<path class="st2" d="M174.99,44.04l-1.26-24.74l20.29,13.38c-2.45,0.41-6.36,1.36-10.56,3.87
		C181.31,37.83,178.01,40.15,174.99,44.04z"/>
	<path class="st2" d="M256.29,139.69l1.46,24.72l-20.39-13.21c2.45-0.42,6.35-1.41,10.53-3.96
		C250.01,145.94,253.3,143.6,256.29,139.69z"/>
	<line class="st3" x1="154.44" y1="105.92" x2="235.78" y2="105.92"/>
	<line class="st3" x1="154.44" y1="175.25" x2="217.27" y2="175.25"/>
	<line class="st3" x1="154.44" y1="140.18" x2="306.6" y2="140.18"/>
</g>
</svg>
