<?xml version="1.0" encoding="utf-8"?>
<!-- Generator: Adobe Illustrator 23.0.1, SVG Export Plug-In . SVG Version: 6.00 Build 0)  -->
<svg version="1.1" id="Layer_1" xmlns="http://www.w3.org/2000/svg" xmlns:xlink="http://www.w3.org/1999/xlink" x="0px" y="0px"
	 viewBox="0 0 241.99 206.38" style="enable-background:new 0 0 241.99 206.38;" xml:space="preserve">
<style type="text/css">
	.st0{fill:#FBC53B;}
	.st1{fill:#FFFFFF;}
</style>
<g>
	<ellipse class="st0" cx="103.26" cy="102.92" rx="66.41" ry="66.54"/>
	<path class="st0" d="M89.12,26.94L103.11,0l13.43,26.94c-2.88-1.12-7.66-2.58-13.71-2.58C99.74,24.36,94.76,24.74,89.12,26.94z"/>
	<path class="st0" d="M116.87,179.33l-13.78,27.05l-13.65-26.83c2.89,1.1,7.68,2.51,13.73,2.47
		C106.27,181.99,111.25,181.57,116.87,179.33z"/>
	<path class="st0" d="M26.85,116.9L0,102.82l26.92-13.39c-1.13,2.88-2.59,7.66-2.6,13.73C24.31,106.25,24.67,111.24,26.85,116.9z"/>
	<path class="st0" d="M179.03,89.47l26.96,13.87l-26.81,13.6c1.1-2.89,2.53-7.68,2.5-13.75C181.66,100.1,181.25,95.11,179.03,89.47z
		"/>
	<path class="st0" d="M129.13,30.24l25.58-16.28l-1.86,30.05c-1.93-2.41-5.34-6.07-10.58-9.11
		C139.62,33.35,135.12,31.17,129.13,30.24z"/>
	<path class="st0" d="M76.91,176.04l-25.45,16.49l1.62-30.07c1.95,2.4,5.39,6.03,10.65,9.03C66.4,173.02,70.92,175.16,76.91,176.04z
		"/>
	<path class="st0" d="M30.24,76.82L14.06,51.15l29.99,1.93c-2.41,1.93-6.08,5.33-9.12,10.57C33.37,66.33,31.19,70.83,30.24,76.82z"
		/>
	<path class="st0" d="M175.65,129.5l16.39,25.54l-30.01-1.69c2.4-1.95,6.03-5.38,9.04-10.65C172.6,140.02,174.75,135.5,175.65,129.5
		z"/>
	<path class="st0" d="M161.45,52.41l30.27-1.64L175.4,76.06c-0.5-3.05-1.68-7.91-4.77-13.14C169.07,60.26,166.21,56.16,161.45,52.41
		z"/>
	<path class="st0" d="M44.64,153.91l-30.25,1.89l16.11-25.42c0.53,3.05,1.75,7.9,4.87,13.1C36.96,146.12,39.85,150.2,44.64,153.91z"
		/>
	<path class="st0" d="M52.46,44.5l-1.57-30.33l25.21,16.4c-3.05,0.5-7.9,1.67-13.12,4.74C60.31,36.89,56.21,39.74,52.46,44.5z"/>
	<path class="st0" d="M153.48,161.78l1.81,30.31l-25.34-16.2c3.04-0.52,7.89-1.73,13.08-4.85
		C145.68,169.45,149.76,166.57,153.48,161.78z"/>
	<ellipse class="st1" cx="200.81" cy="150.92" rx="20.25" ry="25.67"/>
	<ellipse class="st1" cx="132.93" cy="157.63" rx="28.94" ry="21.35"/>
	<ellipse class="st1" cx="156.52" cy="160.75" rx="26.26" ry="32.62"/>
	<ellipse class="st1" cx="170.77" cy="132.44" rx="23.15" ry="22.07"/>
	<ellipse class="st1" cx="210.16" cy="162.43" rx="31.83" ry="23.27"/>
	<ellipse class="st1" cx="145.61" cy="132.68" rx="12.24" ry="13.19"/>
	<ellipse class="st1" cx="181.9" cy="168.67" rx="16.47" ry="19.91"/>
</g>
</svg>
