<?xml version="1.0" encoding="utf-8"?>
<!-- Generator: Adobe Illustrator 23.0.1, SVG Export Plug-In . SVG Version: 6.00 Build 0)  -->
<svg version="1.1" id="Layer_1" xmlns="http://www.w3.org/2000/svg" xmlns:xlink="http://www.w3.org/1999/xlink" x="0px" y="0px"
	 viewBox="0 0 258 186" style="enable-background:new 0 0 258 186;" xml:space="preserve">
<style type="text/css">
	.st0{fill:#FBC53B;}
	.st1{fill:#FFFFFF;}
</style>
<g>
	<ellipse class="st0" cx="182.7" cy="75.8" rx="48.68" ry="49.01"/>
	<path class="st0" d="M172.33,19.84L182.59,0l9.84,19.84c-2.11-0.82-5.61-1.9-10.05-1.9C180.12,17.94,176.47,18.22,172.33,19.84z"/>
	<path class="st0" d="M192.68,132.08L182.58,152l-10-19.76c2.12,0.81,5.63,1.85,10.07,1.82
		C184.9,134.04,188.55,133.73,192.68,132.08z"/>
	<path class="st0" d="M126.69,86.1l-19.68-10.37l19.73-9.86c-0.82,2.12-1.9,5.65-1.91,10.11C124.83,78.26,125.09,81.93,126.69,86.1z
		"/>
	<path class="st0" d="M238.24,65.9L258,76.11l-19.65,10.02c0.81-2.13,1.85-5.66,1.83-10.13C240.16,73.73,239.87,70.05,238.24,65.9z"
		/>
	<path class="st0" d="M201.66,22.27l18.75-11.99l-1.36,22.14c-1.41-1.78-3.91-4.47-7.75-6.71
		C209.35,24.56,206.05,22.96,201.66,22.27z"/>
	<path class="st0" d="M163.38,129.66l-18.66,12.14l1.18-22.15c1.43,1.77,3.95,4.44,7.81,6.65
		C155.68,127.43,158.99,129.01,163.38,129.66z"/>
	<path class="st0" d="M129.18,56.58l-11.87-18.91l21.99,1.42c-1.77,1.42-4.45,3.93-6.69,7.79
		C131.47,48.85,129.87,52.17,129.18,56.58z"/>
	<path class="st0" d="M235.76,95.38l12.02,18.81l-22-1.25c1.76-1.43,4.42-3.96,6.63-7.84C233.53,103.13,235.1,99.8,235.76,95.38z"/>
	<path class="st0" d="M225.35,38.6l22.19-1.21l-11.95,18.63c-0.37-2.25-1.23-5.83-3.49-9.67C230.93,44.38,228.84,41.36,225.35,38.6z
		"/>
	<path class="st0" d="M139.73,113.36l-22.17,1.39l11.81-18.72c0.39,2.24,1.28,5.82,3.57,9.65
		C134.1,107.62,136.22,110.62,139.73,113.36z"/>
	<path class="st0" d="M145.46,32.78l-1.15-22.34l18.48,12.08c-2.23,0.36-5.79,1.23-9.62,3.49
		C151.22,27.17,148.21,29.27,145.46,32.78z"/>
	<path class="st0" d="M219.51,119.15l1.32,22.33l-18.57-11.93c2.23-0.38,5.78-1.27,9.59-3.57
		C213.79,124.81,216.78,122.68,219.51,119.15z"/>
	<ellipse class="st1" cx="169.09" cy="114.89" rx="35.37" ry="42.99"/>
	<ellipse class="st1" cx="50.53" cy="126.14" rx="50.53" ry="35.75"/>
	<ellipse class="st1" cx="91.74" cy="131.36" rx="45.87" ry="54.64"/>
	<ellipse class="st1" cx="116.61" cy="83.96" rx="40.43" ry="36.96"/>
	<ellipse class="st1" cx="185.41" cy="134.18" rx="55.59" ry="38.97"/>
	<ellipse class="st1" cx="72.69" cy="84.36" rx="21.38" ry="22.1"/>
	<ellipse class="st1" cx="136.05" cy="144.62" rx="28.76" ry="33.34"/>
</g>
</svg>
