<?xml version="1.0" encoding="utf-8"?>
<!-- Generator: Adobe Illustrator 23.0.1, SVG Export Plug-In . SVG Version: 6.00 Build 0)  -->
<svg version="1.1" id="Layer_1" xmlns="http://www.w3.org/2000/svg" xmlns:xlink="http://www.w3.org/1999/xlink" x="0px" y="0px"
	 viewBox="0 0 3240 324" style="enable-background:new 0 0 3240 324;" xml:space="preserve">
<style type="text/css">
	.st0{fill:#1A1A1A;}
	.st1{fill:#FBB03B;}
	.st2{fill:#FFFFFF;}
	.st3{fill:none;stroke:#000000;stroke-width:2;stroke-miterlimit:10;}
</style>
<g id="penguin_x5F_confused0_x28_0_x29_">
	<path class="st0" d="M272.66,137.87c7.19,1.51,10.77,8.14,16.7,19.54c3.53,6.8,5.47,12.81,9.35,24.83c0,0,2.54,7.87,3.44,19.31
		c0.45,5.76,0.17,8.54-1.39,9.83c-0.65,0.54-2.21,1.39-8.77-1.46c-3.01-1.31-7.28-3.49-12.02-7.13
		c-11.46-9.46-17.12-20.01-19.87-26.34c-4.93-11.38-4.79-19.14-4.11-23.99c0.51-3.65,1.28-8.63,5.03-11.98
		C265.61,136.38,271.6,137.65,272.66,137.87z"/>
	<path class="st0" d="M87.34,137.87c-7.19,1.51-10.77,8.14-16.7,19.54c-3.53,6.8-5.47,12.81-9.35,24.83c0,0-2.54,7.87-3.44,19.31
		c-0.45,5.76-0.17,8.54,1.39,9.83c0.65,0.54,2.21,1.39,8.77-1.46c3.01-1.31,7.28-3.49,12.02-7.13
		c11.46-9.46,17.12-20.01,19.87-26.34c4.93-11.38,4.79-19.14,4.11-23.99c-0.51-3.65-1.28-8.63-5.03-11.98
		C94.39,136.38,88.4,137.65,87.34,137.87z"/>
	<g>
		
			<ellipse transform="matrix(0.7835 -0.6214 0.6214 0.7835 -120.3906 200.6426)" class="st1" cx="227.74" cy="273.09" rx="16.41" ry="19.49"/>
		
			<ellipse transform="matrix(0.2852 -0.9585 0.9585 0.2852 -79.8339 422.4505)" class="st1" cx="243.31" cy="264.75" rx="8.47" ry="24.57"/>
		
			<ellipse transform="matrix(0.6744 -0.7384 0.7384 0.6744 -132.9011 244.3835)" class="st1" cx="210.64" cy="272.88" rx="22.02" ry="9.45"/>
	</g>
	<g>
		
			<ellipse transform="matrix(0.6214 -0.7835 0.7835 0.6214 -164.2032 206.369)" class="st1" cx="131.43" cy="273.09" rx="19.49" ry="16.41"/>
		
			<ellipse transform="matrix(0.9585 -0.2852 0.2852 0.9585 -70.6988 44.0487)" class="st1" cx="115.9" cy="264.78" rx="24.57" ry="8.47"/>
		
			<ellipse transform="matrix(0.7384 -0.6744 0.6744 0.7384 -145.1764 171.5812)" class="st1" cx="148.56" cy="272.9" rx="9.45" ry="22.02"/>
	</g>
	<g>
		<ellipse class="st0" cx="180.69" cy="156.54" rx="103.5" ry="124"/>
	</g>
	<path class="st2" d="M196.19,130.04c29.57,57.38,29.26,135.35,1,148.5c-11.33,5.27-30.8,1.82-35,1c-12.18-2.38-20.72-7.06-26-10
		c-13.01-7.26-20.76-15.42-27-22c-1.61-1.7-11.68-12.43-15-22c-2.34-6.74-2-13-2-13c0.05-0.85,0.1-1.68,0.27-2.72
		c0.46-2.92,1.7-6.15,6.35-22.39c1.04-3.64,1.93-8.07,2.38-13.89c1.8-23-6.2-27.68-4-43.5c3.29-23.63,26.26-49.93,49.5-49.5
		C170.95,80.99,185.68,109.65,196.19,130.04z"/>
	<path class="st2" d="M164.36,130.04c-29.57,57.38-29.26,135.35-1,148.5c11.33,5.27,30.8,1.82,35,1c12.18-2.38,20.72-7.06,26-10
		c13.01-7.26,20.76-15.42,27-22c1.61-1.7,11.68-12.43,15-22c2.34-6.74,2-13,2-13c-0.05-0.85-0.1-1.68-0.27-2.72
		c-0.46-2.92-1.7-6.15-6.35-22.39c-1.04-3.64-1.93-8.07-2.38-13.89c-1.8-23,6.2-27.68,4-43.5c-3.29-23.63-26.26-49.93-49.5-49.5
		C189.6,80.99,174.87,109.65,164.36,130.04z"/>
	<circle cx="139.69" cy="126.04" r="9.5"/>
	<circle cx="218.69" cy="126.04" r="9.5"/>
	<polygon class="st1" points="181.19,164.54 166.8,143.68 180.19,130.12 194.39,144.49 	"/>
</g>
<g id="penguin_x5F_confused1">
	<path class="st0" d="M623.09,138.44c6.53-3.36,13.5-0.46,25.28,4.65c7.03,3.05,12.32,6.5,22.91,13.39c0,0,6.93,4.51,14.84,12.83
		c3.98,4.19,5.51,6.52,5.12,8.51c-0.16,0.83-0.84,2.47-7.73,4.4c-3.17,0.88-7.85,1.88-13.83,2.04c-14.86-0.13-25.9-4.75-32.03-7.94
		c-11-5.72-15.78-11.84-18.31-16.04c-1.9-3.16-4.45-7.51-3.64-12.48C616.68,141.73,622.12,138.94,623.09,138.44z"/>
	<path class="st0" d="M447.16,137.87c-7.19,1.51-10.77,8.14-16.7,19.54c-3.53,6.8-5.47,12.81-9.35,24.83c0,0-2.54,7.87-3.44,19.31
		c-0.45,5.76-0.17,8.54,1.39,9.83c0.65,0.54,2.21,1.39,8.77-1.46c3.01-1.31,7.28-3.49,12.02-7.13
		c11.46-9.46,17.12-20.01,19.87-26.34c4.93-11.38,4.79-19.14,4.11-23.99c-0.51-3.65-1.28-8.63-5.03-11.98
		C454.22,136.38,448.23,137.65,447.16,137.87z"/>
	<g>
		
			<ellipse transform="matrix(0.7835 -0.6214 0.6214 0.7835 -42.4868 424.2411)" class="st1" cx="587.57" cy="273.09" rx="16.41" ry="19.49"/>
		
			<ellipse transform="matrix(0.2852 -0.9585 0.9585 0.2852 177.3919 767.3339)" class="st1" cx="603.15" cy="264.74" rx="8.47" ry="24.57"/>
		
			<ellipse transform="matrix(0.6744 -0.7384 0.7384 0.6744 -15.7314 510.0736)" class="st1" cx="570.47" cy="272.87" rx="22.02" ry="9.45"/>
	</g>
	<g>
		
			<ellipse transform="matrix(0.6214 -0.7835 0.7835 0.6214 -27.9692 488.2962)" class="st1" cx="491.26" cy="273.09" rx="19.49" ry="16.41"/>
		
			<ellipse transform="matrix(0.9585 -0.2852 0.2852 0.9585 -55.7509 146.6739)" class="st1" cx="475.75" cy="264.76" rx="24.57" ry="8.47"/>
		
			<ellipse transform="matrix(0.7384 -0.6744 0.6744 0.7384 -51.0256 414.2575)" class="st1" cx="508.41" cy="272.89" rx="9.45" ry="22.02"/>
	</g>
	<g>
		<ellipse class="st0" cx="540.52" cy="156.54" rx="103.5" ry="124"/>
	</g>
	<path class="st2" d="M556.02,130.04c29.57,57.38,29.26,135.35,1,148.5c-11.33,5.27-30.8,1.82-35,1c-12.18-2.38-20.72-7.06-26-10
		c-13.01-7.26-20.76-15.42-27-22c-1.61-1.7-11.68-12.43-15-22c-2.34-6.74-2-13-2-13c0.05-0.85,0.1-1.68,0.27-2.72
		c0.46-2.92,1.7-6.15,6.35-22.39c1.04-3.64,1.93-8.07,2.38-13.89c1.8-23-6.2-27.68-4-43.5c3.29-23.63,26.26-49.93,49.5-49.5
		C530.78,80.99,545.5,109.65,556.02,130.04z"/>
	<path class="st2" d="M524.19,130.04c-29.57,57.38-29.26,135.35-1,148.5c11.33,5.27,30.8,1.82,35,1c12.18-2.38,20.72-7.06,26-10
		c13.01-7.26,20.76-15.42,27-22c1.61-1.7,11.68-12.43,15-22c2.34-6.74,2-13,2-13c-0.05-0.85-0.1-1.68-0.27-2.72
		c-0.46-2.92-1.7-6.15-6.35-22.39c-1.04-3.64-1.93-8.07-2.38-13.89c-1.8-23,6.2-27.68,4-43.5c-3.29-23.63-26.26-49.93-49.5-49.5
		C549.43,80.99,534.7,109.65,524.19,130.04z"/>
	<polygon class="st1" points="541.02,164.54 526.63,143.68 540.02,130.12 554.22,144.49 	"/>
	<path class="st3" d="M576.67,127.4c-0.58-1.08-0.14-2.46,0.97-3.05c1.43-0.77,3.01,0.82,3.08,0.89c1.22,1.27,1.42,3.66,0.08,5.02
		c-1.74,1.77-4.69,0.4-5.1,0.2c-2.06-1.01-3.49-3.38-3.16-5.91c0.37-2.81,2.76-4.69,5.02-5.22c3.28-0.77,5.77,1.43,6.16,1.77
		c2.55,2.25,3.16,5.94,2.19,8.96c-1.06,3.32-3.95,5.64-7.04,6.31c-4.54,0.98-8.44-1.86-10.29-4.63c-2.57-3.83-2.46-9.36,0.8-13.1
		c4.04-4.63,10.38-3.6,11.18-3.45c0.71,0.13,5.64,1.11,8.27,5.71c2.26,3.96,1.93,9.03-0.8,13.1"/>
	<path class="st3" d="M499.19,123.76c1.23,0,2.23,1.04,2.23,2.3c0,1.62-2.14,2.27-2.23,2.3c-1.69,0.48-3.9-0.47-4.47-2.3
		c-0.74-2.37,1.86-4.32,2.23-4.59c1.86-1.34,4.63-1.48,6.7,0c2.3,1.65,2.83,4.65,2.23,6.89c-0.87,3.25-3.98,4.41-4.47,4.59
		c-3.18,1.19-6.73-0.02-8.94-2.3c-2.42-2.5-3.11-6.15-2.23-9.19c1.28-4.46,5.62-6.56,8.94-6.89c4.59-0.45,9.41,2.25,11.17,6.89
		c2.18,5.75-1.73,10.85-2.23,11.48c-0.45,0.57-3.64,4.45-8.94,4.59c-4.55,0.12-8.87-2.56-11.17-6.89"/>
</g>
<g id="penguin_x5F_confused2">
	<path class="st0" d="M977.03,146.48c1.88-7.1,8.69-10.33,20.39-15.66c6.97-3.17,13.08-4.8,25.28-8.04c0,0,7.99-2.13,19.46-2.43
		c5.77-0.15,8.53,0.28,9.74,1.9c0.5,0.68,1.28,2.28-1.91,8.68c-1.46,2.94-3.86,7.09-7.74,11.63
		c-10.05,10.95-20.87,16.05-27.34,18.47c-11.62,4.33-19.37,3.79-24.18,2.85c-3.62-0.7-8.55-1.72-11.71-5.65
		C975.18,153.45,976.75,147.53,977.03,146.48z"/>
	<path class="st0" d="M807.74,137.87c-7.19,1.51-10.77,8.14-16.7,19.54c-3.53,6.8-5.47,12.81-9.35,24.83c0,0-2.54,7.87-3.44,19.31
		c-0.45,5.76-0.17,8.54,1.39,9.83c0.65,0.54,2.21,1.39,8.77-1.46c3.01-1.31,7.28-3.49,12.02-7.13
		c11.46-9.46,17.12-20.01,19.87-26.34c4.93-11.38,4.79-19.14,4.11-23.99c-0.51-3.65-1.28-8.63-5.03-11.98
		C814.79,136.38,808.8,137.65,807.74,137.87z"/>
	<g>
		
			<ellipse transform="matrix(0.7835 -0.6214 0.6214 0.7835 35.5832 648.303)" class="st1" cx="948.15" cy="273.09" rx="16.41" ry="19.49"/>
		
			<ellipse transform="matrix(0.2852 -0.9585 0.9585 0.2852 435.1564 1112.9244)" class="st1" cx="963.73" cy="264.72" rx="8.47" ry="24.57"/>
		
			<ellipse transform="matrix(0.6744 -0.7384 0.7384 0.6744 101.701 776.3132)" class="st1" cx="931.05" cy="272.85" rx="22.02" ry="9.45"/>
	</g>
	<g>
		
			<ellipse transform="matrix(0.6214 -0.7835 0.7835 0.6214 108.545 770.8034)" class="st1" cx="851.84" cy="273.09" rx="19.49" ry="16.41"/>
		
			<ellipse transform="matrix(0.9585 -0.2852 0.2852 0.9585 -40.7747 249.5115)" class="st1" cx="836.34" cy="264.76" rx="24.57" ry="8.47"/>
		
			<ellipse transform="matrix(0.7384 -0.6744 0.6744 0.7384 43.3131 657.4303)" class="st1" cx="869" cy="272.89" rx="9.45" ry="22.02"/>
	</g>
	<g>
		<ellipse class="st0" cx="901.09" cy="156.54" rx="103.5" ry="124"/>
	</g>
	<path class="st2" d="M916.59,130.04c29.57,57.38,29.26,135.35,1,148.5c-11.33,5.27-30.8,1.82-35,1c-12.18-2.38-20.72-7.06-26-10
		c-13.01-7.26-20.76-15.42-27-22c-1.61-1.7-11.68-12.43-15-22c-2.34-6.74-2-13-2-13c0.05-0.85,0.1-1.68,0.27-2.72
		c0.46-2.92,1.7-6.15,6.35-22.39c1.04-3.64,1.93-8.07,2.38-13.89c1.8-23-6.2-27.68-4-43.5c3.29-23.63,26.26-49.93,49.5-49.5
		C891.35,80.99,906.08,109.65,916.59,130.04z"/>
	<path class="st2" d="M884.76,130.04c-29.57,57.38-29.26,135.35-1,148.5c11.33,5.27,30.8,1.82,35,1c12.18-2.38,20.72-7.06,26-10
		c13.01-7.26,20.76-15.42,27-22c1.61-1.7,11.68-12.43,15-22c2.34-6.74,2-13,2-13c-0.05-0.85-0.1-1.68-0.27-2.72
		c-0.46-2.92-1.7-6.15-6.35-22.39c-1.04-3.64-1.93-8.07-2.38-13.89c-1.8-23,6.2-27.68,4-43.5c-3.29-23.63-26.26-49.93-49.5-49.5
		C910,80.99,895.27,109.65,884.76,130.04z"/>
	<polygon class="st1" points="901.59,164.54 887.2,143.68 900.59,130.12 914.79,144.49 	"/>
	<path class="st3" d="M941.28,126.72c-0.53,1.11-1.9,1.57-3.04,1.02c-1.46-0.7-1.12-2.91-1.1-3.01c0.3-1.74,2.11-3.31,4-3.04
		c2.46,0.36,3.09,3.55,3.17,4c0.41,2.26-0.67,4.82-2.9,6.04c-2.48,1.36-5.42,0.55-7.18-0.97c-2.56-2.19-2.25-5.5-2.21-6.02
		c0.31-3.38,2.93-6.06,5.94-7.06c3.3-1.1,6.89-0.14,9.25,1.96c3.47,3.09,3.48,7.9,2.34,11.04c-1.58,4.33-6.11,7.51-11.05,7.09
		c-6.12-0.52-9.03-6.25-9.39-6.98c-0.32-0.65-2.44-5.2-0.27-10.05c1.86-4.16,6.15-6.89,11.05-7.09"/>
	<path class="st3" d="M858.24,127.4c-0.58-1.08-0.14-2.46,0.97-3.05c1.43-0.77,3.01,0.82,3.08,0.89c1.22,1.27,1.42,3.66,0.08,5.02
		c-1.74,1.77-4.69,0.4-5.1,0.2c-2.06-1.01-3.49-3.38-3.16-5.91c0.37-2.81,2.76-4.69,5.02-5.22c3.28-0.77,5.77,1.43,6.16,1.77
		c2.55,2.25,3.16,5.94,2.19,8.96c-1.06,3.32-3.95,5.64-7.05,6.31c-4.54,0.98-8.44-1.86-10.29-4.63c-2.57-3.83-2.46-9.36,0.8-13.1
		c4.04-4.63,10.38-3.6,11.18-3.45c0.71,0.13,5.64,1.11,8.27,5.71c2.26,3.96,1.93,9.03-0.8,13.1"/>
</g>
<g id="penguin_x5F_confused3">
	<path class="st0" d="M1343.17,138.44c6.53-3.36,13.5-0.46,25.28,4.65c7.03,3.05,12.32,6.5,22.91,13.39c0,0,6.93,4.51,14.84,12.83
		c3.98,4.19,5.51,6.52,5.12,8.51c-0.16,0.83-0.84,2.47-7.73,4.4c-3.17,0.88-7.85,1.88-13.83,2.04c-14.86-0.13-25.9-4.75-32.03-7.94
		c-11-5.72-15.78-11.84-18.31-16.04c-1.9-3.16-4.45-7.51-3.64-12.48C1336.76,141.73,1342.2,138.94,1343.17,138.44z"/>
	<path class="st0" d="M1176.83,138.44c-6.53-3.36-13.5-0.46-25.28,4.65c-7.03,3.05-12.32,6.5-22.91,13.39c0,0-6.93,4.51-14.84,12.83
		c-3.98,4.19-5.51,6.52-5.12,8.51c0.16,0.83,0.84,2.47,7.73,4.4c3.17,0.88,7.85,1.88,13.83,2.04c14.86-0.13,25.9-4.75,32.03-7.94
		c11-5.72,15.78-11.84,18.31-16.04c1.9-3.16,4.45-7.51,3.64-12.48C1183.24,141.73,1177.8,138.94,1176.83,138.44z"/>
	<g>
		
			<ellipse transform="matrix(0.7835 -0.6214 0.6214 0.7835 113.4212 871.7028)" class="st1" cx="1307.67" cy="273.08" rx="16.41" ry="19.49"/>
		
			<ellipse transform="matrix(0.2852 -0.9585 0.9585 0.2852 692.1631 1457.4941)" class="st1" cx="1323.24" cy="264.69" rx="8.47" ry="24.57"/>
		
			<ellipse transform="matrix(0.6744 -0.7384 0.7384 0.6744 218.7743 1041.7588)" class="st1" cx="1290.55" cy="272.83" rx="22.02" ry="9.45"/>
	</g>
	<g>
		
			<ellipse transform="matrix(0.6214 -0.7835 0.7835 0.6214 244.6658 1052.47)" class="st1" cx="1211.34" cy="273.07" rx="19.49" ry="16.41"/>
		
			<ellipse transform="matrix(0.9585 -0.2852 0.2852 0.9585 -25.8408 352.0431)" class="st1" cx="1195.86" cy="264.75" rx="24.57" ry="8.47"/>
		
			<ellipse transform="matrix(0.7384 -0.6744 0.6744 0.7384 137.3781 899.8876)" class="st1" cx="1228.53" cy="272.88" rx="9.45" ry="22.02"/>
	</g>
	<g>
		<ellipse class="st0" cx="1260.6" cy="156.54" rx="103.5" ry="124"/>
	</g>
	<path class="st2" d="M1276.1,130.04c29.57,57.38,29.26,135.35,1,148.5c-11.33,5.27-30.8,1.82-35,1c-12.18-2.38-20.72-7.06-26-10
		c-13.01-7.26-20.76-15.42-27-22c-1.61-1.7-11.68-12.43-15-22c-2.34-6.74-2-13-2-13c0.05-0.85,0.1-1.68,0.27-2.72
		c0.46-2.92,1.7-6.15,6.35-22.39c1.04-3.64,1.93-8.07,2.38-13.89c1.8-23-6.2-27.68-4-43.5c3.29-23.63,26.26-49.93,49.5-49.5
		C1250.86,80.99,1265.58,109.65,1276.1,130.04z"/>
	<path class="st2" d="M1244.27,130.04c-29.57,57.38-29.26,135.35-1,148.5c11.33,5.27,30.8,1.82,35,1c12.18-2.38,20.72-7.06,26-10
		c13.01-7.26,20.76-15.42,27-22c1.61-1.7,11.68-12.43,15-22c2.34-6.74,2-13,2-13c-0.05-0.85-0.1-1.68-0.27-2.72
		c-0.46-2.92-1.7-6.15-6.35-22.39c-1.04-3.64-1.93-8.07-2.38-13.89c-1.8-23,6.2-27.68,4-43.5c-3.29-23.63-26.26-49.93-49.5-49.5
		C1269.51,80.99,1254.78,109.65,1244.27,130.04z"/>
	<polygon class="st1" points="1261.1,164.54 1246.71,143.68 1260.1,130.12 1274.3,144.49 	"/>
	<path class="st3" d="M1219.79,126.72c-0.53,1.11-1.9,1.57-3.04,1.02c-1.46-0.7-1.12-2.91-1.1-3.01c0.3-1.74,2.11-3.31,4-3.04
		c2.46,0.36,3.09,3.55,3.17,4c0.41,2.26-0.67,4.82-2.9,6.04c-2.48,1.36-5.42,0.55-7.18-0.97c-2.56-2.19-2.25-5.5-2.21-6.02
		c0.31-3.38,2.93-6.06,5.94-7.06c3.3-1.1,6.89-0.14,9.25,1.96c3.47,3.09,3.48,7.9,2.34,11.04c-1.58,4.33-6.11,7.51-11.05,7.09
		c-6.12-0.52-9.03-6.25-9.39-6.98c-0.32-0.65-2.44-5.2-0.27-10.05c1.86-4.16,6.15-6.89,11.05-7.09"/>
	<path class="st3" d="M1299.27,123.76c1.23,0,2.23,1.04,2.23,2.3c0,1.62-2.14,2.27-2.23,2.3c-1.69,0.48-3.9-0.47-4.47-2.3
		c-0.74-2.37,1.86-4.32,2.23-4.59c1.86-1.34,4.63-1.48,6.7,0c2.3,1.65,2.83,4.65,2.23,6.89c-0.87,3.25-3.98,4.41-4.47,4.59
		c-3.18,1.19-6.73-0.02-8.94-2.3c-2.42-2.5-3.11-6.15-2.23-9.19c1.28-4.46,5.62-6.56,8.94-6.89c4.59-0.45,9.41,2.25,11.17,6.89
		c2.18,5.75-1.73,10.85-2.23,11.48c-0.45,0.57-3.64,4.45-8.94,4.59c-4.55,0.12-8.87-2.56-11.17-6.89"/>
</g>
<g id="penguin_x5F_confused4">
	<path class="st0" d="M1712.99,137.87c7.19,1.51,10.77,8.14,16.7,19.54c3.53,6.8,5.47,12.81,9.35,24.83c0,0,2.54,7.87,3.44,19.31
		c0.45,5.76,0.17,8.54-1.39,9.83c-0.65,0.54-2.21,1.39-8.77-1.46c-3.01-1.31-7.28-3.49-12.02-7.13
		c-11.46-9.46-17.12-20.01-19.87-26.34c-4.93-11.38-4.79-19.14-4.11-23.99c0.51-3.65,1.28-8.63,5.03-11.98
		C1705.94,136.38,1711.93,137.65,1712.99,137.87z"/>
	<path class="st0" d="M1543.63,149.48c-1.88-7.1-8.69-10.33-20.39-15.66c-6.97-3.17-13.08-4.8-25.28-8.04c0,0-7.99-2.13-19.46-2.43
		c-5.77-0.15-8.53,0.28-9.74,1.9c-0.5,0.68-1.28,2.28,1.91,8.68c1.46,2.94,3.86,7.09,7.74,11.63
		c10.05,10.95,20.87,16.05,27.34,18.47c11.62,4.33,19.37,3.79,24.18,2.85c3.62-0.7,8.55-1.72,11.71-5.65
		C1545.48,156.45,1543.9,150.53,1543.63,149.48z"/>
	<g>
		
			<ellipse transform="matrix(0.7835 -0.6214 0.6214 0.7835 191.2114 1094.9717)" class="st1" cx="1666.97" cy="273.08" rx="16.41" ry="19.49"/>
		
			<ellipse transform="matrix(0.2852 -0.9585 0.9585 0.2852 949.0229 1801.8643)" class="st1" cx="1682.55" cy="264.67" rx="8.47" ry="24.57"/>
		
			<ellipse transform="matrix(0.6744 -0.7384 0.7384 0.6744 335.7836 1307.0586)" class="st1" cx="1649.86" cy="272.81" rx="22.02" ry="9.45"/>
	</g>
	<g>
		
			<ellipse transform="matrix(0.6214 -0.7835 0.7835 0.6214 380.7008 1333.9816)" class="st1" cx="1570.65" cy="273.07" rx="19.49" ry="16.41"/>
		
			<ellipse transform="matrix(0.9585 -0.2852 0.2852 0.9585 -10.9146 454.5173)" class="st1" cx="1555.18" cy="264.74" rx="24.57" ry="8.47"/>
		
			<ellipse transform="matrix(0.7384 -0.6744 0.6744 0.7384 231.3853 1142.2034)" class="st1" cx="1587.84" cy="272.88" rx="9.45" ry="22.02"/>
	</g>
	<g>
		<ellipse class="st0" cx="1619.9" cy="156.54" rx="103.5" ry="124"/>
	</g>
	<path class="st2" d="M1635.4,130.04c29.57,57.38,29.26,135.35,1,148.5c-11.33,5.27-30.8,1.82-35,1c-12.18-2.38-20.72-7.06-26-10
		c-13.01-7.26-20.76-15.42-27-22c-1.61-1.7-11.68-12.43-15-22c-2.34-6.74-2-13-2-13c0.05-0.85,0.1-1.68,0.27-2.72
		c0.46-2.92,1.7-6.15,6.35-22.39c1.04-3.64,1.93-8.07,2.38-13.89c1.8-23-6.2-27.68-4-43.5c3.29-23.63,26.26-49.93,49.5-49.5
		C1610.16,80.99,1624.88,109.65,1635.4,130.04z"/>
	<path class="st2" d="M1603.57,130.04c-29.57,57.38-29.26,135.35-1,148.5c11.33,5.27,30.8,1.82,35,1c12.18-2.38,20.72-7.06,26-10
		c13.01-7.26,20.76-15.42,27-22c1.61-1.7,11.68-12.43,15-22c2.34-6.74,2-13,2-13c-0.05-0.85-0.1-1.68-0.27-2.72
		c-0.46-2.92-1.7-6.15-6.35-22.39c-1.04-3.64-1.93-8.07-2.38-13.89c-1.8-23,6.2-27.68,4-43.5c-3.29-23.63-26.26-49.93-49.5-49.5
		C1628.81,80.99,1614.08,109.65,1603.57,130.04z"/>
	<polygon class="st1" points="1620.4,164.54 1606.01,143.68 1619.4,130.12 1633.6,144.49 	"/>
	<path class="st3" d="M1656.05,127.4c-0.58-1.08-0.14-2.46,0.97-3.05c1.43-0.77,3.01,0.82,3.08,0.89c1.22,1.27,1.42,3.66,0.08,5.02
		c-1.74,1.77-4.69,0.4-5.1,0.2c-2.06-1.01-3.49-3.38-3.16-5.91c0.37-2.81,2.76-4.69,5.02-5.22c3.28-0.77,5.77,1.43,6.16,1.77
		c2.55,2.25,3.16,5.94,2.19,8.96c-1.06,3.32-3.95,5.64-7.05,6.31c-4.54,0.98-8.44-1.86-10.29-4.63c-2.57-3.83-2.46-9.36,0.8-13.1
		c4.04-4.63,10.38-3.6,11.18-3.45c0.71,0.13,5.64,1.11,8.27,5.71c2.26,3.96,1.93,9.03-0.8,13.1"/>
	<path class="st3" d="M1578.57,123.76c1.23,0,2.23,1.04,2.23,2.3c0,1.62-2.14,2.27-2.23,2.3c-1.69,0.48-3.9-0.47-4.47-2.3
		c-0.74-2.37,1.86-4.32,2.23-4.59c1.86-1.34,4.63-1.48,6.7,0c2.3,1.65,2.83,4.65,2.23,6.89c-0.87,3.25-3.98,4.41-4.47,4.59
		c-3.18,1.19-6.73-0.02-8.94-2.3c-2.42-2.5-3.11-6.15-2.23-9.19c1.28-4.46,5.62-6.56,8.94-6.89c4.59-0.45,9.41,2.25,11.17,6.89
		c2.18,5.75-1.73,10.85-2.23,11.48c-0.45,0.57-3.64,4.45-8.94,4.59c-4.55,0.12-8.87-2.56-11.17-6.89"/>
</g>
<g id="penguin_x5F_confused5">
	<path class="st0" d="M2063.17,137.44c6.53-3.36,13.5-0.46,25.28,4.65c7.03,3.05,12.32,6.5,22.91,13.39c0,0,6.93,4.51,14.84,12.83
		c3.98,4.19,5.51,6.52,5.12,8.51c-0.16,0.83-0.84,2.47-7.73,4.4c-3.17,0.88-7.85,1.88-13.83,2.04c-14.86-0.13-25.9-4.75-32.03-7.94
		c-11-5.72-15.78-11.84-18.31-16.04c-1.9-3.16-4.45-7.51-3.64-12.48C2056.76,140.73,2062.2,137.94,2063.17,137.44z"/>
	<path class="st0" d="M1896.83,137.44c-6.53-3.36-13.5-0.46-25.28,4.65c-7.03,3.05-12.32,6.5-22.91,13.39c0,0-6.93,4.51-14.84,12.83
		c-3.98,4.19-5.51,6.52-5.12,8.51c0.16,0.83,0.84,2.47,7.73,4.4c3.17,0.88,7.85,1.88,13.83,2.04c14.86-0.13,25.9-4.75,32.03-7.94
		c11-5.72,15.78-11.84,18.31-16.04c1.9-3.16,4.45-7.51,3.64-12.48C1903.24,140.73,1897.8,137.94,1896.83,137.44z"/>
	<g>
		
			<ellipse transform="matrix(0.7835 -0.6214 0.6214 0.7835 268.8717 1317.868)" class="st1" cx="2025.67" cy="273.08" rx="16.41" ry="19.49"/>
		
			<ellipse transform="matrix(0.2852 -0.9585 0.9585 0.2852 1205.4426 2145.6633)" class="st1" cx="2041.26" cy="264.66" rx="8.47" ry="24.57"/>
		
			<ellipse transform="matrix(0.6744 -0.7384 0.7384 0.6744 452.5975 1571.9155)" class="st1" cx="2008.57" cy="272.79" rx="22.02" ry="9.45"/>
	</g>
	<g>
		
			<ellipse transform="matrix(0.6214 -0.7835 0.7835 0.6214 516.5085 1615.0228)" class="st1" cx="1929.35" cy="273.07" rx="19.49" ry="16.41"/>
		
			<ellipse transform="matrix(0.9585 -0.2852 0.2852 0.9585 3.9839 556.8215)" class="st1" cx="1913.9" cy="264.73" rx="24.57" ry="8.47"/>
		
			<ellipse transform="matrix(0.7384 -0.6744 0.6744 0.7384 325.2355 1384.1145)" class="st1" cx="1946.56" cy="272.87" rx="9.45" ry="22.02"/>
	</g>
	<g>
		<ellipse class="st0" cx="1978.6" cy="156.54" rx="103.5" ry="124"/>
	</g>
	<path class="st2" d="M1994.1,130.04c29.57,57.38,29.26,135.35,1,148.5c-11.33,5.27-30.8,1.82-35,1c-12.18-2.38-20.72-7.06-26-10
		c-13.01-7.26-20.76-15.42-27-22c-1.61-1.7-11.68-12.43-15-22c-2.34-6.74-2-13-2-13c0.05-0.85,0.1-1.68,0.27-2.72
		c0.46-2.92,1.7-6.15,6.35-22.39c1.04-3.64,1.93-8.07,2.38-13.89c1.8-23-6.2-27.68-4-43.5c3.29-23.63,26.26-49.93,49.5-49.5
		C1968.86,80.99,1983.58,109.65,1994.1,130.04z"/>
	<path class="st2" d="M1962.27,130.04c-29.57,57.38-29.26,135.35-1,148.5c11.33,5.27,30.8,1.82,35,1c12.18-2.38,20.72-7.06,26-10
		c13.01-7.26,20.76-15.42,27-22c1.61-1.7,11.68-12.43,15-22c2.34-6.74,2-13,2-13c-0.05-0.85-0.1-1.68-0.27-2.72
		c-0.46-2.92-1.7-6.15-6.35-22.39c-1.04-3.64-1.93-8.07-2.38-13.89c-1.8-23,6.2-27.68,4-43.5c-3.29-23.63-26.26-49.93-49.5-49.5
		C1987.51,80.99,1972.78,109.65,1962.27,130.04z"/>
	<polygon class="st1" points="1979.1,164.54 1964.71,143.68 1978.1,130.12 1992.3,144.49 	"/>
	<path class="st3" d="M2018.79,126.72c-0.53,1.11-1.9,1.57-3.04,1.02c-1.46-0.7-1.12-2.91-1.1-3.01c0.3-1.74,2.11-3.31,4-3.04
		c2.46,0.36,3.09,3.55,3.17,4c0.41,2.26-0.67,4.82-2.9,6.04c-2.48,1.36-5.42,0.55-7.18-0.97c-2.56-2.19-2.25-5.5-2.21-6.02
		c0.31-3.38,2.93-6.06,5.94-7.06c3.3-1.1,6.89-0.14,9.25,1.96c3.47,3.09,3.48,7.9,2.34,11.04c-1.58,4.33-6.11,7.51-11.05,7.09
		c-6.12-0.52-9.03-6.25-9.39-6.98c-0.32-0.65-2.44-5.2-0.27-10.05c1.86-4.16,6.15-6.89,11.05-7.09"/>
	<path class="st3" d="M1935.75,127.4c-0.58-1.08-0.14-2.46,0.97-3.05c1.43-0.77,3.01,0.82,3.08,0.89c1.22,1.27,1.42,3.66,0.08,5.02
		c-1.74,1.77-4.69,0.4-5.1,0.2c-2.06-1.01-3.49-3.38-3.16-5.91c0.37-2.81,2.76-4.69,5.02-5.22c3.28-0.77,5.77,1.43,6.16,1.77
		c2.55,2.25,3.16,5.94,2.19,8.96c-1.06,3.32-3.95,5.64-7.05,6.31c-4.54,0.98-8.44-1.86-10.29-4.63c-2.57-3.83-2.46-9.36,0.8-13.1
		c4.04-4.63,10.38-3.6,11.18-3.45c0.71,0.13,5.64,1.11,8.27,5.71c2.26,3.96,1.93,9.03-0.8,13.1"/>
</g>
<g id="penguin_x5F_confused6">
	<path class="st0" d="M2416.87,146.48c1.88-7.1,8.69-10.33,20.39-15.66c6.97-3.17,13.08-4.8,25.28-8.04c0,0,7.99-2.13,19.46-2.43
		c5.77-0.15,8.53,0.28,9.74,1.9c0.5,0.68,1.28,2.28-1.91,8.68c-1.46,2.94-3.86,7.09-7.74,11.63
		c-10.05,10.95-20.87,16.05-27.34,18.47c-11.62,4.33-19.37,3.79-24.18,2.85c-3.62-0.7-8.55-1.72-11.71-5.65
		C2415.01,153.45,2416.59,147.53,2416.87,146.48z"/>
	<path class="st0" d="M2247.57,137.87c-7.19,1.51-10.77,8.14-16.7,19.54c-3.53,6.8-5.47,12.81-9.35,24.83c0,0-2.54,7.87-3.44,19.31
		c-0.45,5.76-0.17,8.54,1.39,9.83c0.65,0.54,2.21,1.39,8.77-1.46c3.01-1.31,7.28-3.49,12.02-7.13
		c11.46-9.46,17.12-20.01,19.87-26.34c4.93-11.38,4.79-19.14,4.11-23.99c-0.51-3.65-1.28-8.63-5.03-11.98
		C2254.62,136.38,2248.63,137.65,2247.57,137.87z"/>
	<g>
		
			<ellipse transform="matrix(0.7835 -0.6214 0.6214 0.7835 347.3186 1543.0167)" class="st1" cx="2388" cy="273.08" rx="16.41" ry="19.49"/>
		
			<ellipse transform="matrix(0.2852 -0.9585 0.9585 0.2852 1464.472 2492.9382)" class="st1" cx="2403.6" cy="264.63" rx="8.47" ry="24.57"/>
		
			<ellipse transform="matrix(0.6744 -0.7384 0.7384 0.6744 570.594 1839.4542)" class="st1" cx="2370.91" cy="272.78" rx="22.02" ry="9.45"/>
	</g>
	<g>
		
			<ellipse transform="matrix(0.6214 -0.7835 0.7835 0.6214 653.6811 1898.9006)" class="st1" cx="2291.67" cy="273.07" rx="19.49" ry="16.41"/>
		
			<ellipse transform="matrix(0.9585 -0.2852 0.2852 0.9585 19.036 660.1598)" class="st1" cx="2276.25" cy="264.72" rx="24.57" ry="8.47"/>
		
			<ellipse transform="matrix(0.7384 -0.6744 0.6744 0.7384 420.0262 1628.473)" class="st1" cx="2308.9" cy="272.88" rx="9.45" ry="22.02"/>
	</g>
	<g>
		<ellipse class="st0" cx="2340.92" cy="156.54" rx="103.5" ry="124"/>
	</g>
	<path class="st2" d="M2356.42,130.04c29.57,57.38,29.26,135.35,1,148.5c-11.33,5.27-30.8,1.82-35,1c-12.18-2.38-20.72-7.06-26-10
		c-13.01-7.26-20.76-15.42-27-22c-1.61-1.7-11.68-12.43-15-22c-2.34-6.74-2-13-2-13c0.05-0.85,0.1-1.68,0.27-2.72
		c0.46-2.92,1.7-6.15,6.35-22.39c1.04-3.64,1.93-8.07,2.38-13.89c1.8-23-6.2-27.68-4-43.5c3.29-23.63,26.26-49.93,49.5-49.5
		C2331.18,80.99,2345.91,109.65,2356.42,130.04z"/>
	<path class="st2" d="M2324.59,130.04c-29.57,57.38-29.26,135.35-1,148.5c11.33,5.27,30.8,1.82,35,1c12.18-2.38,20.72-7.06,26-10
		c13.01-7.26,20.76-15.42,27-22c1.61-1.7,11.68-12.43,15-22c2.34-6.74,2-13,2-13c-0.05-0.85-0.1-1.68-0.27-2.72
		c-0.46-2.92-1.7-6.15-6.35-22.39c-1.04-3.64-1.93-8.07-2.38-13.89c-1.8-23,6.2-27.68,4-43.5c-3.29-23.63-26.26-49.93-49.5-49.5
		C2349.83,80.99,2335.11,109.65,2324.59,130.04z"/>
	<polygon class="st1" points="2341.42,164.54 2327.03,143.68 2340.42,130.12 2354.62,144.49 	"/>
	<path class="st3" d="M2300.11,126.72c-0.53,1.11-1.9,1.57-3.04,1.02c-1.46-0.7-1.12-2.91-1.1-3.01c0.3-1.74,2.11-3.31,4-3.04
		c2.46,0.36,3.09,3.55,3.17,4c0.41,2.26-0.67,4.82-2.9,6.04c-2.48,1.36-5.42,0.55-7.18-0.97c-2.56-2.19-2.25-5.5-2.21-6.02
		c0.31-3.38,2.93-6.06,5.94-7.06c3.3-1.1,6.89-0.14,9.25,1.96c3.47,3.09,3.48,7.9,2.34,11.04c-1.57,4.33-6.1,7.51-11.05,7.09
		c-6.12-0.52-9.03-6.25-9.39-6.98c-0.32-0.65-2.44-5.2-0.27-10.05c1.86-4.16,6.15-6.89,11.05-7.09"/>
	<path class="st3" d="M2379.59,123.76c1.23,0,2.23,1.04,2.23,2.3c0,1.62-2.14,2.27-2.23,2.3c-1.69,0.48-3.9-0.47-4.47-2.3
		c-0.74-2.37,1.86-4.32,2.23-4.59c1.86-1.34,4.63-1.48,6.7,0c2.3,1.65,2.83,4.65,2.23,6.89c-0.87,3.25-3.98,4.41-4.47,4.59
		c-3.18,1.19-6.73-0.02-8.94-2.3c-2.42-2.5-3.11-6.15-2.23-9.19c1.28-4.46,5.62-6.56,8.94-6.89c4.59-0.45,9.41,2.25,11.17,6.89
		c2.18,5.75-1.73,10.85-2.23,11.48c-0.45,0.57-3.64,4.45-8.94,4.59c-4.55,0.12-8.87-2.56-11.17-6.89"/>
</g>
<g id="penguin_x5F_confused7">
	<path class="st0" d="M2783.09,138.44c6.53-3.36,13.5-0.46,25.28,4.65c7.03,3.05,12.32,6.5,22.91,13.39c0,0,6.93,4.51,14.84,12.83
		c3.98,4.19,5.51,6.52,5.12,8.51c-0.16,0.83-0.84,2.47-7.73,4.4c-3.17,0.88-7.85,1.88-13.83,2.04c-14.86-0.13-25.9-4.75-32.03-7.94
		c-11-5.72-15.78-11.84-18.31-16.04c-1.9-3.16-4.45-7.51-3.64-12.48C2776.68,141.73,2782.13,138.94,2783.09,138.44z"/>
	<path class="st0" d="M2607.17,137.87c-7.19,1.51-10.77,8.14-16.7,19.54c-3.53,6.8-5.47,12.81-9.35,24.83c0,0-2.54,7.87-3.44,19.31
		c-0.45,5.76-0.17,8.54,1.39,9.83c0.65,0.54,2.21,1.39,8.77-1.46c3.01-1.31,7.28-3.49,12.02-7.13
		c11.46-9.46,17.12-20.01,19.87-26.34c4.93-11.38,4.79-19.14,4.11-23.99c-0.51-3.65-1.28-8.63-5.03-11.98
		C2614.22,136.38,2608.23,137.65,2607.17,137.87z"/>
	<g>
		
			<ellipse transform="matrix(0.7835 -0.6214 0.6214 0.7835 425.1702 1766.4674)" class="st1" cx="2747.59" cy="273.08" rx="16.41" ry="19.49"/>
		
			<ellipse transform="matrix(0.2852 -0.9585 0.9585 0.2852 1721.5306 2837.5959)" class="st1" cx="2763.2" cy="264.62" rx="8.47" ry="24.57"/>
		
			<ellipse transform="matrix(0.6744 -0.7384 0.7384 0.6744 687.6982 2104.9629)" class="st1" cx="2730.5" cy="272.76" rx="22.02" ry="9.45"/>
	</g>
	<g>
		
			<ellipse transform="matrix(0.6214 -0.7835 0.7835 0.6214 789.8325 2180.644)" class="st1" cx="2651.27" cy="273.07" rx="19.49" ry="16.41"/>
		
			<ellipse transform="matrix(0.9585 -0.2852 0.2852 0.9585 33.9721 762.7207)" class="st1" cx="2635.87" cy="264.71" rx="24.57" ry="8.47"/>
		
			<ellipse transform="matrix(0.7384 -0.6744 0.6744 0.7384 514.1139 1870.9894)" class="st1" cx="2668.52" cy="272.87" rx="9.45" ry="22.02"/>
	</g>
	<g>
		<ellipse class="st0" cx="2700.52" cy="156.54" rx="103.5" ry="124"/>
	</g>
	<path class="st2" d="M2716.02,130.04c29.57,57.38,29.26,135.35,1,148.5c-11.33,5.27-30.8,1.82-35,1c-12.18-2.38-20.72-7.06-26-10
		c-13.01-7.26-20.76-15.42-27-22c-1.61-1.7-11.68-12.43-15-22c-2.34-6.74-2-13-2-13c0.05-0.85,0.1-1.68,0.27-2.72
		c0.46-2.92,1.7-6.15,6.35-22.39c1.04-3.64,1.93-8.07,2.38-13.89c1.8-23-6.2-27.68-4-43.5c3.29-23.63,26.26-49.93,49.5-49.5
		C2690.78,80.99,2705.51,109.65,2716.02,130.04z"/>
	<path class="st2" d="M2684.19,130.04c-29.57,57.38-29.26,135.35-1,148.5c11.33,5.27,30.8,1.82,35,1c12.18-2.38,20.72-7.06,26-10
		c13.01-7.26,20.76-15.42,27-22c1.61-1.7,11.68-12.43,15-22c2.34-6.74,2-13,2-13c-0.05-0.85-0.1-1.68-0.27-2.72
		c-0.46-2.92-1.7-6.15-6.35-22.39c-1.04-3.64-1.93-8.07-2.38-13.89c-1.8-23,6.2-27.68,4-43.5c-3.29-23.63-26.26-49.93-49.5-49.5
		C2709.43,80.99,2694.71,109.65,2684.19,130.04z"/>
	<polygon class="st1" points="2701.02,164.54 2686.63,143.68 2700.02,130.12 2714.22,144.49 	"/>
	<path class="st3" d="M2736.67,127.4c-0.58-1.08-0.14-2.46,0.97-3.05c1.43-0.77,3.01,0.82,3.08,0.89c1.22,1.27,1.42,3.66,0.08,5.02
		c-1.74,1.77-4.69,0.4-5.1,0.2c-2.06-1.01-3.49-3.38-3.16-5.91c0.37-2.81,2.76-4.69,5.02-5.22c3.28-0.77,5.77,1.43,6.16,1.77
		c2.55,2.25,3.16,5.94,2.19,8.96c-1.06,3.32-3.95,5.64-7.04,6.31c-4.54,0.98-8.44-1.86-10.29-4.63c-2.57-3.83-2.46-9.36,0.8-13.1
		c4.04-4.63,10.38-3.6,11.18-3.45c0.71,0.13,5.64,1.11,8.27,5.71c2.26,3.96,1.93,9.03-0.8,13.1"/>
	<path class="st3" d="M2659.19,123.76c1.23,0,2.23,1.04,2.23,2.3c0,1.62-2.14,2.27-2.23,2.3c-1.69,0.48-3.9-0.47-4.47-2.3
		c-0.74-2.37,1.86-4.32,2.23-4.59c1.86-1.34,4.63-1.48,6.7,0c2.3,1.65,2.83,4.65,2.23,6.89c-0.87,3.25-3.98,4.41-4.47,4.59
		c-3.18,1.19-6.73-0.02-8.94-2.3c-2.42-2.5-3.11-6.15-2.23-9.19c1.28-4.46,5.62-6.56,8.94-6.89c4.59-0.45,9.41,2.25,11.17,6.89
		c2.18,5.75-1.73,10.85-2.23,11.48c-0.45,0.57-3.64,4.45-8.94,4.59c-4.55,0.12-8.87-2.56-11.17-6.89"/>
</g>
<g id="penguin_x5F_confused8_x28_0_x29_">
	<path class="st0" d="M3152.66,137.87c7.19,1.51,10.77,8.14,16.7,19.54c3.53,6.8,5.47,12.81,9.35,24.83c0,0,2.54,7.87,3.44,19.31
		c0.45,5.76,0.17,8.54-1.39,9.83c-0.65,0.54-2.21,1.39-8.77-1.46c-3.01-1.31-7.28-3.49-12.02-7.13
		c-11.46-9.46-17.12-20.01-19.87-26.34c-4.93-11.38-4.79-19.14-4.11-23.99c0.51-3.65,1.28-8.63,5.03-11.98
		C3145.61,136.38,3151.6,137.65,3152.66,137.87z"/>
	<path class="st0" d="M2967.34,137.87c-7.19,1.51-10.77,8.14-16.7,19.54c-3.53,6.8-5.47,12.81-9.35,24.83c0,0-2.54,7.87-3.44,19.31
		c-0.45,5.76-0.17,8.54,1.39,9.83c0.65,0.54,2.21,1.39,8.77-1.46c3.01-1.31,7.28-3.49,12.02-7.13
		c11.46-9.46,17.12-20.01,19.87-26.34c4.93-11.38,4.79-19.14,4.11-23.99c-0.51-3.65-1.28-8.63-5.03-11.98
		C2974.39,136.38,2968.4,137.65,2967.34,137.87z"/>
	<g>
		
			<ellipse transform="matrix(0.7835 -0.6214 0.6214 0.7835 503.1544 1990.2821)" class="st1" cx="3107.77" cy="273.08" rx="16.41" ry="19.49"/>
		
			<ellipse transform="matrix(0.2852 -0.9585 0.9585 0.2852 1979.0065 3182.8059)" class="st1" cx="3123.38" cy="264.6" rx="8.47" ry="24.57"/>
		
			<ellipse transform="matrix(0.6744 -0.7384 0.7384 0.6744 804.9922 2370.9077)" class="st1" cx="3090.68" cy="272.74" rx="22.02" ry="9.45"/>
	</g>
	<g>
		
			<ellipse transform="matrix(0.6214 -0.7835 0.7835 0.6214 926.2003 2462.8313)" class="st1" cx="3011.44" cy="273.06" rx="19.49" ry="16.41"/>
		
			<ellipse transform="matrix(0.9585 -0.2852 0.2852 0.9585 48.9337 865.4402)" class="st1" cx="2996.05" cy="264.7" rx="24.57" ry="8.47"/>
		
			<ellipse transform="matrix(0.7384 -0.6744 0.6744 0.7384 608.3492 2113.8938)" class="st1" cx="3028.7" cy="272.87" rx="9.45" ry="22.02"/>
	</g>
	<g>
		<ellipse class="st0" cx="3060.69" cy="156.54" rx="103.5" ry="124"/>
	</g>
	<path class="st2" d="M3076.19,130.04c29.57,57.38,29.26,135.35,1,148.5c-11.33,5.27-30.8,1.82-35,1c-12.18-2.38-20.72-7.06-26-10
		c-13.01-7.26-20.76-15.42-27-22c-1.61-1.7-11.68-12.43-15-22c-2.34-6.74-2-13-2-13c0.05-0.85,0.1-1.68,0.27-2.72
		c0.46-2.92,1.7-6.15,6.35-22.39c1.04-3.64,1.93-8.07,2.38-13.89c1.8-23-6.2-27.68-4-43.5c3.29-23.63,26.26-49.93,49.5-49.5
		C3050.95,80.99,3065.68,109.65,3076.19,130.04z"/>
	<path class="st2" d="M3044.36,130.04c-29.57,57.38-29.26,135.35-1,148.5c11.33,5.27,30.8,1.82,35,1c12.18-2.38,20.72-7.06,26-10
		c13.01-7.26,20.76-15.42,27-22c1.61-1.7,11.68-12.43,15-22c2.34-6.74,2-13,2-13c-0.05-0.85-0.1-1.68-0.27-2.72
		c-0.46-2.92-1.7-6.15-6.35-22.39c-1.04-3.64-1.93-8.07-2.38-13.89c-1.8-23,6.2-27.68,4-43.5c-3.29-23.63-26.26-49.93-49.5-49.5
		C3069.6,80.99,3054.87,109.65,3044.36,130.04z"/>
	<circle cx="3019.69" cy="126.04" r="9.5"/>
	<circle cx="3098.69" cy="126.04" r="9.5"/>
	<polygon class="st1" points="3061.19,164.54 3046.8,143.68 3060.19,130.12 3074.39,144.49 	"/>
</g>
</svg>
