<?xml version="1.0" encoding="utf-8"?>
<!-- Generator: Adobe Illustrator 23.0.1, SVG Export Plug-In . SVG Version: 6.00 Build 0)  -->
<svg version="1.1" id="Layer_1" xmlns="http://www.w3.org/2000/svg" xmlns:xlink="http://www.w3.org/1999/xlink" x="0px" y="0px"
	 viewBox="0 0 3240 324" style="enable-background:new 0 0 3240 324;" xml:space="preserve">
<style type="text/css">
	.st0{fill:#1A1A1A;}
	.st1{fill:#FBB03B;}
	.st2{fill:#FFFFFF;}
</style>
<g id="penguin_x5F_sad0_x28_0_x29_">
	<path class="st0" d="M272.66,137.87c7.19,1.51,10.77,8.14,16.7,19.54c3.53,6.8,5.47,12.81,9.35,24.83c0,0,2.54,7.87,3.44,19.31
		c0.45,5.76,0.17,8.54-1.39,9.83c-0.65,0.54-2.21,1.39-8.77-1.46c-3.01-1.31-7.28-3.49-12.02-7.13
		c-11.46-9.46-17.12-20.01-19.87-26.34c-4.93-11.38-4.79-19.14-4.11-23.99c0.51-3.65,1.28-8.63,5.03-11.98
		C265.6,136.38,271.59,137.65,272.66,137.87z"/>
	<path class="st0" d="M87.33,137.87c-7.19,1.51-10.77,8.14-16.7,19.54c-3.53,6.8-5.47,12.81-9.35,24.83c0,0-2.54,7.87-3.44,19.31
		c-0.45,5.76-0.17,8.54,1.39,9.83c0.65,0.54,2.21,1.39,8.77-1.46c3.01-1.31,7.28-3.49,12.02-7.13
		c11.46-9.46,17.12-20.01,19.87-26.34c4.93-11.38,4.79-19.14,4.11-23.99c-0.51-3.65-1.28-8.63-5.03-11.98
		C94.39,136.38,88.4,137.65,87.33,137.87z"/>
	<g>
		
			<ellipse transform="matrix(0.7835 -0.6214 0.6214 0.7835 -120.3901 200.6404)" class="st1" cx="227.74" cy="273.09" rx="16.41" ry="19.49"/>
		
			<ellipse transform="matrix(0.2852 -0.9585 0.9585 0.2852 -79.8324 422.4434)" class="st1" cx="243.31" cy="264.74" rx="8.47" ry="24.57"/>
		
			<ellipse transform="matrix(0.6744 -0.7384 0.7384 0.6744 -132.909 244.3776)" class="st1" cx="210.63" cy="272.88" rx="22.02" ry="9.45"/>
	</g>
	<g>
		
			<ellipse transform="matrix(0.6214 -0.7835 0.7835 0.6214 -164.2042 206.3652)" class="st1" cx="131.43" cy="273.09" rx="19.49" ry="16.41"/>
		
			<ellipse transform="matrix(0.9585 -0.2852 0.2852 0.9585 -70.6991 44.0489)" class="st1" cx="115.9" cy="264.78" rx="24.57" ry="8.47"/>
		
			<ellipse transform="matrix(0.7384 -0.6744 0.6744 0.7384 -145.1702 171.5869)" class="st1" cx="148.57" cy="272.9" rx="9.45" ry="22.02"/>
	</g>
	<g>
		<ellipse class="st0" cx="180.68" cy="156.54" rx="103.5" ry="124"/>
	</g>
	<path class="st2" d="M196.18,130.04c29.57,57.38,29.26,135.35,1,148.5c-11.33,5.27-30.8,1.82-35,1c-12.18-2.38-20.72-7.06-26-10
		c-13.01-7.26-20.76-15.42-27-22c-1.61-1.7-11.68-12.43-15-22c-2.34-6.74-2-13-2-13c0.05-0.85,0.1-1.68,0.27-2.72
		c0.46-2.92,1.7-6.15,6.35-22.39c1.04-3.64,1.93-8.07,2.38-13.89c1.8-23-6.2-27.68-4-43.5c3.29-23.63,26.26-49.93,49.5-49.5
		C170.94,80.99,185.67,109.65,196.18,130.04z"/>
	<path class="st2" d="M164.36,130.04c-29.57,57.38-29.26,135.35-1,148.5c11.33,5.27,30.8,1.82,35,1c12.18-2.38,20.72-7.06,26-10
		c13.01-7.26,20.76-15.42,27-22c1.61-1.7,11.68-12.43,15-22c2.34-6.74,2-13,2-13c-0.05-0.85-0.1-1.68-0.27-2.72
		c-0.46-2.92-1.7-6.15-6.35-22.39c-1.04-3.64-1.93-8.07-2.38-13.89c-1.8-23,6.2-27.68,4-43.5c-3.29-23.63-26.26-49.93-49.5-49.5
		C189.6,80.99,174.87,109.65,164.36,130.04z"/>
	<ellipse cx="139.69" cy="126.05" rx="9.5" ry="9.5"/>
	<circle cx="218.68" cy="126.04" r="9.5"/>
	<polygon class="st1" points="181.18,164.54 166.79,143.68 180.18,130.12 194.38,144.49 	"/>
</g>
<g id="penguin_x5F_sad1_x28_1_x2F_2L_x29_">
	<path class="st0" d="M632.66,137.87c7.19,1.51,10.77,8.14,16.7,19.54c3.53,6.8,5.47,12.81,9.35,24.83c0,0,2.54,7.87,3.44,19.31
		c0.45,5.76,0.17,8.54-1.39,9.83c-0.65,0.54-2.21,1.39-8.77-1.46c-3.01-1.31-7.28-3.49-12.02-7.13
		c-11.46-9.46-17.12-20.01-19.87-26.34c-4.93-11.38-4.79-19.14-4.11-23.99c0.51-3.65,1.28-8.63,5.03-11.98
		C625.61,136.38,631.6,137.65,632.66,137.87z"/>
	<path class="st0" d="M447.34,137.87c-7.19,1.51-10.77,8.14-16.7,19.54c-3.53,6.8-5.47,12.81-9.35,24.83c0,0-2.54,7.87-3.44,19.31
		c-0.45,5.76-0.17,8.54,1.39,9.83c0.65,0.54,2.21,1.39,8.77-1.46c3.01-1.31,7.28-3.49,12.02-7.13
		c11.46-9.46,17.12-20.01,19.87-26.34c4.93-11.38,4.79-19.14,4.11-23.99c-0.51-3.65-1.28-8.63-5.03-11.98
		C454.39,136.38,448.4,137.65,447.34,137.87z"/>
	<g>
		
			<ellipse transform="matrix(0.7835 -0.6214 0.6214 0.7835 -42.4489 424.3466)" class="st1" cx="587.74" cy="273.09" rx="16.41" ry="19.49"/>
		
			<ellipse transform="matrix(0.2852 -0.9585 0.9585 0.2852 177.5151 767.4957)" class="st1" cx="603.32" cy="264.73" rx="8.47" ry="24.57"/>
		
			<ellipse transform="matrix(0.6744 -0.7384 0.7384 0.6744 -15.6714 510.1977)" class="st1" cx="570.64" cy="272.87" rx="22.02" ry="9.45"/>
	</g>
	<g>
		
			<ellipse transform="matrix(0.6214 -0.7835 0.7835 0.6214 -27.9033 488.429)" class="st1" cx="491.44" cy="273.09" rx="19.49" ry="16.41"/>
		
			<ellipse transform="matrix(0.9585 -0.2852 0.2852 0.9585 -55.7436 146.7225)" class="st1" cx="475.92" cy="264.76" rx="24.57" ry="8.47"/>
		
			<ellipse transform="matrix(0.7384 -0.6744 0.6744 0.7384 -50.9861 414.369)" class="st1" cx="508.57" cy="272.9" rx="9.45" ry="22.02"/>
	</g>
	<g>
		<ellipse class="st0" cx="540.69" cy="156.54" rx="103.5" ry="124"/>
	</g>
	<path class="st2" d="M549.19,130.54c26.17,56.22,35.08,134.02,8,148c-11.22,5.79-30.94,1.79-35,1c-12.18-2.38-20.72-7.06-26-10
		c-13.01-7.26-20.76-15.42-27-22c-1.61-1.7-11.68-12.43-15-22c-2.34-6.74-2-13-2-13c0.05-0.85,0.1-1.68,0.27-2.72
		c0.46-2.92,1.7-6.15,6.35-22.39c1.04-3.64,1.93-8.07,2.38-13.89c1.8-23-6.2-27.68-4-43.5c2.91-20.89,25.77-51.5,49.5-49.5
		C526.7,82.23,537.99,106.5,549.19,130.54z"/>
	<path class="st2" d="M506.19,122.54c-37.29,56.11-16.48,144.4,17.17,156c6.72,2.31,20.65,3.81,35,1c12.18-2.38,20.72-7.06,26-10
		c13.01-7.26,20.76-15.42,27-22c1.61-1.7,11.68-12.43,15-22c2.34-6.74,2-13,2-13c-0.05-0.85-0.1-1.68-0.27-2.72
		c-0.46-2.92-1.7-6.15-6.35-22.39c-1.04-3.64-1.93-8.07-2.38-13.89c-1.8-23,6.2-27.68,4-43.5c-2.65-18.99-22.85-45.76-49.5-49.5
		C537.49,75.44,511.2,115,506.19,122.54z"/>
	<polygon points="480.19,118.54 482.19,114.54 500.19,124.54 500.19,128.54 482.19,136.54 480.19,132.54 494.19,126.54 	"/>
	<polygon class="st1" points="525.19,164.54 510.8,143.68 524.19,130.12 538.39,144.49 	"/>
	<polygon points="572.19,118.54 570.19,114.54 552.19,124.54 552.19,128.54 570.19,136.54 572.19,132.54 558.19,126.54 	"/>
</g>
<g id="penguin_x5F_sad2_x28_2_x2F_2L_x29_">
	<path class="st0" d="M992.66,137.87c7.19,1.51,10.77,8.14,16.7,19.54c3.53,6.8,5.47,12.81,9.35,24.83c0,0,2.54,7.87,3.44,19.31
		c0.45,5.76,0.17,8.54-1.39,9.83c-0.65,0.54-2.21,1.39-8.77-1.46c-3.01-1.31-7.28-3.49-12.02-7.13
		c-11.46-9.46-17.12-20.01-19.87-26.34c-4.93-11.38-4.79-19.14-4.11-23.99c0.51-3.65,1.28-8.63,5.03-11.98
		C985.61,136.38,991.6,137.65,992.66,137.87z"/>
	<path class="st0" d="M807.34,137.87c-7.19,1.51-10.77,8.14-16.7,19.54c-3.53,6.8-5.47,12.81-9.35,24.83c0,0-2.54,7.87-3.44,19.31
		c-0.45,5.76-0.17,8.54,1.39,9.83c0.65,0.54,2.21,1.39,8.77-1.46c3.01-1.31,7.28-3.49,12.02-7.13
		c11.46-9.46,17.12-20.01,19.87-26.34c4.93-11.38,4.79-19.14,4.11-23.99c-0.51-3.65-1.28-8.63-5.03-11.98
		C814.39,136.38,808.4,137.65,807.34,137.87z"/>
	<g>
		
			<ellipse transform="matrix(0.7835 -0.6214 0.6214 0.7835 35.4929 648.0507)" class="st1" cx="947.74" cy="273.09" rx="16.41" ry="19.49"/>
		
			<ellipse transform="matrix(0.2852 -0.9585 0.9585 0.2852 434.8752 1112.5367)" class="st1" cx="963.33" cy="264.71" rx="8.47" ry="24.57"/>
		
			<ellipse transform="matrix(0.6744 -0.7384 0.7384 0.6744 101.5658 776.0145)" class="st1" cx="930.64" cy="272.85" rx="22.02" ry="9.45"/>
	</g>
	<g>
		
			<ellipse transform="matrix(0.6214 -0.7835 0.7835 0.6214 108.3986 770.4804)" class="st1" cx="851.43" cy="273.08" rx="19.49" ry="16.41"/>
		
			<ellipse transform="matrix(0.9585 -0.2852 0.2852 0.9585 -40.791 249.3975)" class="st1" cx="835.94" cy="264.76" rx="24.57" ry="8.47"/>
		
			<ellipse transform="matrix(0.7384 -0.6744 0.6744 0.7384 43.2042 657.1569)" class="st1" cx="868.59" cy="272.89" rx="9.45" ry="22.02"/>
	</g>
	<g>
		<ellipse class="st0" cx="900.69" cy="156.54" rx="103.5" ry="124"/>
	</g>
	<path class="st2" d="M900.19,130.54c4.99,12.99,48.75,129.05,17,148c-10.09,6.02-28.07,2.36-35,1c-12.18-2.38-20.72-7.06-26-10
		c-13.01-7.26-20.76-15.42-27-22c-1.61-1.7-11.68-12.43-15-22c-2.34-6.74-2-13-2-13c0.05-0.85,0.1-1.68,0.27-2.72
		c0.46-2.92,1.7-6.15,6.35-22.39c1.04-3.64,1.93-8.07,2.38-13.89c1.8-23-6.2-27.68-4-43.5c3.04-21.82,27.84-53.12,49.5-49.5
		C873.51,81.69,883.44,86.93,900.19,130.54z"/>
	<path class="st2" d="M847.19,123.54c-36.63,56.95,0.17,144.94,36.17,155c16.78,4.69,35,1,35,1c12.18-2.38,20.72-7.06,26-10
		c13.01-7.26,20.76-15.42,27-22c1.61-1.7,11.68-12.43,15-22c2.34-6.74,2-13,2-13c-0.05-0.85-0.1-1.68-0.27-2.72
		c-0.46-2.92-1.7-6.15-6.35-22.39c-1.04-3.64-1.93-8.07-2.38-13.89c-1.8-23,6.2-27.68,4-43.5c-2.61-18.72-23.96-43.3-49.5-49.5
		C898.56,71.98,863.36,98.4,847.19,123.54z"/>
	<polygon class="st1" points="868.19,164.54 853.8,143.68 867.19,130.12 881.39,144.49 	"/>
	<polygon points="832.19,118.54 834.19,114.54 852.19,124.54 852.19,128.54 834.19,136.54 832.19,132.54 846.19,126.54 	"/>
	<polygon points="917.19,118.54 915.19,114.54 897.19,124.54 897.19,128.54 915.19,136.54 917.19,132.54 903.19,126.54 	"/>
</g>
<g id="penguin_x5F_sad3_x28_1_x2F_2L_x29_">
	<path class="st0" d="M1352.66,137.87c7.19,1.51,10.77,8.14,16.7,19.54c3.53,6.8,5.47,12.81,9.35,24.83c0,0,2.54,7.87,3.44,19.31
		c0.45,5.76,0.17,8.54-1.39,9.83c-0.65,0.54-2.21,1.39-8.77-1.46c-3.01-1.31-7.28-3.49-12.02-7.13
		c-11.46-9.46-17.12-20.01-19.87-26.34c-4.93-11.38-4.79-19.14-4.11-23.99c0.51-3.65,1.28-8.63,5.03-11.98
		C1345.61,136.38,1351.6,137.65,1352.66,137.87z"/>
	<path class="st0" d="M1167.34,137.87c-7.19,1.51-10.77,8.14-16.7,19.54c-3.53,6.8-5.47,12.81-9.35,24.83c0,0-2.54,7.87-3.44,19.31
		c-0.45,5.76-0.17,8.54,1.39,9.83c0.65,0.54,2.21,1.39,8.77-1.46c3.01-1.31,7.28-3.49,12.02-7.13
		c11.46-9.46,17.12-20.01,19.87-26.34c4.93-11.38,4.79-19.14,4.11-23.99c-0.51-3.65-1.28-8.63-5.03-11.98
		C1174.39,136.38,1168.4,137.65,1167.34,137.87z"/>
	<g>
		
			<ellipse transform="matrix(0.7835 -0.6214 0.6214 0.7835 113.4402 871.7583)" class="st1" cx="1307.75" cy="273.08" rx="16.41" ry="19.49"/>
		
			<ellipse transform="matrix(0.2852 -0.9585 0.9585 0.2852 692.2241 1457.5819)" class="st1" cx="1323.33" cy="264.7" rx="8.47" ry="24.57"/>
		
			<ellipse transform="matrix(0.6744 -0.7384 0.7384 0.6744 218.8031 1041.8313)" class="st1" cx="1290.65" cy="272.83" rx="22.02" ry="9.45"/>
	</g>
	<g>
		
			<ellipse transform="matrix(0.6214 -0.7835 0.7835 0.6214 244.6987 1052.5404)" class="st1" cx="1211.43" cy="273.08" rx="19.49" ry="16.41"/>
		
			<ellipse transform="matrix(0.9585 -0.2852 0.2852 0.9585 -25.837 352.0687)" class="st1" cx="1195.95" cy="264.75" rx="24.57" ry="8.47"/>
		
			<ellipse transform="matrix(0.7384 -0.6744 0.6744 0.7384 137.4009 899.9479)" class="st1" cx="1228.61" cy="272.88" rx="9.45" ry="22.02"/>
	</g>
	<g>
		<ellipse class="st0" cx="1260.69" cy="156.54" rx="103.5" ry="124"/>
	</g>
	<path class="st2" d="M1269.19,130.54c26.17,56.22,35.08,134.02,8,148c-11.22,5.79-30.94,1.79-35,1c-12.18-2.38-20.72-7.06-26-10
		c-13.01-7.26-20.76-15.42-27-22c-1.61-1.7-11.68-12.43-15-22c-2.34-6.74-2-13-2-13c0.05-0.85,0.1-1.68,0.27-2.72
		c0.46-2.92,1.7-6.15,6.35-22.39c1.04-3.64,1.93-8.07,2.38-13.89c1.8-23-6.2-27.68-4-43.5c2.91-20.89,25.77-51.5,49.5-49.5
		C1246.7,82.23,1257.99,106.5,1269.19,130.54z"/>
	<path class="st2" d="M1226.19,122.54c-37.29,56.11-16.48,144.4,17.17,156c6.72,2.31,20.65,3.81,35,1c12.18-2.38,20.72-7.06,26-10
		c13.01-7.26,20.76-15.42,27-22c1.61-1.7,11.68-12.43,15-22c2.34-6.74,2-13,2-13c-0.05-0.85-0.1-1.68-0.27-2.72
		c-0.46-2.92-1.7-6.15-6.35-22.39c-1.04-3.64-1.93-8.07-2.38-13.89c-1.8-23,6.2-27.68,4-43.5c-2.65-18.99-22.85-45.76-49.5-49.5
		C1257.49,75.44,1231.2,115,1226.19,122.54z"/>
	<polygon points="1200.19,118.54 1202.19,114.54 1220.19,124.54 1220.19,128.54 1202.19,136.54 1200.19,132.54 1214.19,126.54 	"/>
	<polygon class="st1" points="1245.19,164.54 1230.8,143.68 1244.19,130.12 1258.39,144.49 	"/>
	<polygon points="1292.19,118.54 1290.19,114.54 1272.19,124.54 1272.19,128.54 1290.19,136.54 1292.19,132.54 1278.19,126.54 	"/>
</g>
<g id="penguin_x5F_sad4_x28_1_x29_">
	<path class="st0" d="M1712.66,137.87c7.19,1.51,10.77,8.14,16.7,19.54c3.53,6.8,5.47,12.81,9.35,24.83c0,0,2.54,7.87,3.44,19.31
		c0.45,5.76,0.17,8.54-1.39,9.83c-0.65,0.54-2.21,1.39-8.77-1.46c-3.01-1.31-7.28-3.49-12.02-7.13
		c-11.46-9.46-17.12-20.01-19.87-26.34c-4.93-11.38-4.79-19.14-4.11-23.99c0.51-3.65,1.28-8.63,5.03-11.98
		C1705.61,136.38,1711.6,137.65,1712.66,137.87z"/>
	<path class="st0" d="M1527.34,137.87c-7.19,1.51-10.77,8.14-16.7,19.54c-3.53,6.8-5.47,12.81-9.35,24.83c0,0-2.54,7.87-3.44,19.31
		c-0.45,5.76-0.17,8.54,1.39,9.83c0.65,0.54,2.21,1.39,8.77-1.46c3.01-1.31,7.28-3.49,12.02-7.13
		c11.46-9.46,17.12-20.01,19.87-26.34c4.93-11.38,4.79-19.14,4.11-23.99c-0.51-3.65-1.28-8.63-5.03-11.98
		C1534.39,136.38,1528.4,137.65,1527.34,137.87z"/>
	<g>
		
			<ellipse transform="matrix(0.7835 -0.6214 0.6214 0.7835 191.382 1095.4624)" class="st1" cx="1667.76" cy="273.08" rx="16.41" ry="19.49"/>
		
			<ellipse transform="matrix(0.2852 -0.9585 0.9585 0.2852 949.5842 1802.6228)" class="st1" cx="1683.34" cy="264.67" rx="8.47" ry="24.57"/>
		
			<ellipse transform="matrix(0.6744 -0.7384 0.7384 0.6744 336.0404 1307.6481)" class="st1" cx="1650.66" cy="272.81" rx="22.02" ry="9.45"/>
	</g>
	<g>
		
			<ellipse transform="matrix(0.6214 -0.7835 0.7835 0.6214 380.9985 1334.6002)" class="st1" cx="1571.44" cy="273.07" rx="19.49" ry="16.41"/>
		
			<ellipse transform="matrix(0.9585 -0.2852 0.2852 0.9585 -10.8819 454.7426)" class="st1" cx="1555.97" cy="264.74" rx="24.57" ry="8.47"/>
		
			<ellipse transform="matrix(0.7384 -0.6744 0.6744 0.7384 231.5912 1142.7358)" class="st1" cx="1588.63" cy="272.88" rx="9.45" ry="22.02"/>
	</g>
	<g>
		<ellipse class="st0" cx="1620.69" cy="156.54" rx="103.5" ry="124"/>
	</g>
	<path class="st2" d="M1636.19,130.04c29.57,57.38,29.26,135.35,1,148.5c-11.33,5.27-30.8,1.82-35,1c-12.18-2.38-20.72-7.06-26-10
		c-13.01-7.26-20.76-15.42-27-22c-1.61-1.7-11.68-12.43-15-22c-2.34-6.74-2-13-2-13c0.05-0.85,0.1-1.68,0.27-2.72
		c0.46-2.92,1.7-6.15,6.35-22.39c1.04-3.64,1.93-8.07,2.38-13.89c1.8-23-6.2-27.68-4-43.5c3.29-23.63,26.26-49.93,49.5-49.5
		C1610.95,80.99,1625.68,109.65,1636.19,130.04z"/>
	<path class="st2" d="M1604.36,130.04c-29.57,57.38-29.26,135.35-1,148.5c11.33,5.27,30.8,1.82,35,1c12.18-2.38,20.72-7.06,26-10
		c13.01-7.26,20.76-15.42,27-22c1.61-1.7,11.68-12.43,15-22c2.34-6.74,2-13,2-13c-0.05-0.85-0.1-1.68-0.27-2.72
		c-0.46-2.92-1.7-6.15-6.35-22.39c-1.04-3.64-1.93-8.07-2.38-13.89c-1.8-23,6.2-27.68,4-43.5c-3.29-23.63-26.26-49.93-49.5-49.5
		C1629.6,80.99,1614.87,109.65,1604.36,130.04z"/>
	<polygon class="st1" points="1621.19,164.54 1606.8,143.68 1620.19,130.12 1634.39,144.49 	"/>
	<polygon points="1569.19,118.54 1571.19,114.54 1589.19,124.54 1589.19,128.54 1571.19,136.54 1569.19,132.54 1583.19,126.54 	"/>
	<polygon points="1669.19,118.54 1667.19,114.54 1649.19,124.54 1649.19,128.54 1667.19,136.54 1669.19,132.54 1655.19,126.54 	"/>
</g>
<g id="penguin_x5F_sad5_x28_1_x2F_2R_x29_">
	<path class="st0" d="M1887.34,137.87c-7.19,1.51-10.77,8.14-16.7,19.54c-3.53,6.8-5.47,12.81-9.35,24.83c0,0-2.54,7.87-3.44,19.31
		c-0.45,5.76-0.17,8.54,1.39,9.83c0.65,0.54,2.21,1.39,8.77-1.46c3.01-1.31,7.28-3.49,12.02-7.13
		c11.46-9.46,17.12-20.01,19.87-26.34c4.93-11.38,4.79-19.14,4.11-23.99c-0.51-3.65-1.28-8.63-5.03-11.98
		C1894.39,136.38,1888.4,137.65,1887.34,137.87z"/>
	<path class="st0" d="M2072.66,137.87c7.19,1.51,10.77,8.14,16.7,19.54c3.53,6.8,5.47,12.81,9.35,24.83c0,0,2.54,7.87,3.44,19.31
		c0.45,5.76,0.17,8.54-1.39,9.83c-0.65,0.54-2.21,1.39-8.77-1.46c-3.01-1.31-7.28-3.49-12.02-7.13
		c-11.46-9.46-17.12-20.01-19.87-26.34c-4.93-11.38-4.79-19.14-4.11-23.99c0.51-3.65,1.28-8.63,5.03-11.98
		C2065.61,136.38,2071.6,137.65,2072.66,137.87z"/>
	<g>
		
			<ellipse transform="matrix(0.6214 -0.7835 0.7835 0.6214 517.6101 1617.3098)" class="st1" cx="1932.27" cy="273.07" rx="19.49" ry="16.41"/>
		
			<ellipse transform="matrix(0.9585 -0.2852 0.2852 0.9585 4.1057 557.6572)" class="st1" cx="1916.83" cy="264.73" rx="24.57" ry="8.47"/>
		
			<ellipse transform="matrix(0.7384 -0.6744 0.6744 0.7384 325.994 1386.0892)" class="st1" cx="1949.48" cy="272.88" rx="9.45" ry="22.02"/>
	</g>
	<g>
		
			<ellipse transform="matrix(0.7835 -0.6214 0.6214 0.7835 269.5023 1319.6815)" class="st1" cx="2028.59" cy="273.09" rx="16.41" ry="19.49"/>
		<path class="st1" d="M2020.64,257.64c1.33-4.48,12.96-4.98,25.97-1.11c13.01,3.87,22.47,10.64,21.13,15.13
			c-1.33,4.48-12.96,4.98-25.97,1.11C2028.77,268.9,2019.3,262.13,2020.64,257.64z"/>
		
			<ellipse transform="matrix(0.6744 -0.7384 0.7384 0.6744 453.5458 1574.0769)" class="st1" cx="2011.49" cy="272.8" rx="22.02" ry="9.45"/>
	</g>
	<g>
		<ellipse class="st0" cx="1979.31" cy="156.54" rx="103.5" ry="124"/>
	</g>
	<path class="st2" d="M1970.81,130.54c-26.17,56.22-35.08,134.02-8,148c11.22,5.79,30.94,1.79,35,1c12.18-2.38,20.72-7.06,26-10
		c13.01-7.26,20.76-15.42,27-22c1.61-1.7,11.68-12.43,15-22c2.34-6.74,2-13,2-13c-0.05-0.85-0.1-1.68-0.27-2.72
		c-0.46-2.92-1.7-6.15-6.35-22.39c-1.04-3.64-1.93-8.07-2.38-13.89c-1.8-23,6.2-27.68,4-43.5c-2.91-20.89-25.77-51.5-49.5-49.5
		C1993.3,82.23,1982.01,106.5,1970.81,130.54z"/>
	<path class="st2" d="M2013.81,122.54c37.29,56.11,16.48,144.4-17.17,156c-6.72,2.31-20.65,3.81-35,1c-12.18-2.38-20.72-7.06-26-10
		c-13.01-7.26-20.76-15.42-27-22c-1.61-1.7-11.68-12.43-15-22c-2.34-6.74-2-13-2-13c0.05-0.85,0.1-1.68,0.27-2.72
		c0.46-2.92,1.7-6.15,6.35-22.39c1.04-3.64,1.93-8.07,2.38-13.89c1.8-23-6.2-27.68-4-43.5c2.65-18.99,22.85-45.76,49.5-49.5
		C1982.51,75.44,2008.8,115,2013.81,122.54z"/>
	<polygon points="2039.81,118.54 2037.81,114.54 2019.81,124.54 2019.81,128.54 2037.81,136.54 2039.81,132.54 2025.81,126.54 	"/>
	<polygon class="st1" points="1994.81,164.54 2009.2,143.68 1995.81,130.12 1981.61,144.49 	"/>
	<polygon points="1947.81,118.54 1949.81,114.54 1967.81,124.54 1967.81,128.54 1949.81,136.54 1947.81,132.54 1961.81,126.54 	"/>
</g>
<g id="penguin_x5F_sad5_x28_2_x2F_2R_x29_">
	<path class="st0" d="M2247.34,137.87c-7.19,1.51-10.77,8.14-16.7,19.54c-3.53,6.8-5.47,12.81-9.35,24.83c0,0-2.54,7.87-3.44,19.31
		c-0.45,5.76-0.17,8.54,1.39,9.83c0.65,0.54,2.21,1.39,8.77-1.46c3.01-1.31,7.28-3.49,12.02-7.13
		c11.46-9.46,17.12-20.01,19.87-26.34c4.93-11.38,4.79-19.14,4.11-23.99c-0.51-3.65-1.28-8.63-5.03-11.98
		C2254.39,136.38,2248.4,137.65,2247.34,137.87z"/>
	<path class="st0" d="M2432.66,137.87c7.19,1.51,10.77,8.14,16.7,19.54c3.53,6.8,5.47,12.81,9.35,24.83c0,0,2.54,7.87,3.44,19.31
		c0.45,5.76,0.17,8.54-1.39,9.83c-0.65,0.54-2.21,1.39-8.77-1.46c-3.01-1.31-7.28-3.49-12.02-7.13
		c-11.46-9.46-17.12-20.01-19.87-26.34c-4.93-11.38-4.79-19.14-4.11-23.99c0.51-3.65,1.28-8.63,5.03-11.98
		C2425.61,136.38,2431.6,137.65,2432.66,137.87z"/>
	<g>
		
			<ellipse transform="matrix(0.6214 -0.7835 0.7835 0.6214 653.91 1899.3696)" class="st1" cx="2292.27" cy="273.07" rx="19.49" ry="16.41"/>
		
			<ellipse transform="matrix(0.9585 -0.2852 0.2852 0.9585 19.0611 660.3309)" class="st1" cx="2276.85" cy="264.72" rx="24.57" ry="8.47"/>
		
			<ellipse transform="matrix(0.7384 -0.6744 0.6744 0.7384 420.1843 1628.877)" class="st1" cx="2309.5" cy="272.88" rx="9.45" ry="22.02"/>
	</g>
	<g>
		
			<ellipse transform="matrix(0.7835 -0.6214 0.6214 0.7835 347.4442 1543.3857)" class="st1" cx="2388.59" cy="273.09" rx="16.41" ry="19.49"/>
		
			<ellipse transform="matrix(0.2852 -0.9585 0.9585 0.2852 1464.9033 2493.5107)" class="st1" cx="2404.2" cy="264.63" rx="8.47" ry="24.57"/>
		
			<ellipse transform="matrix(0.6744 -0.7384 0.7384 0.6744 570.7831 1839.8938)" class="st1" cx="2371.5" cy="272.78" rx="22.02" ry="9.45"/>
	</g>
	<g>
		<ellipse class="st0" cx="2339.31" cy="156.54" rx="103.5" ry="124"/>
	</g>
	<path class="st2" d="M2339.81,130.54c-4.99,12.99-48.75,129.05-17,148c10.09,6.02,28.07,2.36,35,1c12.18-2.38,20.72-7.06,26-10
		c13.01-7.26,20.76-15.42,27-22c1.61-1.7,11.68-12.43,15-22c2.34-6.74,2-13,2-13c-0.05-0.85-0.1-1.68-0.27-2.72
		c-0.46-2.92-1.7-6.15-6.35-22.39c-1.04-3.64-1.93-8.07-2.38-13.89c-1.8-23,6.2-27.68,4-43.5c-3.04-21.82-27.84-53.12-49.5-49.5
		C2366.49,81.69,2356.56,86.93,2339.81,130.54z"/>
	<path class="st2" d="M2392.81,123.54c36.63,56.95-0.17,144.94-36.17,155c-16.78,4.69-35,1-35,1c-12.18-2.38-20.72-7.06-26-10
		c-13.01-7.26-20.76-15.42-27-22c-1.61-1.7-11.68-12.43-15-22c-2.34-6.74-2-13-2-13c0.05-0.85,0.1-1.68,0.27-2.72
		c0.46-2.92,1.7-6.15,6.35-22.39c1.04-3.64,1.93-8.07,2.38-13.89c1.8-23-6.2-27.68-4-43.5c2.61-18.72,23.96-43.3,49.5-49.5
		C2341.44,71.98,2376.64,98.4,2392.81,123.54z"/>
	<polygon class="st1" points="2371.81,164.54 2386.2,143.68 2372.81,130.12 2358.61,144.49 	"/>
	<polygon points="2407.81,118.54 2405.81,114.54 2387.81,124.54 2387.81,128.54 2405.81,136.54 2407.81,132.54 2393.81,126.54 	"/>
	<polygon points="2322.81,118.54 2324.81,114.54 2342.81,124.54 2342.81,128.54 2324.81,136.54 2322.81,132.54 2336.81,126.54 	"/>
</g>
<g id="penguin_x5F_sad7_x28_1_x2F_2R_x29_">
	<path class="st0" d="M2607.34,137.87c-7.19,1.51-10.77,8.14-16.7,19.54c-3.53,6.8-5.47,12.81-9.35,24.83c0,0-2.54,7.87-3.44,19.31
		c-0.45,5.76-0.17,8.54,1.39,9.83c0.65,0.54,2.21,1.39,8.77-1.46c3.01-1.31,7.28-3.49,12.02-7.13
		c11.46-9.46,17.12-20.01,19.87-26.34c4.93-11.38,4.79-19.14,4.11-23.99c-0.51-3.65-1.28-8.63-5.03-11.98
		C2614.39,136.38,2608.4,137.65,2607.34,137.87z"/>
	<path class="st0" d="M2792.66,137.87c7.19,1.51,10.77,8.14,16.7,19.54c3.53,6.8,5.47,12.81,9.35,24.83c0,0,2.54,7.87,3.44,19.31
		c0.45,5.76,0.17,8.54-1.39,9.83c-0.65,0.54-2.21,1.39-8.77-1.46c-3.01-1.31-7.28-3.49-12.02-7.13
		c-11.46-9.46-17.12-20.01-19.87-26.34c-4.93-11.38-4.79-19.14-4.11-23.99c0.51-3.65,1.28-8.63,5.03-11.98
		C2785.61,136.38,2791.6,137.65,2792.66,137.87z"/>
	<g>
		
			<ellipse transform="matrix(0.6214 -0.7835 0.7835 0.6214 790.21 2181.4294)" class="st1" cx="2652.27" cy="273.07" rx="19.49" ry="16.41"/>
		
			<ellipse transform="matrix(0.9585 -0.2852 0.2852 0.9585 34.0161 763.0049)" class="st1" cx="2636.87" cy="264.7" rx="24.57" ry="8.47"/>
		
			<ellipse transform="matrix(0.7384 -0.6744 0.6744 0.7384 514.3747 1871.6649)" class="st1" cx="2669.52" cy="272.87" rx="9.45" ry="22.02"/>
	</g>
	<g>
		
			<ellipse transform="matrix(0.7835 -0.6214 0.6214 0.7835 425.3914 1767.0933)" class="st1" cx="2748.6" cy="273.08" rx="16.41" ry="19.49"/>
		
			<ellipse transform="matrix(0.2852 -0.9585 0.9585 0.2852 1722.2521 2838.5557)" class="st1" cx="2764.2" cy="264.61" rx="8.47" ry="24.57"/>
		
			<ellipse transform="matrix(0.6744 -0.7384 0.7384 0.6744 688.0229 2105.7029)" class="st1" cx="2731.5" cy="272.76" rx="22.02" ry="9.45"/>
	</g>
	<g>
		<ellipse class="st0" cx="2699.31" cy="156.54" rx="103.5" ry="124"/>
	</g>
	<path class="st2" d="M2690.81,130.54c-26.17,56.22-35.08,134.02-8,148c11.22,5.79,30.94,1.79,35,1c12.18-2.38,20.72-7.06,26-10
		c13.01-7.26,20.76-15.42,27-22c1.61-1.7,11.68-12.43,15-22c2.34-6.74,2-13,2-13c-0.05-0.85-0.1-1.68-0.27-2.72
		c-0.46-2.92-1.7-6.15-6.35-22.39c-1.04-3.64-1.93-8.07-2.38-13.89c-1.8-23,6.2-27.68,4-43.5c-2.91-20.89-25.77-51.5-49.5-49.5
		C2713.3,82.23,2702.01,106.5,2690.81,130.54z"/>
	<path class="st2" d="M2733.81,122.54c37.29,56.11,16.48,144.4-17.17,156c-6.72,2.31-20.65,3.81-35,1c-12.18-2.38-20.72-7.06-26-10
		c-13.01-7.26-20.76-15.42-27-22c-1.61-1.7-11.68-12.43-15-22c-2.34-6.74-2-13-2-13c0.05-0.85,0.1-1.68,0.27-2.72
		c0.46-2.92,1.7-6.15,6.35-22.39c1.04-3.64,1.93-8.07,2.38-13.89c1.8-23-6.2-27.68-4-43.5c2.65-18.99,22.85-45.76,49.5-49.5
		C2702.51,75.44,2728.8,115,2733.81,122.54z"/>
	<polygon points="2759.81,118.54 2757.81,114.54 2739.81,124.54 2739.81,128.54 2757.81,136.54 2759.81,132.54 2745.81,126.54 	"/>
	<polygon class="st1" points="2714.81,164.54 2729.2,143.68 2715.81,130.12 2701.61,144.49 	"/>
	<polygon points="2667.81,118.54 2669.81,114.54 2687.81,124.54 2687.81,128.54 2669.81,136.54 2667.81,132.54 2681.81,126.54 	"/>
</g>
<g id="penguin_x5F_sad8_x28_0_x29_">
	<path class="st0" d="M3152.66,137.87c7.19,1.51,10.77,8.14,16.7,19.54c3.53,6.8,5.47,12.81,9.35,24.83c0,0,2.54,7.87,3.44,19.31
		c0.45,5.76,0.17,8.54-1.39,9.83c-0.65,0.54-2.21,1.39-8.77-1.46c-3.01-1.31-7.28-3.49-12.02-7.13
		c-11.46-9.46-17.12-20.01-19.87-26.34c-4.93-11.38-4.79-19.14-4.11-23.99c0.51-3.65,1.28-8.63,5.03-11.98
		C3145.61,136.38,3151.6,137.65,3152.66,137.87z"/>
	<path class="st0" d="M2967.34,137.87c-7.19,1.51-10.77,8.14-16.7,19.54c-3.53,6.8-5.47,12.81-9.35,24.83c0,0-2.54,7.87-3.44,19.31
		c-0.45,5.76-0.17,8.54,1.39,9.83c0.65,0.54,2.21,1.39,8.77-1.46c3.01-1.31,7.28-3.49,12.02-7.13
		c11.46-9.46,17.12-20.01,19.87-26.34c4.93-11.38,4.79-19.14,4.11-23.99c-0.51-3.65-1.28-8.63-5.03-11.98
		C2974.39,136.38,2968.4,137.65,2967.34,137.87z"/>
	<g>
		
			<ellipse transform="matrix(0.7835 -0.6214 0.6214 0.7835 503.1544 1990.2821)" class="st1" cx="3107.77" cy="273.08" rx="16.41" ry="19.49"/>
		
			<ellipse transform="matrix(0.2852 -0.9585 0.9585 0.2852 1979.0065 3182.8059)" class="st1" cx="3123.38" cy="264.6" rx="8.47" ry="24.57"/>
		
			<ellipse transform="matrix(0.6744 -0.7384 0.7384 0.6744 804.9922 2370.9077)" class="st1" cx="3090.68" cy="272.74" rx="22.02" ry="9.45"/>
	</g>
	<g>
		
			<ellipse transform="matrix(0.6214 -0.7835 0.7835 0.6214 926.2003 2462.8313)" class="st1" cx="3011.44" cy="273.06" rx="19.49" ry="16.41"/>
		
			<ellipse transform="matrix(0.9585 -0.2852 0.2852 0.9585 48.9337 865.4402)" class="st1" cx="2996.05" cy="264.7" rx="24.57" ry="8.47"/>
		
			<ellipse transform="matrix(0.7384 -0.6744 0.6744 0.7384 608.3492 2113.8938)" class="st1" cx="3028.7" cy="272.87" rx="9.45" ry="22.02"/>
	</g>
	<g>
		<ellipse class="st0" cx="3060.69" cy="156.54" rx="103.5" ry="124"/>
	</g>
	<path class="st2" d="M3076.19,130.04c29.57,57.38,29.26,135.35,1,148.5c-11.33,5.27-30.8,1.82-35,1c-12.18-2.38-20.72-7.06-26-10
		c-13.01-7.26-20.76-15.42-27-22c-1.61-1.7-11.68-12.43-15-22c-2.34-6.74-2-13-2-13c0.05-0.85,0.1-1.68,0.27-2.72
		c0.46-2.92,1.7-6.15,6.35-22.39c1.04-3.64,1.93-8.07,2.38-13.89c1.8-23-6.2-27.68-4-43.5c3.29-23.63,26.26-49.93,49.5-49.5
		C3050.95,80.99,3065.68,109.65,3076.19,130.04z"/>
	<path class="st2" d="M3044.36,130.04c-29.57,57.38-29.26,135.35-1,148.5c11.33,5.27,30.8,1.82,35,1c12.18-2.38,20.72-7.06,26-10
		c13.01-7.26,20.76-15.42,27-22c1.61-1.7,11.68-12.43,15-22c2.34-6.74,2-13,2-13c-0.05-0.85-0.1-1.68-0.27-2.72
		c-0.46-2.92-1.7-6.15-6.35-22.39c-1.04-3.64-1.93-8.07-2.38-13.89c-1.8-23,6.2-27.68,4-43.5c-3.29-23.63-26.26-49.93-49.5-49.5
		C3069.6,80.99,3054.87,109.65,3044.36,130.04z"/>
	<circle cx="3019.69" cy="126.04" r="9.5"/>
	<circle cx="3098.69" cy="126.04" r="9.5"/>
	<polygon class="st1" points="3061.19,164.54 3046.8,143.68 3060.19,130.12 3074.39,144.49 	"/>
</g>
</svg>
