<?xml version="1.0" encoding="utf-8"?>
<!-- Generator: Adobe Illustrator 23.0.1, SVG Export Plug-In . SVG Version: 6.00 Build 0)  -->
<svg version="1.1" id="Layer_1" xmlns="http://www.w3.org/2000/svg" xmlns:xlink="http://www.w3.org/1999/xlink" x="0px" y="0px"
	 viewBox="0 0 3240 324" style="enable-background:new 0 0 3240 324;" xml:space="preserve">
<style type="text/css">
	.st0{fill:#1A1A1A;}
	.st1{fill:#FBB03B;}
	.st2{fill:#FFFFFF;}
	.st3{fill:#FB603B;}
</style>
<g id="penguin_x5F_happy0_x28_0_x29_">
	<path class="st0" d="M272.66,136.37c7.19,1.51,10.77,8.14,16.7,19.54c3.53,6.8,5.47,12.81,9.35,24.83c0,0,2.54,7.87,3.44,19.31
		c0.45,5.76,0.17,8.54-1.39,9.83c-0.65,0.54-2.21,1.39-8.77-1.46c-3.01-1.31-7.28-3.49-12.02-7.13
		c-11.46-9.46-17.12-20.01-19.87-26.34c-4.93-11.38-4.79-19.14-4.11-23.99c0.51-3.65,1.28-8.63,5.03-11.98
		C265.61,134.88,271.6,136.15,272.66,136.37z"/>
	<path class="st0" d="M87.34,136.37c-7.19,1.51-10.77,8.14-16.7,19.54c-3.53,6.8-5.47,12.81-9.35,24.83c0,0-2.54,7.87-3.44,19.31
		c-0.45,5.76-0.17,8.54,1.39,9.83c0.65,0.54,2.21,1.39,8.77-1.46c3.01-1.31,7.28-3.49,12.02-7.13
		c11.46-9.46,17.12-20.01,19.87-26.34c4.93-11.38,4.79-19.14,4.11-23.99c-0.51-3.65-1.28-8.63-5.03-11.98
		C94.39,134.88,88.4,136.15,87.34,136.37z"/>
	<g>
		
			<ellipse transform="matrix(0.7835 -0.6214 0.6214 0.7835 -119.4593 200.3168)" class="st1" cx="227.74" cy="271.59" rx="16.41" ry="19.49"/>
		
			<ellipse transform="matrix(0.2852 -0.9585 0.9585 0.2852 -78.4004 421.3771)" class="st1" cx="243.31" cy="263.25" rx="8.47" ry="24.57"/>
		
			<ellipse transform="matrix(0.6744 -0.7384 0.7384 0.6744 -131.7949 243.8937)" class="st1" cx="210.63" cy="271.38" rx="22.02" ry="9.45"/>
	</g>
	<g>
		
			<ellipse transform="matrix(0.6214 -0.7835 0.7835 0.6214 -163.0298 205.7997)" class="st1" cx="131.43" cy="271.59" rx="19.49" ry="16.41"/>
		
			<ellipse transform="matrix(0.9585 -0.2852 0.2852 0.9585 -70.271 43.9862)" class="st1" cx="115.9" cy="263.28" rx="24.57" ry="8.47"/>
		
			<ellipse transform="matrix(0.7384 -0.6744 0.6744 0.7384 -144.1659 171.1876)" class="st1" cx="148.56" cy="271.4" rx="9.45" ry="22.02"/>
	</g>
	<g>
		<ellipse class="st0" cx="180.69" cy="155.04" rx="103.5" ry="124"/>
	</g>
	<path class="st2" d="M196.19,128.54c29.57,57.38,29.26,135.35,1,148.5c-11.33,5.27-30.8,1.82-35,1c-12.18-2.38-20.72-7.06-26-10
		c-13.01-7.26-20.76-15.42-27-22c-1.61-1.7-11.68-12.43-15-22c-2.34-6.74-2-13-2-13c0.05-0.85,0.1-1.68,0.27-2.72
		c0.46-2.92,1.7-6.15,6.35-22.39c1.04-3.64,1.93-8.07,2.38-13.89c1.8-23-6.2-27.68-4-43.5c3.29-23.63,26.26-49.93,49.5-49.5
		C170.95,79.49,185.68,108.15,196.19,128.54z"/>
	<path class="st2" d="M164.36,128.54c-29.57,57.38-29.26,135.35-1,148.5c11.33,5.27,30.8,1.82,35,1c12.18-2.38,20.72-7.06,26-10
		c13.01-7.26,20.76-15.42,27-22c1.61-1.7,11.68-12.43,15-22c2.34-6.74,2-13,2-13c-0.05-0.85-0.1-1.68-0.27-2.72
		c-0.46-2.92-1.7-6.15-6.35-22.39c-1.04-3.64-1.93-8.07-2.38-13.89c-1.8-23,6.2-27.68,4-43.5c-3.29-23.63-26.26-49.93-49.5-49.5
		C189.6,79.49,174.87,108.15,164.36,128.54z"/>
	<circle cx="139.69" cy="124.54" r="9.5"/>
	<circle cx="218.69" cy="124.54" r="9.5"/>
	<polygon class="st1" points="181.19,163.04 166.8,142.18 180.19,128.62 194.39,142.99 	"/>
</g>
<g id="penguin_x5F_happy1_x28_1_x2F_3_x29_">
	<path class="st0" d="M623.17,142.94c6.53-3.36,13.5-0.46,25.28,4.65c7.03,3.05,12.32,6.5,22.91,13.39c0,0,6.93,4.51,14.84,12.83
		c3.98,4.19,5.51,6.52,5.12,8.51c-0.16,0.83-0.84,2.47-7.73,4.4c-3.17,0.88-7.85,1.88-13.83,2.04c-14.86-0.13-25.9-4.75-32.03-7.94
		c-11-5.72-15.78-11.84-18.31-16.04c-1.9-3.16-4.45-7.51-3.64-12.48C616.76,146.23,622.2,143.44,623.17,142.94z"/>
	<path class="st0" d="M456.83,147.94c-6.53-3.36-13.5-0.46-25.28,4.65c-7.03,3.05-12.32,6.5-22.91,13.39c0,0-6.93,4.51-14.84,12.83
		c-3.98,4.19-5.51,6.52-5.12,8.51c0.16,0.83,0.84,2.47,7.73,4.4c3.17,0.88,7.85,1.88,13.83,2.04c14.86-0.13,25.9-4.75,32.03-7.94
		c11-5.72,15.78-11.84,18.31-16.04c1.9-3.16,4.45-7.51,3.64-12.48C463.24,151.23,457.8,148.44,456.83,147.94z"/>
	<g>
		
			<ellipse transform="matrix(0.7835 -0.6214 0.6214 0.7835 -43.4008 424.6148)" class="st1" cx="587.65" cy="274.59" rx="16.41" ry="19.49"/>
		
			<ellipse transform="matrix(0.2852 -0.9585 0.9585 0.2852 176.0123 768.4795)" class="st1" cx="603.22" cy="266.23" rx="8.47" ry="24.57"/>
		
			<ellipse transform="matrix(0.6744 -0.7384 0.7384 0.6744 -16.8118 510.62)" class="st1" cx="570.55" cy="274.37" rx="22.02" ry="9.45"/>
	</g>
	<g>
		
			<ellipse transform="matrix(0.6214 -0.7835 0.7835 0.6214 -29.113 488.9252)" class="st1" cx="491.34" cy="274.59" rx="19.49" ry="16.41"/>
		
			<ellipse transform="matrix(0.9585 -0.2852 0.2852 0.9585 -56.1752 146.759)" class="st1" cx="475.83" cy="266.26" rx="24.57" ry="8.47"/>
		
			<ellipse transform="matrix(0.7384 -0.6744 0.6744 0.7384 -52.0217 414.6998)" class="st1" cx="508.48" cy="274.4" rx="9.45" ry="22.02"/>
	</g>
	<g>
		<ellipse class="st0" cx="540.6" cy="158.04" rx="103.5" ry="124"/>
	</g>
	<path class="st2" d="M556.1,131.54c29.57,57.38,29.26,135.35,1,148.5c-11.33,5.27-30.8,1.82-35,1c-12.18-2.38-20.72-7.06-26-10
		c-13.01-7.26-20.76-15.42-27-22c-1.61-1.7-11.68-12.43-15-22c-2.34-6.74-2-13-2-13c0.05-0.85,0.1-1.68,0.27-2.72
		c0.46-2.92,1.7-6.15,6.35-22.39c1.04-3.64,1.93-8.07,2.38-13.89c1.8-23-6.2-27.68-4-43.5c3.29-23.63,26.26-49.93,49.5-49.5
		C530.86,82.49,545.58,111.15,556.1,131.54z"/>
	<path class="st2" d="M524.27,131.54c-29.57,57.38-29.26,135.35-1,148.5c11.33,5.27,30.8,1.82,35,1c12.18-2.38,20.72-7.06,26-10
		c13.01-7.26,20.76-15.42,27-22c1.61-1.7,11.68-12.43,15-22c2.34-6.74,2-13,2-13c-0.05-0.85-0.1-1.68-0.27-2.72
		c-0.46-2.92-1.7-6.15-6.35-22.39c-1.04-3.64-1.93-8.07-2.38-13.89c-1.8-23,6.2-27.68,4-43.5c-3.29-23.63-26.26-49.93-49.5-49.5
		C549.51,82.49,534.78,111.15,524.27,131.54z"/>
	<path d="M587.99,127.54c-0.8,3.56-5.87,5.36-9.42,5.5c-4.09,0.16-9.63-1.75-10.47-5.5c-0.93-4.19,4.29-9.49,9.94-9.49
		C583.71,118.04,588.92,123.36,587.99,127.54z"/>
	<path d="M509.99,127.54c-0.8,3.56-5.87,5.36-9.42,5.5c-4.09,0.16-9.63-1.75-10.47-5.5c-0.93-4.19,4.29-9.49,9.94-9.49
		C505.71,118.04,510.92,123.36,509.99,127.54z"/>
	<polygon class="st1" points="541.1,166.04 526.71,145.18 540.1,131.62 554.3,145.99 	"/>
	<polygon class="st3" points="540.1,150.04 526.71,145.18 540.1,144.04 554.3,145.99 	"/>
</g>
<g id="penguin_x5F_happy2_x28_2_x2F_3_x29_">
	<path class="st0" d="M976.11,148.98c1.88-7.1,8.69-10.33,20.39-15.66c6.97-3.17,13.08-4.8,25.28-8.04c0,0,7.99-2.13,19.46-2.43
		c5.77-0.15,8.53,0.28,9.74,1.9c0.5,0.68,1.28,2.28-1.91,8.68c-1.47,2.94-3.86,7.09-7.74,11.63
		c-10.05,10.95-20.87,16.05-27.34,18.47c-11.62,4.33-19.37,3.79-24.18,2.85c-3.62-0.7-8.55-1.72-11.71-5.65
		C974.25,155.95,975.83,150.03,976.11,148.98z"/>
	<path class="st0" d="M823.89,147.98c-1.88-7.1-8.69-10.33-20.39-15.66c-6.97-3.17-13.08-4.8-25.28-8.04c0,0-7.99-2.13-19.46-2.43
		c-5.77-0.15-8.53,0.28-9.74,1.9c-0.5,0.68-1.28,2.28,1.91,8.68c1.47,2.94,3.86,7.09,7.74,11.63
		c10.05,10.95,20.87,16.05,27.34,18.47c11.62,4.33,19.37,3.79,24.18,2.85c3.62-0.7,8.55-1.72,11.71-5.65
		C825.75,154.95,824.17,149.03,823.89,147.98z"/>
	<g>
		
			<ellipse transform="matrix(0.7835 -0.6214 0.6214 0.7835 36.3047 647.4005)" class="st1" cx="947.22" cy="271.6" rx="16.41" ry="19.49"/>
		
			<ellipse transform="matrix(0.2852 -0.9585 0.9585 0.2852 435.9342 1110.9658)" class="st1" cx="962.8" cy="263.22" rx="8.47" ry="24.57"/>
		
			<ellipse transform="matrix(0.6744 -0.7384 0.7384 0.6744 102.5047 775.1352)" class="st1" cx="930.12" cy="271.35" rx="22.02" ry="9.45"/>
	</g>
	<g>
		
			<ellipse transform="matrix(0.6214 -0.7835 0.7835 0.6214 109.3665 769.5036)" class="st1" cx="850.9" cy="271.59" rx="19.49" ry="16.41"/>
		
			<ellipse transform="matrix(0.9585 -0.2852 0.2852 0.9585 -40.3848 249.1868)" class="st1" cx="835.42" cy="263.26" rx="24.57" ry="8.47"/>
		
			<ellipse transform="matrix(0.7384 -0.6744 0.6744 0.7384 44.0777 656.4148)" class="st1" cx="868.07" cy="271.4" rx="9.45" ry="22.02"/>
	</g>
	<g>
		<ellipse class="st0" cx="900.16" cy="155.04" rx="103.5" ry="124"/>
	</g>
	<path class="st2" d="M915.66,128.54c29.57,57.38,29.26,135.35,1,148.5c-11.33,5.27-30.8,1.82-35,1c-12.18-2.38-20.72-7.06-26-10
		c-13.01-7.26-20.76-15.42-27-22c-1.61-1.7-11.68-12.43-15-22c-2.34-6.74-2-13-2-13c0.05-0.85,0.1-1.68,0.27-2.72
		c0.46-2.92,1.7-6.15,6.35-22.39c1.04-3.64,1.93-8.07,2.38-13.89c1.8-23-6.2-27.68-4-43.5c3.29-23.63,26.26-49.93,49.5-49.5
		C890.42,79.49,905.15,108.15,915.66,128.54z"/>
	<path class="st2" d="M883.84,128.54c-29.57,57.38-29.26,135.35-1,148.5c11.33,5.27,30.8,1.82,35,1c12.18-2.38,20.72-7.06,26-10
		c13.01-7.26,20.76-15.42,27-22c1.61-1.7,11.68-12.43,15-22c2.34-6.74,2-13,2-13c-0.05-0.85-0.1-1.68-0.27-2.72
		c-0.46-2.92-1.7-6.15-6.35-22.39c-1.04-3.64-1.93-8.07-2.38-13.89c-1.8-23,6.2-27.68,4-43.5c-3.29-23.63-26.26-49.93-49.5-49.5
		C909.07,79.49,894.35,108.15,883.84,128.54z"/>
	<path d="M949.47,125.6c-0.79,1.24-3.78-0.54-11.33-0.55c-7.62-0.01-10.65,1.8-11.45,0.55c-1.29-2.02,4.14-10.56,11.39-10.56
		C945.33,115.04,950.76,123.58,949.47,125.6z"/>
	<path d="M870.47,125.6c-0.79,1.24-3.78-0.54-11.33-0.55c-7.62-0.01-10.65,1.8-11.45,0.55c-1.29-2.02,4.14-10.56,11.39-10.56
		C866.33,115.04,871.76,123.58,870.47,125.6z"/>
	<polygon class="st1" points="900.66,163.04 886.27,142.18 899.66,128.62 913.86,142.99 	"/>
	<polygon class="st3" points="900.66,152.04 886.27,142.18 899.66,138.04 913.86,142.99 	"/>
</g>
<g id="penguin_x5F_happy3_x28_3_x2F_3_x29_">
	<path class="st0" d="M1336.71,159.72c-3.21-6.61-0.15-13.5,5.24-25.16c3.21-6.95,6.78-12.16,13.92-22.59c0,0,4.67-6.82,13.17-14.54
		c4.28-3.88,6.65-5.36,8.62-4.92c0.82,0.18,2.45,0.89,4.21,7.83c0.81,3.19,1.7,7.89,1.72,13.87c-0.48,14.85-5.35,25.78-8.68,31.83
		c-5.98,10.86-12.21,15.5-16.47,17.93c-3.2,1.83-7.61,4.27-12.56,3.35C1339.85,166.21,1337.19,160.7,1336.71,159.72z"/>
	<path class="st0" d="M1183.29,159.72c3.21-6.61,0.15-13.5-5.24-25.16c-3.21-6.95-6.78-12.16-13.92-22.59c0,0-4.67-6.82-13.17-14.54
		c-4.28-3.88-6.65-5.36-8.62-4.92c-0.82,0.18-2.45,0.89-4.21,7.83c-0.81,3.19-1.7,7.89-1.72,13.87c0.48,14.85,5.35,25.78,8.68,31.83
		c5.98,10.86,12.21,15.5,16.47,17.93c3.2,1.83,7.61,4.27,12.56,3.35C1180.15,166.21,1182.81,160.7,1183.29,159.72z"/>
	<g>
		
			<ellipse transform="matrix(0.7835 -0.6214 0.6214 0.7835 114.3214 871.2896)" class="st1" cx="1307.52" cy="271.59" rx="16.41" ry="19.49"/>
		
			<ellipse transform="matrix(0.2852 -0.9585 0.9585 0.2852 693.4919 1456.2886)" class="st1" cx="1323.1" cy="263.2" rx="8.47" ry="24.57"/>
		
			<ellipse transform="matrix(0.6744 -0.7384 0.7384 0.6744 219.8339 1041.1716)" class="st1" cx="1290.42" cy="271.33" rx="22.02" ry="9.45"/>
	</g>
	<g>
		
			<ellipse transform="matrix(0.6214 -0.7835 0.7835 0.6214 245.7825 1051.7991)" class="st1" cx="1211.21" cy="271.58" rx="19.49" ry="16.41"/>
		
			<ellipse transform="matrix(0.9585 -0.2852 0.2852 0.9585 -25.4184 351.9436)" class="st1" cx="1195.73" cy="263.25" rx="24.57" ry="8.47"/>
		
			<ellipse transform="matrix(0.7384 -0.6744 0.6744 0.7384 138.3478 899.4056)" class="st1" cx="1228.39" cy="271.39" rx="9.45" ry="22.02"/>
	</g>
	<g>
		<ellipse class="st0" cx="1260.46" cy="155.04" rx="103.5" ry="124"/>
	</g>
	<path class="st2" d="M1275.96,128.54c29.57,57.38,29.26,135.35,1,148.5c-11.33,5.27-30.8,1.82-35,1c-12.18-2.38-20.72-7.06-26-10
		c-13.01-7.26-20.76-15.42-27-22c-1.61-1.7-11.68-12.43-15-22c-2.34-6.74-2-13-2-13c0.05-0.85,0.1-1.68,0.27-2.72
		c0.46-2.92,1.7-6.15,6.35-22.39c1.04-3.64,1.93-8.07,2.38-13.89c1.8-23-6.2-27.68-4-43.5c3.29-23.63,26.26-49.93,49.5-49.5
		C1250.72,79.49,1265.45,108.15,1275.96,128.54z"/>
	<path class="st2" d="M1244.13,128.54c-29.57,57.38-29.26,135.35-1,148.5c11.33,5.27,30.8,1.82,35,1c12.18-2.38,20.72-7.06,26-10
		c13.01-7.26,20.76-15.42,27-22c1.61-1.7,11.68-12.43,15-22c2.34-6.74,2-13,2-13c-0.05-0.85-0.1-1.68-0.27-2.72
		c-0.46-2.92-1.7-6.15-6.35-22.39c-1.04-3.64-1.93-8.07-2.38-13.89c-1.8-23,6.2-27.68,4-43.5c-3.29-23.63-26.26-49.93-49.5-49.5
		C1269.37,79.49,1254.64,108.15,1244.13,128.54z"/>
	<polygon class="st1" points="1260.96,163.04 1246.57,142.18 1259.96,128.62 1274.16,142.99 	"/>
	<path d="M1310.88,127.01c-0.66,0.59-5.73-7.17-13.11-6.93c-6.95,0.23-11.25,7.39-11.8,6.93c-0.64-0.54,3.58-11.96,12.45-11.97
		C1307.27,115.03,1311.62,126.36,1310.88,127.01z"/>
	<path d="M1231.88,127.01c-0.66,0.59-5.73-7.17-13.11-6.93c-6.95,0.23-11.25,7.39-11.8,6.93c-0.64-0.54,3.58-11.96,12.45-11.97
		C1228.27,115.03,1232.62,126.36,1231.88,127.01z"/>
	<polygon class="st3" points="1260.96,157.04 1246.57,142.18 1259.96,134.04 1274.16,142.99 	"/>
</g>
<g id="penguin_x5F_happy4_x28_2_x2F_3_x29_">
	<path class="st0" d="M1696.11,148.98c1.88-7.1,8.69-10.33,20.39-15.66c6.97-3.17,13.08-4.8,25.28-8.04c0,0,7.99-2.13,19.46-2.43
		c5.77-0.15,8.53,0.28,9.74,1.9c0.5,0.68,1.28,2.28-1.91,8.68c-1.46,2.94-3.86,7.09-7.74,11.63
		c-10.05,10.95-20.87,16.05-27.34,18.47c-11.62,4.33-19.37,3.79-24.18,2.85c-3.62-0.7-8.55-1.72-11.71-5.65
		C1694.25,155.95,1695.83,150.03,1696.11,148.98z"/>
	<path class="st0" d="M1543.89,147.98c-1.88-7.1-8.69-10.33-20.39-15.66c-6.97-3.17-13.08-4.8-25.28-8.04c0,0-7.99-2.13-19.46-2.43
		c-5.77-0.15-8.53,0.28-9.74,1.9c-0.5,0.68-1.28,2.28,1.91,8.68c1.46,2.94,3.86,7.09,7.74,11.63
		c10.05,10.95,20.87,16.05,27.34,18.47c11.62,4.33,19.37,3.79,24.18,2.85c3.62-0.7,8.55-1.72,11.71-5.65
		C1545.75,154.95,1544.17,149.03,1543.89,147.98z"/>
	<g>
		
			<ellipse transform="matrix(0.7835 -0.6214 0.6214 0.7835 192.1938 1094.8121)" class="st1" cx="1667.23" cy="271.59" rx="16.41" ry="19.49"/>
		
			<ellipse transform="matrix(0.2852 -0.9585 0.9585 0.2852 950.6545 1801.0477)" class="st1" cx="1682.82" cy="263.17" rx="8.47" ry="24.57"/>
		
			<ellipse transform="matrix(0.6744 -0.7384 0.7384 0.6744 336.9715 1306.7661)" class="st1" cx="1650.12" cy="271.32" rx="22.02" ry="9.45"/>
	</g>
	<g>
		
			<ellipse transform="matrix(0.6214 -0.7835 0.7835 0.6214 381.9664 1333.6234)" class="st1" cx="1570.91" cy="271.58" rx="19.49" ry="16.41"/>
		
			<ellipse transform="matrix(0.9585 -0.2852 0.2852 0.9585 -10.4757 454.5318)" class="st1" cx="1555.45" cy="263.24" rx="24.57" ry="8.47"/>
		
			<ellipse transform="matrix(0.7384 -0.6744 0.6744 0.7384 232.4583 1141.9905)" class="st1" cx="1588.1" cy="271.39" rx="9.45" ry="22.02"/>
	</g>
	<g>
		<ellipse class="st0" cx="1620.16" cy="155.04" rx="103.5" ry="124"/>
	</g>
	<path class="st2" d="M1635.66,128.54c29.57,57.38,29.26,135.35,1,148.5c-11.33,5.27-30.8,1.82-35,1c-12.18-2.38-20.72-7.06-26-10
		c-13.01-7.26-20.76-15.42-27-22c-1.61-1.7-11.68-12.43-15-22c-2.34-6.74-2-13-2-13c0.05-0.85,0.1-1.68,0.27-2.72
		c0.46-2.92,1.7-6.15,6.35-22.39c1.04-3.64,1.93-8.07,2.38-13.89c1.8-23-6.2-27.68-4-43.5c3.29-23.63,26.26-49.93,49.5-49.5
		C1610.42,79.49,1625.15,108.15,1635.66,128.54z"/>
	<path class="st2" d="M1603.84,128.54c-29.57,57.38-29.26,135.35-1,148.5c11.33,5.27,30.8,1.82,35,1c12.18-2.38,20.72-7.06,26-10
		c13.01-7.26,20.76-15.42,27-22c1.61-1.7,11.68-12.43,15-22c2.34-6.74,2-13,2-13c-0.05-0.85-0.1-1.68-0.27-2.72
		c-0.46-2.92-1.7-6.15-6.35-22.39c-1.04-3.64-1.93-8.07-2.38-13.89c-1.8-23,6.2-27.68,4-43.5c-3.29-23.63-26.26-49.93-49.5-49.5
		C1629.07,79.49,1614.35,108.15,1603.84,128.54z"/>
	<path d="M1669.47,125.6c-0.79,1.24-3.78-0.54-11.33-0.55c-7.62-0.01-10.65,1.8-11.45,0.55c-1.29-2.02,4.14-10.56,11.39-10.56
		C1665.33,115.04,1670.76,123.58,1669.47,125.6z"/>
	<path d="M1590.47,125.6c-0.79,1.24-3.78-0.54-11.33-0.55c-7.62-0.01-10.65,1.8-11.45,0.55c-1.29-2.02,4.14-10.56,11.39-10.56
		C1586.33,115.04,1591.76,123.58,1590.47,125.6z"/>
	<polygon class="st1" points="1620.66,163.04 1606.27,142.18 1619.66,128.62 1633.86,142.99 	"/>
	<polygon class="st3" points="1620.66,152.04 1606.27,142.18 1619.66,138.04 1633.86,142.99 	"/>
</g>
<g id="penguin_x5F_happy5_x28_3_x2F_3_x29_">
	<path class="st0" d="M2056.71,159.72c-3.21-6.61-0.15-13.5,5.24-25.16c3.21-6.95,6.78-12.16,13.92-22.59c0,0,4.67-6.82,13.17-14.54
		c4.28-3.88,6.65-5.36,8.62-4.92c0.82,0.18,2.45,0.89,4.21,7.83c0.81,3.19,1.7,7.89,1.72,13.87c-0.48,14.85-5.35,25.78-8.68,31.83
		c-5.98,10.86-12.21,15.5-16.47,17.93c-3.2,1.83-7.61,4.27-12.56,3.35C2059.85,166.21,2057.19,160.7,2056.71,159.72z"/>
	<path class="st0" d="M1903.29,159.72c3.21-6.61,0.15-13.5-5.24-25.16c-3.21-6.95-6.78-12.16-13.92-22.59c0,0-4.67-6.82-13.17-14.54
		c-4.28-3.88-6.65-5.36-8.62-4.92c-0.82,0.18-2.45,0.89-4.21,7.83c-0.81,3.19-1.7,7.89-1.72,13.87c0.48,14.85,5.35,25.78,8.68,31.83
		c5.98,10.86,12.21,15.5,16.47,17.93c3.2,1.83,7.61,4.27,12.56,3.35C1900.15,166.21,1902.81,160.7,1903.29,159.72z"/>
	<g>
		
			<ellipse transform="matrix(0.7835 -0.6214 0.6214 0.7835 270.205 1318.6976)" class="st1" cx="2027.53" cy="271.59" rx="16.41" ry="19.49"/>
		<path class="st1" d="M2019.57,256.15c1.33-4.48,12.96-4.98,25.97-1.11c13.01,3.87,22.47,10.64,21.13,15.13
			c-1.33,4.48-12.96,4.98-25.97,1.11C2027.7,267.4,2018.24,260.63,2019.57,256.15z"/>
		
			<ellipse transform="matrix(0.6744 -0.7384 0.7384 0.6744 454.3084 1572.8052)" class="st1" cx="2010.43" cy="271.3" rx="22.02" ry="9.45"/>
	</g>
	<g>
		
			<ellipse transform="matrix(0.6214 -0.7835 0.7835 0.6214 518.3842 1615.9104)" class="st1" cx="1931.21" cy="271.57" rx="19.49" ry="16.41"/>
		
			<ellipse transform="matrix(0.9585 -0.2852 0.2852 0.9585 4.4894 557.2924)" class="st1" cx="1915.77" cy="263.23" rx="24.57" ry="8.47"/>
		
			<ellipse transform="matrix(0.7384 -0.6744 0.6744 0.7384 326.7284 1384.9813)" class="st1" cx="1948.42" cy="271.38" rx="9.45" ry="22.02"/>
	</g>
	<g>
		<ellipse class="st0" cx="1980.46" cy="155.04" rx="103.5" ry="124"/>
	</g>
	<path class="st2" d="M1995.96,128.54c29.57,57.38,29.26,135.35,1,148.5c-11.33,5.27-30.8,1.82-35,1c-12.18-2.38-20.72-7.06-26-10
		c-13.01-7.26-20.76-15.42-27-22c-1.61-1.7-11.68-12.43-15-22c-2.34-6.74-2-13-2-13c0.05-0.85,0.1-1.68,0.27-2.72
		c0.46-2.92,1.7-6.15,6.35-22.39c1.04-3.64,1.93-8.07,2.38-13.89c1.8-23-6.2-27.68-4-43.5c3.29-23.63,26.26-49.93,49.5-49.5
		C1970.72,79.49,1985.45,108.15,1995.96,128.54z"/>
	<path class="st2" d="M1964.13,128.54c-29.57,57.38-29.26,135.35-1,148.5c11.33,5.27,30.8,1.82,35,1c12.18-2.38,20.72-7.06,26-10
		c13.01-7.26,20.76-15.42,27-22c1.61-1.7,11.68-12.43,15-22c2.34-6.74,2-13,2-13c-0.05-0.85-0.1-1.68-0.27-2.72
		c-0.46-2.92-1.7-6.15-6.35-22.39c-1.04-3.64-1.93-8.07-2.38-13.89c-1.8-23,6.2-27.68,4-43.5c-3.29-23.63-26.26-49.93-49.5-49.5
		C1989.37,79.49,1974.64,108.15,1964.13,128.54z"/>
	<polygon class="st1" points="1980.96,163.04 1966.57,142.18 1979.96,128.62 1994.16,142.99 	"/>
	<path d="M2030.88,127.01c-0.66,0.59-5.73-7.17-13.11-6.93c-6.95,0.23-11.25,7.39-11.8,6.93c-0.64-0.54,3.58-11.96,12.45-11.97
		C2027.27,115.03,2031.62,126.36,2030.88,127.01z"/>
	<path d="M1951.88,127.01c-0.66,0.59-5.73-7.17-13.11-6.93c-6.95,0.23-11.25,7.39-11.8,6.93c-0.64-0.54,3.58-11.96,12.45-11.97
		C1948.27,115.03,1952.62,126.36,1951.88,127.01z"/>
	<polygon class="st3" points="1980.96,157.04 1966.57,142.18 1979.96,134.04 1994.16,142.99 	"/>
</g>
<g id="penguin_x5F_happy6_x28_2_x2F_3_x29_">
	<path class="st0" d="M2416.11,148.98c1.88-7.1,8.69-10.33,20.39-15.66c6.97-3.17,13.08-4.8,25.28-8.04c0,0,7.99-2.13,19.46-2.43
		c5.77-0.15,8.53,0.28,9.74,1.9c0.5,0.68,1.28,2.28-1.91,8.68c-1.47,2.94-3.86,7.09-7.74,11.63
		c-10.05,10.95-20.87,16.05-27.34,18.47c-11.62,4.33-19.37,3.79-24.18,2.85c-3.62-0.7-8.55-1.72-11.71-5.65
		C2414.25,155.95,2415.83,150.03,2416.11,148.98z"/>
	<path class="st0" d="M2263.89,147.98c-1.88-7.1-8.69-10.33-20.39-15.66c-6.97-3.17-13.08-4.8-25.28-8.04c0,0-7.99-2.13-19.46-2.43
		c-5.77-0.15-8.53,0.28-9.74,1.9c-0.5,0.68-1.28,2.28,1.91,8.68c1.46,2.94,3.86,7.09,7.74,11.63
		c10.05,10.95,20.87,16.05,27.34,18.47c11.62,4.33,19.37,3.79,24.18,2.85c3.62-0.7,8.55-1.72,11.71-5.65
		C2265.75,154.95,2264.17,149.03,2263.89,147.98z"/>
	<g>
		
			<ellipse transform="matrix(0.7835 -0.6214 0.6214 0.7835 348.0773 1542.2202)" class="st1" cx="2387.23" cy="271.59" rx="16.41" ry="19.49"/>
		
			<ellipse transform="matrix(0.2852 -0.9585 0.9585 0.2852 1465.3638 2491.1338)" class="st1" cx="2402.83" cy="263.13" rx="8.47" ry="24.57"/>
		
			<ellipse transform="matrix(0.6744 -0.7384 0.7384 0.6744 571.4462 1838.3999)" class="st1" cx="2370.14" cy="271.28" rx="22.02" ry="9.45"/>
	</g>
	<g>
		
			<ellipse transform="matrix(0.6214 -0.7835 0.7835 0.6214 654.5681 1897.7346)" class="st1" cx="2290.91" cy="271.57" rx="19.49" ry="16.41"/>
		
			<ellipse transform="matrix(0.9585 -0.2852 0.2852 0.9585 19.4321 659.8806)" class="st1" cx="2275.49" cy="263.22" rx="24.57" ry="8.47"/>
		
			<ellipse transform="matrix(0.7384 -0.6744 0.6744 0.7384 420.8389 1627.5662)" class="st1" cx="2308.14" cy="271.38" rx="9.45" ry="22.02"/>
	</g>
	<g>
		<ellipse class="st0" cx="2340.16" cy="155.04" rx="103.5" ry="124"/>
	</g>
	<path class="st2" d="M2355.66,128.54c29.57,57.38,29.26,135.35,1,148.5c-11.33,5.27-30.8,1.82-35,1c-12.18-2.38-20.72-7.06-26-10
		c-13.01-7.26-20.76-15.42-27-22c-1.61-1.7-11.68-12.43-15-22c-2.34-6.74-2-13-2-13c0.05-0.85,0.1-1.68,0.27-2.72
		c0.46-2.92,1.7-6.15,6.35-22.39c1.04-3.64,1.93-8.07,2.38-13.89c1.8-23-6.2-27.68-4-43.5c3.29-23.63,26.26-49.93,49.5-49.5
		C2330.42,79.49,2345.15,108.15,2355.66,128.54z"/>
	<path class="st2" d="M2323.84,128.54c-29.57,57.38-29.26,135.35-1,148.5c11.33,5.27,30.8,1.82,35,1c12.18-2.38,20.72-7.06,26-10
		c13.01-7.26,20.76-15.42,27-22c1.61-1.7,11.68-12.43,15-22c2.34-6.74,2-13,2-13c-0.05-0.85-0.1-1.68-0.27-2.72
		c-0.46-2.92-1.7-6.15-6.35-22.39c-1.04-3.64-1.93-8.07-2.38-13.89c-1.8-23,6.2-27.68,4-43.5c-3.29-23.63-26.26-49.93-49.5-49.5
		C2349.07,79.49,2334.35,108.15,2323.84,128.54z"/>
	<path d="M2389.47,125.6c-0.79,1.24-3.78-0.54-11.33-0.55c-7.62-0.01-10.65,1.8-11.45,0.55c-1.29-2.02,4.14-10.56,11.39-10.56
		C2385.33,115.04,2390.76,123.58,2389.47,125.6z"/>
	<path d="M2310.47,125.6c-0.79,1.24-3.78-0.54-11.33-0.55c-7.62-0.01-10.65,1.8-11.45,0.55c-1.29-2.02,4.14-10.56,11.39-10.56
		C2306.33,115.04,2311.76,123.58,2310.47,125.6z"/>
	<polygon class="st1" points="2340.66,163.04 2326.27,142.18 2339.66,128.62 2353.86,142.99 	"/>
	<polygon class="st3" points="2340.66,152.04 2326.27,142.18 2339.66,138.04 2353.86,142.99 	"/>
</g>
<g id="penguin_x5F_happy7_x28_1_x2F_3_x29_">
	<path class="st0" d="M2783.17,139.94c6.53-3.36,13.5-0.46,25.28,4.65c7.03,3.05,12.32,6.5,22.91,13.39c0,0,6.93,4.51,14.84,12.83
		c3.98,4.19,5.51,6.52,5.12,8.51c-0.16,0.83-0.84,2.47-7.73,4.4c-3.17,0.88-7.85,1.88-13.83,2.04c-14.86-0.13-25.9-4.75-32.03-7.94
		c-11-5.72-15.78-11.84-18.31-16.04c-1.9-3.16-4.45-7.51-3.64-12.48C2776.76,143.23,2782.2,140.44,2783.17,139.94z"/>
	<path class="st0" d="M2616.83,144.94c-6.53-3.36-13.5-0.46-25.28,4.65c-7.03,3.05-12.32,6.5-22.91,13.39c0,0-6.93,4.51-14.84,12.83
		c-3.98,4.19-5.51,6.52-5.12,8.51c0.16,0.83,0.84,2.47,7.73,4.4c3.17,0.88,7.85,1.88,13.83,2.04c14.86-0.13,25.9-4.75,32.03-7.94
		c11-5.72,15.78-11.84,18.31-16.04c1.9-3.16,4.45-7.51,3.64-12.48C2623.24,148.23,2617.8,145.44,2616.83,144.94z"/>
	<g>
		
			<ellipse transform="matrix(0.7835 -0.6214 0.6214 0.7835 426.1194 1766.1932)" class="st1" cx="2747.67" cy="271.59" rx="16.41" ry="19.49"/>
		
			<ellipse transform="matrix(0.2852 -0.9585 0.9585 0.2852 1723.019 2836.6042)" class="st1" cx="2763.28" cy="263.12" rx="8.47" ry="24.57"/>
		
			<ellipse transform="matrix(0.6744 -0.7384 0.7384 0.6744 688.8219 2104.5337)" class="st1" cx="2730.57" cy="271.27" rx="22.02" ry="9.45"/>
	</g>
	<g>
		
			<ellipse transform="matrix(0.6214 -0.7835 0.7835 0.6214 791.0412 2180.1321)" class="st1" cx="2651.35" cy="271.56" rx="19.49" ry="16.41"/>
		
			<ellipse transform="matrix(0.9585 -0.2852 0.2852 0.9585 34.4025 762.6782)" class="st1" cx="2635.94" cy="263.21" rx="24.57" ry="8.47"/>
		
			<ellipse transform="matrix(0.7384 -0.6744 0.6744 0.7384 515.1467 1870.652)" class="st1" cx="2668.6" cy="271.37" rx="9.45" ry="22.02"/>
	</g>
	<g>
		<ellipse class="st0" cx="2700.6" cy="155.04" rx="103.5" ry="124"/>
	</g>
	<path class="st2" d="M2716.1,128.54c29.57,57.38,29.26,135.35,1,148.5c-11.33,5.27-30.8,1.82-35,1c-12.18-2.38-20.72-7.06-26-10
		c-13.01-7.26-20.76-15.42-27-22c-1.61-1.7-11.68-12.43-15-22c-2.34-6.74-2-13-2-13c0.05-0.85,0.1-1.68,0.27-2.72
		c0.46-2.92,1.7-6.15,6.35-22.39c1.04-3.64,1.93-8.07,2.38-13.89c1.8-23-6.2-27.68-4-43.5c3.29-23.63,26.26-49.93,49.5-49.5
		C2690.86,79.49,2705.58,108.15,2716.1,128.54z"/>
	<path class="st2" d="M2684.27,128.54c-29.57,57.38-29.26,135.35-1,148.5c11.33,5.27,30.8,1.82,35,1c12.18-2.38,20.72-7.06,26-10
		c13.01-7.26,20.76-15.42,27-22c1.61-1.7,11.68-12.43,15-22c2.34-6.74,2-13,2-13c-0.05-0.85-0.1-1.68-0.27-2.72
		c-0.46-2.92-1.7-6.15-6.35-22.39c-1.04-3.64-1.93-8.07-2.38-13.89c-1.8-23,6.2-27.68,4-43.5c-3.29-23.63-26.26-49.93-49.5-49.5
		C2709.51,79.49,2694.78,108.15,2684.27,128.54z"/>
	<path d="M2747.99,124.54c-0.8,3.56-5.87,5.36-9.42,5.5c-4.09,0.16-9.63-1.75-10.47-5.5c-0.93-4.19,4.29-9.49,9.94-9.49
		C2743.71,115.04,2748.92,120.36,2747.99,124.54z"/>
	<path d="M2669.99,124.54c-0.8,3.56-5.87,5.36-9.42,5.5c-4.09,0.16-9.63-1.75-10.47-5.5c-0.93-4.19,4.29-9.49,9.94-9.49
		C2665.71,115.04,2670.92,120.36,2669.99,124.54z"/>
	<polygon class="st1" points="2701.1,163.04 2686.71,142.18 2700.1,128.62 2714.3,142.99 	"/>
	<polygon class="st3" points="2700.1,147.04 2686.71,142.18 2700.1,141.04 2714.3,142.99 	"/>
</g>
<g id="penguin_x5F_happy8_x28_0_x29_">
	<path class="st0" d="M3152.66,136.37c7.19,1.51,10.77,8.14,16.7,19.54c3.53,6.8,5.47,12.81,9.35,24.83c0,0,2.54,7.87,3.44,19.31
		c0.45,5.76,0.17,8.54-1.39,9.83c-0.65,0.54-2.21,1.39-8.77-1.46c-3.01-1.31-7.28-3.49-12.02-7.13
		c-11.46-9.46-17.12-20.01-19.87-26.34c-4.93-11.38-4.79-19.14-4.11-23.99c0.51-3.65,1.28-8.63,5.03-11.98
		C3145.61,134.88,3151.6,136.15,3152.66,136.37z"/>
	<path class="st0" d="M2967.34,136.37c-7.19,1.51-10.77,8.14-16.7,19.54c-3.53,6.8-5.47,12.81-9.35,24.83c0,0-2.54,7.87-3.44,19.31
		c-0.45,5.76-0.17,8.54,1.39,9.83c0.65,0.54,2.21,1.39,8.77-1.46c3.01-1.31,7.28-3.49,12.02-7.13
		c11.46-9.46,17.12-20.01,19.87-26.34c4.93-11.38,4.79-19.14,4.11-23.99c-0.51-3.65-1.28-8.63-5.03-11.98
		C2974.39,134.88,2968.4,136.15,2967.34,136.37z"/>
	<g>
		
			<ellipse transform="matrix(0.7835 -0.6214 0.6214 0.7835 504.0857 1989.9564)" class="st1" cx="3107.77" cy="271.58" rx="16.41" ry="19.49"/>
		
			<ellipse transform="matrix(0.2852 -0.9585 0.9585 0.2852 1980.4402 3181.7327)" class="st1" cx="3123.38" cy="263.1" rx="8.47" ry="24.57"/>
		
			<ellipse transform="matrix(0.6744 -0.7384 0.7384 0.6744 806.0983 2370.418)" class="st1" cx="3090.68" cy="271.24" rx="22.02" ry="9.45"/>
	</g>
	<g>
		
			<ellipse transform="matrix(0.6214 -0.7835 0.7835 0.6214 927.3736 2462.262)" class="st1" cx="3011.44" cy="271.56" rx="19.49" ry="16.41"/>
		
			<ellipse transform="matrix(0.9585 -0.2852 0.2852 0.9585 49.3614 865.3776)" class="st1" cx="2996.05" cy="263.2" rx="24.57" ry="8.47"/>
		
			<ellipse transform="matrix(0.7384 -0.6744 0.6744 0.7384 609.3597 2113.5)" class="st1" cx="3028.7" cy="271.37" rx="9.45" ry="22.02"/>
	</g>
	<g>
		<ellipse class="st0" cx="3060.69" cy="155.04" rx="103.5" ry="124"/>
	</g>
	<path class="st2" d="M3076.19,128.54c29.57,57.38,29.26,135.35,1,148.5c-11.33,5.27-30.8,1.82-35,1c-12.18-2.38-20.72-7.06-26-10
		c-13.01-7.26-20.76-15.42-27-22c-1.61-1.7-11.68-12.43-15-22c-2.34-6.74-2-13-2-13c0.05-0.85,0.1-1.68,0.27-2.72
		c0.46-2.92,1.7-6.15,6.35-22.39c1.04-3.64,1.93-8.07,2.38-13.89c1.8-23-6.2-27.68-4-43.5c3.29-23.63,26.26-49.93,49.5-49.5
		C3050.95,79.49,3065.68,108.15,3076.19,128.54z"/>
	<path class="st2" d="M3044.36,128.54c-29.57,57.38-29.26,135.35-1,148.5c11.33,5.27,30.8,1.82,35,1c12.18-2.38,20.72-7.06,26-10
		c13.01-7.26,20.76-15.42,27-22c1.61-1.7,11.68-12.43,15-22c2.34-6.74,2-13,2-13c-0.05-0.85-0.1-1.68-0.27-2.72
		c-0.46-2.92-1.7-6.15-6.35-22.39c-1.04-3.64-1.93-8.07-2.38-13.89c-1.8-23,6.2-27.68,4-43.5c-3.29-23.63-26.26-49.93-49.5-49.5
		C3069.6,79.49,3054.87,108.15,3044.36,128.54z"/>
	<circle cx="3019.69" cy="124.54" r="9.5"/>
	<circle cx="3098.69" cy="124.54" r="9.5"/>
	<polygon class="st1" points="3061.19,163.04 3046.8,142.18 3060.19,128.62 3074.39,142.99 	"/>
</g>
</svg>
