<?xml version="1.0" encoding="utf-8"?>
<!-- Generator: Adobe Illustrator 23.0.1, SVG Export Plug-In . SVG Version: 6.00 Build 0)  -->
<svg version="1.1" id="Layer_1" xmlns="http://www.w3.org/2000/svg" xmlns:xlink="http://www.w3.org/1999/xlink" x="0px" y="0px"
	 viewBox="0 0 3240 324" style="enable-background:new 0 0 3240 324;" xml:space="preserve">
<style type="text/css">
	.st0{fill:#FFFFFF;}
	.st1{fill:#F2F2F2;}
	.st2{fill:none;stroke:#F2F2F2;stroke-miterlimit:10;}
	.st3{opacity:0.3;fill:#FF7FAA;enable-background:new    ;}
	.st4{opacity:0.6;fill:#FF7FAA;enable-background:new    ;}
	.st5{opacity:0.9;fill:#FF7FAA;enable-background:new    ;}
</style>
<g id="polar_x5F_bear_x5F_happy0_x28_0_x29_">
	<g>
		<ellipse class="st0" cx="179.82" cy="159.75" rx="103.5" ry="124"/>
	</g>
	<ellipse class="st1" cx="178.82" cy="137.25" rx="25.5" ry="21.5"/>
	<circle cx="213.82" cy="106.25" r="9.5"/>
	<circle cx="143.82" cy="106.25" r="9.5"/>
	<path d="M187.32,134.75c-0.91,1-3.45,3.81-7.5,4c-4.6,0.22-7.67-3.1-8.5-4c-2.65-2.87-5.32-8.42-3-12c1.94-3,6.35-3,11-3
		s9.06,0,11,3C192.64,126.35,189.88,131.92,187.32,134.75z"/>
	
		<ellipse transform="matrix(0.7071 -0.7071 0.7071 0.7071 -13.3252 97.3243)" class="st0" cx="110.82" cy="64.75" rx="22" ry="21.5"/>
	
		<ellipse transform="matrix(0.7071 -0.7071 0.7071 0.7071 27.6789 196.3183)" class="st0" cx="250.82" cy="64.75" rx="21.5" ry="22"/>
	<g>
		
			<ellipse transform="matrix(0.5159 -0.8566 0.8566 0.5159 -95.1133 153.7255)" class="st0" cx="88.46" cy="161.02" rx="54.32" ry="22.21"/>
		<line class="st2" x1="61.05" y1="196.7" x2="58.49" y2="204.35"/>
		<line class="st2" x1="65.79" y1="200.51" x2="63.24" y2="208.16"/>
		<line class="st2" x1="72.19" y1="200.17" x2="69.63" y2="207.81"/>
	</g>
	<path class="st0" d="M159.82,269.73c0.03,1.45,0.05,9.14-5.4,14.31c-6.24,5.92-15.37,4.47-28.77,2.36
		c-13.66-2.16-23.67-3.76-27.48-11.62c-3.13-6.45-0.18-13.58,0.46-15.13c4.92-11.88,20.36-18.95,34.16-16.67
		C146.45,245.24,159.51,256.82,159.82,269.73z"/>
	<line class="st2" x1="139.24" y1="279.64" x2="137.77" y2="287.57"/>
	<line class="st2" x1="126.66" y1="277.56" x2="125.2" y2="285.49"/>
	<line class="st2" x1="113.02" y1="274.84" x2="111.55" y2="282.77"/>
	<path class="st0" d="M196.77,269.73c-0.03,1.45-0.05,9.14,5.4,14.31c6.24,5.92,15.37,4.47,28.77,2.36
		c13.66-2.16,23.67-3.76,27.48-11.62c3.13-6.45,0.18-13.58-0.46-15.13c-4.92-11.88-20.36-18.95-34.16-16.67
		C210.14,245.24,197.07,256.82,196.77,269.73z"/>
	<line class="st2" x1="217.35" y1="279.64" x2="218.81" y2="287.57"/>
	<line class="st2" x1="229.92" y1="277.56" x2="231.39" y2="285.49"/>
	<line class="st2" x1="243.57" y1="274.84" x2="245.03" y2="282.77"/>
	
		<ellipse transform="matrix(0.8561 -0.5169 0.5169 0.8561 -44.1522 163.5136)" class="st0" cx="271.51" cy="161.03" rx="22.21" ry="54.32"/>
	<line class="st2" x1="294.22" y1="200.49" x2="296.78" y2="208.13"/>
	<line class="st2" x1="287.82" y1="200.15" x2="290.39" y2="207.79"/>
	<g>
		
			<ellipse transform="matrix(0.8566 -0.5159 0.5159 0.8566 -44.1599 163.1294)" class="st0" cx="271.45" cy="161.02" rx="22.21" ry="54.32"/>
		<line class="st2" x1="298.91" y1="196.7" x2="301.47" y2="204.35"/>
		<line class="st2" x1="294.17" y1="200.51" x2="296.73" y2="208.16"/>
		<line class="st2" x1="287.78" y1="200.17" x2="290.33" y2="207.81"/>
	</g>
</g>
<g id="polar_x5F_bear_x5F_happy1_x28_1_x2F_3_x29_">
	<g>
		<ellipse class="st0" cx="539.35" cy="159.75" rx="103.5" ry="124"/>
	</g>
	<ellipse class="st1" cx="538.35" cy="137.25" rx="25.5" ry="21.5"/>
	<path d="M546.85,134.75c-0.91,1-3.45,3.81-7.5,4c-4.6,0.22-7.67-3.1-8.5-4c-2.65-2.87-5.32-8.42-3-12c1.94-3,6.35-3,11-3
		s9.06,0,11,3C552.17,126.35,549.41,131.92,546.85,134.75z"/>
	
		<ellipse transform="matrix(0.7071 -0.7071 0.7071 0.7071 91.9764 351.5489)" class="st0" cx="470.35" cy="64.75" rx="22" ry="21.5"/>
	
		<ellipse transform="matrix(0.7071 -0.7071 0.7071 0.7071 132.9734 450.5398)" class="st0" cx="610.34" cy="64.76" rx="21.5" ry="22"/>
	<path class="st0" d="M519.34,269.73c0.03,1.45,0.05,9.14-5.4,14.31c-6.24,5.92-15.37,4.47-28.77,2.36
		c-13.66-2.16-23.67-3.76-27.48-11.62c-3.13-6.45-0.18-13.58,0.46-15.13c4.92-11.88,20.36-18.95,34.16-16.67
		C505.97,245.24,519.04,256.82,519.34,269.73z"/>
	<line class="st2" x1="498.77" y1="279.64" x2="497.3" y2="287.57"/>
	<line class="st2" x1="486.19" y1="277.56" x2="484.72" y2="285.49"/>
	<line class="st2" x1="472.55" y1="274.84" x2="471.08" y2="282.77"/>
	<path class="st0" d="M556.3,269.73c-0.03,1.45-0.05,9.14,5.4,14.31c6.24,5.92,15.37,4.47,28.77,2.36
		c13.66-2.16,23.67-3.76,27.48-11.62c3.13-6.45,0.18-13.58-0.46-15.13c-4.92-11.88-20.36-18.95-34.16-16.67
		C569.67,245.24,556.6,256.82,556.3,269.73z"/>
	<line class="st2" x1="576.87" y1="279.64" x2="578.34" y2="287.57"/>
	<line class="st2" x1="589.45" y1="277.56" x2="590.92" y2="285.49"/>
	<line class="st2" x1="603.09" y1="274.84" x2="604.56" y2="282.77"/>
	<g>
		
			<ellipse transform="matrix(0.3919 -0.92 0.92 0.3919 264.2979 681.9131)" class="st0" cx="647.99" cy="141.02" rx="22.21" ry="54.32"/>
		<line class="st2" x1="691.15" y1="153.87" x2="697.7" y2="158.57"/>
		<line class="st2" x1="689.53" y1="159.73" x2="696.08" y2="164.43"/>
		<line class="st2" x1="684.15" y1="163.2" x2="690.7" y2="167.9"/>
	</g>
	<g>
		
			<ellipse transform="matrix(0.92 -0.3919 0.3919 0.92 -21.104 180.6659)" class="st0" cx="432.01" cy="142.03" rx="54.32" ry="22.21"/>
		<line class="st2" x1="388.87" y1="154.87" x2="382.32" y2="159.57"/>
		<line class="st2" x1="390.49" y1="160.73" x2="383.94" y2="165.43"/>
		<line class="st2" x1="395.87" y1="164.2" x2="389.32" y2="168.9"/>
	</g>
	<path d="M583.73,106.25c-0.8,3.56-5.87,5.36-9.42,5.5c-4.09,0.16-9.63-1.75-10.47-5.5c-0.93-4.19,4.29-9.49,9.94-9.49
		C579.45,96.75,584.67,102.07,583.73,106.25z"/>
	<path d="M513.74,106.25c-0.8,3.56-5.87,5.36-9.42,5.5c-4.09,0.16-9.63-1.75-10.47-5.5c-0.93-4.19,4.29-9.49,9.94-9.49
		C509.45,96.75,514.67,102.07,513.74,106.25z"/>
	<ellipse class="st3" cx="587.35" cy="123.75" rx="10.5" ry="8"/>
	<ellipse class="st3" cx="487.35" cy="123.75" rx="10.5" ry="8"/>
</g>
<g id="polar_x5F_bear_x5F_happy2_x28_2_x2F_3_x29_">
	<g>
		<ellipse class="st0" cx="901.34" cy="159.75" rx="103.5" ry="124"/>
	</g>
	<ellipse class="st1" cx="900.34" cy="137.25" rx="25.5" ry="21.5"/>
	<path d="M908.84,134.75c-0.91,1-3.45,3.81-7.5,4c-4.6,0.22-7.67-3.1-8.5-4c-2.65-2.87-5.32-8.42-3-12c1.94-3,6.35-3,11-3
		s9.06,0,11,3C914.16,126.35,911.4,131.92,908.84,134.75z"/>
	
		<ellipse transform="matrix(0.7071 -0.7071 0.7071 0.7071 197.9938 607.5062)" class="st0" cx="832.32" cy="64.75" rx="22" ry="21.5"/>
	
		<ellipse transform="matrix(0.7071 -0.7071 0.7071 0.7071 238.9979 706.5001)" class="st0" cx="972.32" cy="64.75" rx="21.5" ry="22"/>
	<path class="st0" d="M881.33,269.73c0.03,1.45,0.05,9.14-5.4,14.31c-6.24,5.92-15.37,4.47-28.77,2.36
		c-13.66-2.16-23.67-3.76-27.48-11.62c-3.13-6.45-0.18-13.58,0.46-15.13c4.92-11.88,20.36-18.95,34.16-16.67
		C867.96,245.24,881.03,256.82,881.33,269.73z"/>
	<line class="st2" x1="860.76" y1="279.64" x2="859.29" y2="287.57"/>
	<line class="st2" x1="848.18" y1="277.56" x2="846.71" y2="285.49"/>
	<line class="st2" x1="834.54" y1="274.84" x2="833.07" y2="282.77"/>
	<path class="st0" d="M918.29,269.73c-0.03,1.45-0.05,9.14,5.4,14.31c6.24,5.92,15.37,4.47,28.77,2.36
		c13.66-2.16,23.67-3.76,27.48-11.62c3.13-6.45,0.18-13.58-0.46-15.13c-4.92-11.88-20.36-18.95-34.16-16.67
		C931.66,245.24,918.59,256.82,918.29,269.73z"/>
	<line class="st2" x1="938.86" y1="279.64" x2="940.33" y2="287.57"/>
	<line class="st2" x1="951.44" y1="277.56" x2="952.91" y2="285.49"/>
	<line class="st2" x1="965.08" y1="274.84" x2="966.55" y2="282.77"/>
	<g>
		
			<ellipse transform="matrix(0.2218 -0.9751 0.9751 0.2218 499.1231 859.435)" class="st0" cx="788" cy="117.01" rx="22.21" ry="54.32"/>
		<line class="st2" x1="745.53" y1="102.14" x2="737.46" y2="102.11"/>
		<line class="st2" x1="743.39" y1="107.84" x2="735.33" y2="107.81"/>
		<line class="st2" x1="745.73" y1="113.8" x2="737.66" y2="113.77"/>
	</g>
	<g>
		
			<ellipse transform="matrix(0.9751 -0.2218 0.2218 0.9751 -0.5241 227.3512)" class="st0" cx="1012.01" cy="116.01" rx="54.32" ry="22.21"/>
		<line class="st2" x1="1054.47" y1="101.14" x2="1062.54" y2="101.11"/>
		<line class="st2" x1="1056.61" y1="106.84" x2="1064.67" y2="106.81"/>
		<line class="st2" x1="1054.27" y1="112.8" x2="1062.34" y2="112.77"/>
	</g>
	<path d="M947.65,107.31c-0.79,1.24-3.78-0.54-11.33-0.55c-7.62-0.01-10.65,1.8-11.45,0.55c-1.29-2.02,4.14-10.56,11.39-10.56
		C943.5,96.75,948.93,105.29,947.65,107.31z"/>
	<path d="M876.65,107.31c-0.79,1.24-3.78-0.54-11.33-0.55c-7.62-0.01-10.65,1.8-11.45,0.55c-1.29-2.02,4.14-10.56,11.39-10.56
		C872.5,96.75,877.93,105.29,876.65,107.31z"/>
	<ellipse class="st4" cx="949.34" cy="123.75" rx="10.5" ry="8"/>
	<ellipse class="st4" cx="849.34" cy="123.75" rx="10.5" ry="8"/>
</g>
<g id="polar_x5F_bear_x5F_happy3_x28_3_x2F_3_x29_">
	<g>
		<ellipse class="st0" cx="1260.86" cy="159.75" rx="103.5" ry="124"/>
	</g>
	<ellipse class="st1" cx="1259.86" cy="137.25" rx="25.5" ry="21.5"/>
	<path d="M1268.36,134.75c-0.91,1-3.45,3.81-7.5,4c-4.6,0.22-7.67-3.1-8.5-4c-2.65-2.87-5.32-8.42-3-12c1.94-3,6.35-3,11-3
		s9.06,0,11,3C1273.68,126.35,1270.92,131.92,1268.36,134.75z"/>
	
		<ellipse transform="matrix(0.7071 -0.7071 0.7071 0.7071 303.2916 861.7231)" class="st0" cx="1191.84" cy="64.76" rx="22" ry="21.5"/>
	
		<ellipse transform="matrix(0.7071 -0.7071 0.7071 0.7071 344.2957 960.7168)" class="st0" cx="1331.84" cy="64.76" rx="21.5" ry="22"/>
	<path class="st0" d="M1240.85,269.73c0.03,1.45,0.05,9.14-5.4,14.31c-6.24,5.92-15.37,4.47-28.77,2.36
		c-13.66-2.16-23.67-3.76-27.48-11.62c-3.13-6.45-0.18-13.58,0.46-15.13c4.92-11.88,20.36-18.95,34.16-16.67
		C1227.48,245.24,1240.55,256.82,1240.85,269.73z"/>
	<line class="st2" x1="1220.28" y1="279.64" x2="1218.81" y2="287.57"/>
	<line class="st2" x1="1207.7" y1="277.56" x2="1206.23" y2="285.49"/>
	<line class="st2" x1="1194.06" y1="274.84" x2="1192.59" y2="282.77"/>
	<path class="st0" d="M1277.81,269.73c-0.03,1.45-0.05,9.14,5.4,14.31c6.24,5.92,15.37,4.47,28.77,2.36
		c13.66-2.16,23.67-3.76,27.48-11.62c3.13-6.45,0.18-13.58-0.46-15.13c-4.92-11.88-20.36-18.95-34.16-16.67
		C1291.18,245.24,1278.11,256.82,1277.81,269.73z"/>
	<line class="st2" x1="1298.38" y1="279.64" x2="1299.85" y2="287.57"/>
	<line class="st2" x1="1310.96" y1="277.56" x2="1312.43" y2="285.49"/>
	<line class="st2" x1="1324.6" y1="274.84" x2="1326.07" y2="282.77"/>
	<g>
		
			<ellipse transform="matrix(0.5341 -0.8454 0.8454 0.5341 450.2708 1023.2064)" class="st0" cx="1153.5" cy="103.07" rx="22.21" ry="54.32"/>
		<line class="st2" x1="1118.43" y1="74.84" x2="1110.84" y2="72.12"/>
		<line class="st2" x1="1114.52" y1="79.5" x2="1106.93" y2="76.78"/>
		<line class="st2" x1="1114.74" y1="85.9" x2="1107.15" y2="83.18"/>
	</g>
	<g>
		
			<ellipse transform="matrix(0.8454 -0.5341 0.5341 0.8454 156.2067 745.7716)" class="st0" cx="1366.47" cy="103.03" rx="54.32" ry="22.21"/>
		<line class="st2" x1="1401.61" y1="74.84" x2="1409.2" y2="72.12"/>
		<line class="st2" x1="1405.52" y1="79.5" x2="1413.11" y2="76.78"/>
		<line class="st2" x1="1405.3" y1="85.9" x2="1412.89" y2="83.18"/>
	</g>
	<path d="M1308.27,108.72c-0.66,0.59-5.73-7.17-13.11-6.93c-6.95,0.23-11.25,7.39-11.8,6.93c-0.64-0.54,3.58-11.96,12.45-11.97
		C1304.67,96.74,1309.01,108.07,1308.27,108.72z"/>
	<path d="M1237.27,108.72c-0.66,0.59-5.73-7.17-13.11-6.93c-6.95,0.23-11.25,7.39-11.8,6.93c-0.64-0.54,3.58-11.96,12.45-11.97
		C1233.67,96.74,1238.01,108.07,1237.27,108.72z"/>
	<ellipse class="st5" cx="1308.86" cy="123.75" rx="10.5" ry="8"/>
	<ellipse class="st5" cx="1208.86" cy="123.75" rx="10.5" ry="8"/>
</g>
<g id="polar_x5F_bear_x5F_happy4_x28_2_x2F_3_x29_">
	<g>
		<ellipse class="st0" cx="1621.34" cy="159.75" rx="103.5" ry="124"/>
	</g>
	<ellipse class="st1" cx="1620.34" cy="137.25" rx="25.5" ry="21.5"/>
	<path d="M1628.84,134.75c-0.91,1-3.45,3.81-7.5,4c-4.6,0.22-7.67-3.1-8.5-4c-2.65-2.87-5.32-8.42-3-12c1.94-3,6.35-3,11-3
		s9.06,0,11,3C1634.16,126.35,1631.4,131.92,1628.84,134.75z"/>
	
		<ellipse transform="matrix(0.7071 -0.7071 0.7071 0.7071 408.8671 1116.6265)" class="st0" cx="1552.32" cy="64.77" rx="22" ry="21.5"/>
	
		<ellipse transform="matrix(0.7071 -0.7071 0.7071 0.7071 449.8711 1215.6201)" class="st0" cx="1692.32" cy="64.77" rx="21.5" ry="22"/>
	<path class="st0" d="M1601.33,269.73c0.03,1.45,0.05,9.14-5.4,14.31c-6.24,5.92-15.37,4.47-28.77,2.36
		c-13.66-2.16-23.67-3.76-27.48-11.62c-3.13-6.45-0.18-13.58,0.46-15.13c4.92-11.88,20.36-18.95,34.16-16.67
		C1587.96,245.24,1601.03,256.82,1601.33,269.73z"/>
	<line class="st2" x1="1580.76" y1="279.64" x2="1579.29" y2="287.57"/>
	<line class="st2" x1="1568.18" y1="277.56" x2="1566.71" y2="285.49"/>
	<line class="st2" x1="1554.54" y1="274.84" x2="1553.07" y2="282.77"/>
	<path class="st0" d="M1638.29,269.73c-0.03,1.45-0.05,9.14,5.4,14.31c6.24,5.92,15.37,4.47,28.77,2.36
		c13.66-2.16,23.67-3.76,27.48-11.62c3.13-6.45,0.18-13.58-0.46-15.13c-4.92-11.88-20.36-18.95-34.16-16.67
		C1651.66,245.24,1638.59,256.82,1638.29,269.73z"/>
	<line class="st2" x1="1658.86" y1="279.64" x2="1660.33" y2="287.57"/>
	<line class="st2" x1="1671.44" y1="277.56" x2="1672.91" y2="285.49"/>
	<line class="st2" x1="1685.08" y1="274.84" x2="1686.55" y2="282.77"/>
	<g>
		
			<ellipse transform="matrix(0.2218 -0.9751 0.9751 0.2218 1059.4469 1561.5129)" class="st0" cx="1508.02" cy="117.01" rx="22.21" ry="54.32"/>
		<line class="st2" x1="1465.53" y1="102.14" x2="1457.46" y2="102.11"/>
		<line class="st2" x1="1463.39" y1="107.84" x2="1455.33" y2="107.81"/>
		<line class="st2" x1="1465.73" y1="113.8" x2="1457.66" y2="113.77"/>
	</g>
	<g>
		
			<ellipse transform="matrix(0.9751 -0.2218 0.2218 0.9751 17.4121 387.0489)" class="st0" cx="1732.02" cy="116" rx="54.32" ry="22.21"/>
		<line class="st2" x1="1774.47" y1="101.14" x2="1782.54" y2="101.11"/>
		<line class="st2" x1="1776.61" y1="106.84" x2="1784.67" y2="106.81"/>
		<line class="st2" x1="1774.27" y1="112.8" x2="1782.34" y2="112.77"/>
	</g>
	<path d="M1667.65,107.31c-0.79,1.24-3.78-0.54-11.33-0.55c-7.62-0.01-10.65,1.8-11.45,0.55c-1.29-2.02,4.14-10.56,11.39-10.56
		C1663.5,96.75,1668.93,105.29,1667.65,107.31z"/>
	<path d="M1596.65,107.31c-0.79,1.24-3.78-0.54-11.33-0.55c-7.62-0.01-10.65,1.8-11.45,0.55c-1.29-2.02,4.14-10.56,11.39-10.56
		C1592.5,96.75,1597.93,105.29,1596.65,107.31z"/>
	<ellipse class="st4" cx="1669.34" cy="123.75" rx="10.5" ry="8"/>
	<ellipse class="st4" cx="1569.34" cy="123.75" rx="10.5" ry="8"/>
</g>
<g id="polar_x5F_bear_x5F_happy5_x28_3_x2F_3_x29_">
	<g>
		<ellipse class="st0" cx="1980.86" cy="159.75" rx="103.5" ry="124"/>
	</g>
	<ellipse class="st1" cx="1979.86" cy="137.25" rx="25.5" ry="21.5"/>
	<path d="M1988.36,134.75c-0.91,1-3.45,3.81-7.5,4c-4.6,0.22-7.67-3.1-8.5-4c-2.65-2.87-5.32-8.42-3-12c1.94-3,6.35-3,11-3
		s9.06,0,11,3C1993.68,126.35,1990.92,131.92,1988.36,134.75z"/>
	
		<ellipse transform="matrix(0.7071 -0.7071 0.7071 0.7071 514.1642 1370.8441)" class="st0" cx="1911.84" cy="64.77" rx="22" ry="21.5"/>
	
		<ellipse transform="matrix(0.7071 -0.7071 0.7071 0.7071 555.1683 1469.8379)" class="st0" cx="2051.84" cy="64.77" rx="21.5" ry="22"/>
	<path class="st0" d="M1960.85,269.73c0.03,1.45,0.05,9.14-5.4,14.31c-6.24,5.92-15.37,4.47-28.77,2.36
		c-13.66-2.16-23.67-3.76-27.48-11.62c-3.13-6.45-0.18-13.58,0.46-15.13c4.92-11.88,20.36-18.95,34.16-16.67
		C1947.48,245.24,1960.55,256.82,1960.85,269.73z"/>
	<line class="st2" x1="1940.28" y1="279.64" x2="1938.81" y2="287.57"/>
	<line class="st2" x1="1927.7" y1="277.56" x2="1926.23" y2="285.49"/>
	<line class="st2" x1="1914.06" y1="274.84" x2="1912.59" y2="282.77"/>
	<path class="st0" d="M1997.81,269.73c-0.03,1.45-0.05,9.14,5.4,14.31c6.24,5.92,15.37,4.47,28.77,2.36
		c13.66-2.16,23.67-3.76,27.48-11.62c3.13-6.45,0.18-13.58-0.46-15.13c-4.92-11.88-20.36-18.95-34.16-16.67
		C2011.18,245.24,1998.11,256.82,1997.81,269.73z"/>
	<line class="st2" x1="2018.38" y1="279.64" x2="2019.85" y2="287.57"/>
	<line class="st2" x1="2030.96" y1="277.56" x2="2032.43" y2="285.49"/>
	<line class="st2" x1="2044.6" y1="274.84" x2="2046.07" y2="282.77"/>
	<g>
		
			<ellipse transform="matrix(0.5341 -0.8454 0.8454 0.5341 785.6927 1631.9143)" class="st0" cx="1873.5" cy="103.09" rx="22.21" ry="54.32"/>
		<line class="st2" x1="1838.43" y1="74.84" x2="1830.84" y2="72.12"/>
		<line class="st2" x1="1834.52" y1="79.5" x2="1826.93" y2="76.78"/>
		<line class="st2" x1="1834.74" y1="85.9" x2="1827.15" y2="83.18"/>
	</g>
	<g>
		
			<ellipse transform="matrix(0.8454 -0.5341 0.5341 0.8454 267.504 1130.3164)" class="st0" cx="2086.45" cy="103.03" rx="54.32" ry="22.21"/>
		<line class="st2" x1="2121.61" y1="74.84" x2="2129.2" y2="72.12"/>
		<line class="st2" x1="2125.52" y1="79.5" x2="2133.11" y2="76.78"/>
		<line class="st2" x1="2125.3" y1="85.9" x2="2132.89" y2="83.18"/>
	</g>
	<path d="M2028.27,108.72c-0.66,0.59-5.73-7.17-13.11-6.93c-6.95,0.23-11.25,7.39-11.8,6.93c-0.64-0.54,3.58-11.96,12.45-11.97
		C2024.67,96.74,2029.01,108.07,2028.27,108.72z"/>
	<path d="M1957.27,108.72c-0.66,0.59-5.73-7.17-13.11-6.93c-6.95,0.23-11.25,7.39-11.8,6.93c-0.64-0.54,3.58-11.96,12.45-11.97
		C1953.67,96.74,1958.01,108.07,1957.27,108.72z"/>
	<ellipse class="st5" cx="2028.86" cy="123.75" rx="10.5" ry="8"/>
	<ellipse class="st5" cx="1928.86" cy="123.75" rx="10.5" ry="8"/>
</g>
<g id="polar_x5F_bear_x5F_happy6_x28_2_x2F_3_x29_">
	<g>
		<ellipse class="st0" cx="2341.31" cy="159.75" rx="103.5" ry="124"/>
	</g>
	<ellipse class="st1" cx="2340.31" cy="137.25" rx="25.5" ry="21.5"/>
	<path d="M2348.81,134.75c-0.91,1-3.45,3.81-7.5,4c-4.6,0.22-7.67-3.1-8.5-4c-2.65-2.87-5.32-8.42-3-12c1.94-3,6.35-3,11-3
		s9.06,0,11,3C2354.14,126.35,2351.38,131.92,2348.81,134.75z"/>
	
		<ellipse transform="matrix(0.7071 -0.7071 0.7071 0.7071 619.7162 1625.7732)" class="st0" cx="2272.34" cy="64.82" rx="22" ry="21.5"/>
	
		<ellipse transform="matrix(0.7071 -0.7071 0.7071 0.7071 660.7317 1724.7173)" class="st0" cx="2412.28" cy="64.78" rx="21.5" ry="22"/>
	<path class="st0" d="M2321.31,269.73c0.03,1.45,0.05,9.14-5.4,14.31c-6.24,5.92-15.37,4.47-28.76,2.36
		c-13.66-2.16-23.67-3.76-27.48-11.62c-3.13-6.45-0.18-13.58,0.46-15.13c4.92-11.88,20.36-18.95,34.16-16.67
		C2307.94,245.24,2321.01,256.82,2321.31,269.73z"/>
	<line class="st2" x1="2300.74" y1="279.64" x2="2299.27" y2="287.57"/>
	<line class="st2" x1="2288.16" y1="277.56" x2="2286.69" y2="285.49"/>
	<line class="st2" x1="2274.52" y1="274.84" x2="2273.05" y2="282.77"/>
	<path class="st0" d="M2358.27,269.73c-0.03,1.45-0.05,9.14,5.4,14.31c6.24,5.92,15.37,4.47,28.77,2.36
		c13.66-2.16,23.67-3.76,27.48-11.62c3.13-6.45,0.18-13.58-0.46-15.13c-4.92-11.88-20.36-18.95-34.16-16.67
		C2371.64,245.24,2358.57,256.82,2358.27,269.73z"/>
	<line class="st2" x1="2378.84" y1="279.64" x2="2380.31" y2="287.57"/>
	<line class="st2" x1="2391.42" y1="277.56" x2="2392.89" y2="285.49"/>
	<line class="st2" x1="2405.06" y1="274.84" x2="2406.53" y2="282.77"/>
	<g>
		
			<ellipse transform="matrix(0.2218 -0.9751 0.9751 0.2218 1619.7494 2263.5593)" class="st0" cx="2228" cy="117" rx="22.21" ry="54.32"/>
		<line class="st2" x1="2185.51" y1="102.14" x2="2177.44" y2="102.11"/>
		<line class="st2" x1="2183.37" y1="107.84" x2="2175.31" y2="107.81"/>
		<line class="st2" x1="2185.71" y1="113.8" x2="2177.64" y2="113.77"/>
	</g>
	<g>
		
			<ellipse transform="matrix(0.9751 -0.2218 0.2218 0.9751 35.3458 546.7429)" class="st0" cx="2452.02" cy="116" rx="54.32" ry="22.21"/>
		<line class="st2" x1="2494.45" y1="101.14" x2="2502.52" y2="101.11"/>
		<line class="st2" x1="2496.59" y1="106.84" x2="2504.65" y2="106.81"/>
		<line class="st2" x1="2494.25" y1="112.8" x2="2502.32" y2="112.77"/>
	</g>
	<path d="M2387.63,107.31c-0.79,1.24-3.78-0.54-11.33-0.55c-7.62-0.01-10.65,1.8-11.45,0.55c-1.29-2.02,4.14-10.56,11.39-10.56
		C2383.48,96.75,2388.91,105.29,2387.63,107.31z"/>
	<path d="M2316.63,107.31c-0.79,1.24-3.78-0.54-11.33-0.55c-7.62-0.01-10.65,1.8-11.45,0.55c-1.29-2.02,4.14-10.56,11.39-10.56
		C2312.48,96.75,2317.91,105.29,2316.63,107.31z"/>
	<ellipse class="st4" cx="2389.31" cy="123.75" rx="10.5" ry="8"/>
	<ellipse class="st4" cx="2289.31" cy="123.75" rx="10.5" ry="8"/>
</g>
<g id="polar_x5F_bear_x5F_happy7_x28_1_x2F_3_x29_">
	<g>
		<ellipse class="st0" cx="2699.36" cy="159.75" rx="103.5" ry="124"/>
	</g>
	<ellipse class="st1" cx="2698.36" cy="137.25" rx="25.5" ry="21.5"/>
	<path d="M2706.86,134.75c-0.91,1-3.45,3.81-7.5,4c-4.6,0.22-7.67-3.1-8.5-4c-2.65-2.87-5.32-8.42-3-12c1.94-3,6.35-3,11-3
		s9.06,0,11,3C2712.19,126.35,2709.43,131.92,2706.86,134.75z"/>
	
		<ellipse transform="matrix(0.7071 -0.7071 0.7071 0.7071 724.5962 1878.8999)" class="st0" cx="2630.33" cy="64.78" rx="22" ry="21.5"/>
	
		<ellipse transform="matrix(0.7071 -0.7071 0.7071 0.7071 765.6003 1977.8937)" class="st0" cx="2770.33" cy="64.79" rx="21.5" ry="22"/>
	<path class="st0" d="M2679.36,269.73c0.03,1.45,0.05,9.14-5.4,14.31c-6.24,5.92-15.37,4.47-28.76,2.36
		c-13.66-2.16-23.67-3.76-27.48-11.62c-3.13-6.45-0.18-13.58,0.46-15.13c4.92-11.88,20.36-18.95,34.16-16.67
		C2665.99,245.24,2679.06,256.82,2679.36,269.73z"/>
	<line class="st2" x1="2658.79" y1="279.64" x2="2657.32" y2="287.57"/>
	<line class="st2" x1="2646.21" y1="277.56" x2="2644.74" y2="285.49"/>
	<line class="st2" x1="2632.57" y1="274.84" x2="2631.1" y2="282.77"/>
	<path class="st0" d="M2716.32,269.73c-0.03,1.45-0.05,9.14,5.4,14.31c6.24,5.92,15.37,4.47,28.77,2.36
		c13.66-2.16,23.67-3.76,27.48-11.62c3.13-6.45,0.18-13.58-0.46-15.13c-4.92-11.88-20.36-18.95-34.16-16.67
		C2729.69,245.24,2716.62,256.82,2716.32,269.73z"/>
	<line class="st2" x1="2736.89" y1="279.64" x2="2738.36" y2="287.57"/>
	<line class="st2" x1="2749.47" y1="277.56" x2="2750.94" y2="285.49"/>
	<line class="st2" x1="2763.11" y1="274.84" x2="2764.58" y2="282.77"/>
	<g>
		
			<ellipse transform="matrix(0.3919 -0.92 0.92 0.3919 1577.7668 2669.0957)" class="st0" cx="2807.96" cy="141.02" rx="22.21" ry="54.32"/>
		<line class="st2" x1="2851.17" y1="153.87" x2="2857.72" y2="158.57"/>
		<line class="st2" x1="2849.55" y1="159.73" x2="2856.1" y2="164.43"/>
		<line class="st2" x1="2844.17" y1="163.2" x2="2850.72" y2="167.9"/>
	</g>
	<g>
		
			<ellipse transform="matrix(0.92 -0.3919 0.3919 0.92 151.6591 1027.1833)" class="st0" cx="2592.01" cy="142.09" rx="54.32" ry="22.21"/>
		<line class="st2" x1="2548.89" y1="154.87" x2="2542.34" y2="159.57"/>
		<line class="st2" x1="2550.51" y1="160.73" x2="2543.96" y2="165.43"/>
		<line class="st2" x1="2555.89" y1="164.2" x2="2549.34" y2="168.9"/>
	</g>
	<path d="M2743.76,106.25c-0.8,3.56-5.87,5.36-9.42,5.5c-4.09,0.16-9.63-1.75-10.47-5.5c-0.93-4.19,4.29-9.49,9.94-9.49
		C2739.47,96.75,2744.69,102.07,2743.76,106.25z"/>
	<path d="M2673.76,106.25c-0.8,3.56-5.87,5.36-9.42,5.5c-4.09,0.16-9.63-1.75-10.47-5.5c-0.93-4.19,4.29-9.49,9.94-9.49
		C2669.47,96.75,2674.69,102.07,2673.76,106.25z"/>
	<ellipse class="st3" cx="2747.36" cy="123.75" rx="10.5" ry="8"/>
	<ellipse class="st3" cx="2647.36" cy="123.75" rx="10.5" ry="8"/>
</g>
<g id="polar_x5F_bear_x5F_happy8_x28_0_x29_">
	<g>
		<ellipse class="st0" cx="3059.8" cy="159.75" rx="103.5" ry="124"/>
	</g>
	<ellipse class="st1" cx="3058.8" cy="137.25" rx="25.5" ry="21.5"/>
	<circle cx="3093.8" cy="106.25" r="9.5"/>
	<circle cx="3023.8" cy="106.25" r="9.5"/>
	<path d="M3067.3,134.75c-0.91,1-3.45,3.81-7.5,4c-4.6,0.22-7.67-3.1-8.5-4c-2.65-2.87-5.32-8.42-3-12c1.94-3,6.35-3,11-3
		s9.06,0,11,3C3072.62,126.35,3069.86,131.92,3067.3,134.75z"/>
	
		<ellipse transform="matrix(0.7071 -0.7071 0.7071 0.7071 830.1566 2133.7588)" class="st0" cx="2990.75" cy="64.79" rx="22" ry="21.5"/>
	
		<ellipse transform="matrix(0.7071 -0.7071 0.7071 0.7071 871.1606 2232.7527)" class="st0" cx="3130.75" cy="64.79" rx="21.5" ry="22"/>
	<g>
		
			<ellipse transform="matrix(0.5159 -0.8566 0.8566 0.5159 1298.8007 2620.7837)" class="st0" cx="2968.3" cy="161.2" rx="54.32" ry="22.21"/>
		<line class="st2" x1="2941.03" y1="196.7" x2="2938.47" y2="204.35"/>
		<line class="st2" x1="2945.77" y1="200.51" x2="2943.22" y2="208.16"/>
		<line class="st2" x1="2952.17" y1="200.17" x2="2949.61" y2="207.81"/>
	</g>
	<path class="st0" d="M3039.8,269.73c0.03,1.45,0.05,9.14-5.4,14.31c-6.24,5.92-15.37,4.47-28.76,2.36
		c-13.66-2.16-23.67-3.76-27.48-11.62c-3.13-6.45-0.18-13.58,0.46-15.13c4.92-11.88,20.36-18.95,34.16-16.67
		C3026.43,245.24,3039.49,256.82,3039.8,269.73z"/>
	<line class="st2" x1="3019.22" y1="279.64" x2="3017.75" y2="287.57"/>
	<line class="st2" x1="3006.64" y1="277.56" x2="3005.18" y2="285.49"/>
	<line class="st2" x1="2993" y1="274.84" x2="2991.53" y2="282.77"/>
	<path class="st0" d="M3076.75,269.73c-0.03,1.45-0.05,9.14,5.4,14.31c6.24,5.92,15.37,4.47,28.76,2.36
		c13.66-2.16,23.67-3.76,27.48-11.62c3.13-6.45,0.18-13.58-0.46-15.13c-4.92-11.88-20.36-18.95-34.16-16.67
		C3090.12,245.24,3077.05,256.82,3076.75,269.73z"/>
	<line class="st2" x1="3097.33" y1="279.64" x2="3098.79" y2="287.57"/>
	<line class="st2" x1="3109.9" y1="277.56" x2="3111.37" y2="285.49"/>
	<line class="st2" x1="3123.55" y1="274.84" x2="3125.01" y2="282.77"/>
	
		<ellipse transform="matrix(0.8561 -0.5169 0.5169 0.8561 370.474 1652.2189)" class="st0" cx="3151.73" cy="160.94" rx="22.21" ry="54.32"/>
	<line class="st2" x1="3174.2" y1="200.49" x2="3176.76" y2="208.13"/>
	<line class="st2" x1="3167.8" y1="200.15" x2="3170.37" y2="207.79"/>
	<g>
		
			<ellipse transform="matrix(0.8566 -0.5159 0.5159 0.8566 368.6272 1648.8988)" class="st0" cx="3151.24" cy="161.16" rx="22.21" ry="54.32"/>
		<line class="st2" x1="3178.89" y1="196.7" x2="3181.45" y2="204.35"/>
		<line class="st2" x1="3174.15" y1="200.51" x2="3176.71" y2="208.16"/>
		<line class="st2" x1="3167.76" y1="200.17" x2="3170.31" y2="207.81"/>
	</g>
</g>
</svg>
