<?xml version="1.0" encoding="utf-8"?>
<!-- Generator: Adobe Illustrator 23.0.1, SVG Export Plug-In . SVG Version: 6.00 Build 0)  -->
<svg version="1.1" id="Layer_1" xmlns="http://www.w3.org/2000/svg" xmlns:xlink="http://www.w3.org/1999/xlink" x="0px" y="0px"
	 viewBox="0 0 3240 324" style="enable-background:new 0 0 3240 324;" xml:space="preserve">
<style type="text/css">
	.st0{fill:#FFFFFF;}
	.st1{fill:#F2F2F2;}
	.st2{fill:none;stroke:#F2F2F2;stroke-miterlimit:10;}
	.st3{fill:none;stroke:#000000;stroke-width:2;stroke-miterlimit:10;}
</style>
<g id="polar_x5F_bear_x5F_confused0_x28_0_x29_">
	<g>
		<ellipse class="st0" cx="179.82" cy="159.75" rx="103.5" ry="124"/>
	</g>
	<ellipse class="st1" cx="178.82" cy="137.25" rx="25.5" ry="21.5"/>
	<circle cx="213.82" cy="106.25" r="9.5"/>
	<circle cx="143.82" cy="106.25" r="9.5"/>
	<path d="M187.32,134.75c-0.91,1-3.45,3.81-7.5,4c-4.6,0.22-7.67-3.1-8.5-4c-2.65-2.87-5.32-8.42-3-12c1.94-3,6.35-3,11-3
		s9.06,0,11,3C192.64,126.35,189.88,131.92,187.32,134.75z"/>
	
		<ellipse transform="matrix(0.7071 -0.7071 0.7071 0.7071 -13.3252 97.3243)" class="st0" cx="110.82" cy="64.75" rx="22" ry="21.5"/>
	
		<ellipse transform="matrix(0.7071 -0.7071 0.7071 0.7071 27.6789 196.3183)" class="st0" cx="250.82" cy="64.75" rx="21.5" ry="22"/>
	<g>
		
			<ellipse transform="matrix(0.5159 -0.8566 0.8566 0.5159 -95.1133 153.7255)" class="st0" cx="88.46" cy="161.02" rx="54.32" ry="22.21"/>
		<line class="st2" x1="61.05" y1="196.7" x2="58.49" y2="204.35"/>
		<line class="st2" x1="65.79" y1="200.51" x2="63.24" y2="208.16"/>
		<line class="st2" x1="72.19" y1="200.17" x2="69.63" y2="207.81"/>
	</g>
	<path class="st0" d="M159.82,269.73c0.03,1.45,0.05,9.14-5.4,14.31c-6.24,5.92-15.37,4.47-28.77,2.36
		c-13.66-2.16-23.67-3.76-27.48-11.62c-3.13-6.45-0.18-13.58,0.46-15.13c4.92-11.88,20.36-18.95,34.16-16.67
		C146.45,245.24,159.51,256.82,159.82,269.73z"/>
	<line class="st2" x1="139.24" y1="279.64" x2="137.77" y2="287.57"/>
	<line class="st2" x1="126.66" y1="277.56" x2="125.2" y2="285.49"/>
	<line class="st2" x1="113.02" y1="274.84" x2="111.55" y2="282.77"/>
	<path class="st0" d="M196.77,269.73c-0.03,1.45-0.05,9.14,5.4,14.31c6.24,5.92,15.37,4.47,28.77,2.36
		c13.66-2.16,23.67-3.76,27.48-11.62c3.13-6.45,0.18-13.58-0.46-15.13c-4.92-11.88-20.36-18.95-34.16-16.67
		C210.14,245.24,197.07,256.82,196.77,269.73z"/>
	<line class="st2" x1="217.35" y1="279.64" x2="218.81" y2="287.57"/>
	<line class="st2" x1="229.92" y1="277.56" x2="231.39" y2="285.49"/>
	<line class="st2" x1="243.57" y1="274.84" x2="245.03" y2="282.77"/>
	
		<ellipse transform="matrix(0.8561 -0.5169 0.5169 0.8561 -44.1522 163.5136)" class="st0" cx="271.51" cy="161.03" rx="22.21" ry="54.32"/>
	<line class="st2" x1="294.22" y1="200.49" x2="296.78" y2="208.13"/>
	<line class="st2" x1="287.82" y1="200.15" x2="290.39" y2="207.79"/>
	<g>
		
			<ellipse transform="matrix(0.8566 -0.5159 0.5159 0.8566 -44.1599 163.1294)" class="st0" cx="271.45" cy="161.02" rx="22.21" ry="54.32"/>
		<line class="st2" x1="298.91" y1="196.7" x2="301.47" y2="204.35"/>
		<line class="st2" x1="294.17" y1="200.51" x2="296.73" y2="208.16"/>
		<line class="st2" x1="287.78" y1="200.17" x2="290.33" y2="207.81"/>
	</g>
</g>
<g id="polar_x5F_bear_x5F_confused1">
	<g>
		<ellipse class="st0" cx="539.69" cy="159.75" rx="103.5" ry="124"/>
	</g>
	<ellipse class="st1" cx="538.69" cy="137.25" rx="25.5" ry="21.5"/>
	<path d="M547.19,134.75c-0.91,1-3.45,3.81-7.5,4c-4.6,0.22-7.67-3.1-8.5-4c-2.65-2.87-5.32-8.42-3-12c1.94-3,6.35-3,11-3
		s9.06,0,11,3C552.51,126.35,549.75,131.92,547.19,134.75z"/>
	
		<ellipse transform="matrix(0.7071 -0.7071 0.7071 0.7071 92.0692 351.795)" class="st0" cx="470.69" cy="64.76" rx="22" ry="21.5"/>
	
		<ellipse transform="matrix(0.7071 -0.7071 0.7071 0.7071 133.0734 450.7888)" class="st0" cx="610.69" cy="64.76" rx="21.5" ry="22"/>
	<g>
		
			<ellipse transform="matrix(0.5159 -0.8566 0.8566 0.5159 79.0576 462.0098)" class="st0" cx="448.32" cy="161.05" rx="54.32" ry="22.21"/>
		<line class="st2" x1="420.92" y1="196.7" x2="418.36" y2="204.35"/>
		<line class="st2" x1="425.66" y1="200.51" x2="423.11" y2="208.16"/>
		<line class="st2" x1="432.06" y1="200.17" x2="429.5" y2="207.81"/>
	</g>
	<path class="st0" d="M519.69,269.73c0.03,1.45,0.05,9.14-5.4,14.31c-6.24,5.92-15.37,4.47-28.77,2.36
		c-13.66-2.16-23.67-3.76-27.48-11.62c-3.13-6.45-0.18-13.58,0.46-15.13c4.92-11.88,20.36-18.95,34.16-16.67
		C506.32,245.24,519.38,256.82,519.69,269.73z"/>
	<line class="st2" x1="499.11" y1="279.64" x2="497.64" y2="287.57"/>
	<line class="st2" x1="486.53" y1="277.56" x2="485.07" y2="285.49"/>
	<line class="st2" x1="472.89" y1="274.84" x2="471.42" y2="282.77"/>
	<path class="st0" d="M556.64,269.73c-0.03,1.45-0.05,9.14,5.4,14.31c6.24,5.92,15.37,4.47,28.77,2.36
		c13.66-2.16,23.67-3.76,27.48-11.62c3.13-6.45,0.18-13.58-0.46-15.13c-4.92-11.88-20.36-18.95-34.16-16.67
		C570.01,245.24,556.94,256.82,556.64,269.73z"/>
	<line class="st2" x1="577.22" y1="279.64" x2="578.68" y2="287.57"/>
	<line class="st2" x1="589.79" y1="277.56" x2="591.26" y2="285.49"/>
	<line class="st2" x1="603.44" y1="274.84" x2="604.9" y2="282.77"/>
	<path class="st3" d="M575.88,105.93c-0.53,1.11-1.9,1.57-3.04,1.02c-1.46-0.7-1.12-2.91-1.1-3.01c0.3-1.74,2.11-3.31,4-3.04
		c2.46,0.36,3.09,3.55,3.17,4c0.41,2.26-0.67,4.82-2.9,6.04c-2.48,1.36-5.42,0.55-7.18-0.97c-2.56-2.19-2.25-5.5-2.21-6.02
		c0.31-3.38,2.93-6.06,5.94-7.06c3.3-1.1,6.89-0.14,9.25,1.96c3.47,3.09,3.48,7.9,2.34,11.04c-1.58,4.33-6.11,7.51-11.05,7.09
		c-6.12-0.52-9.03-6.25-9.39-6.98c-0.32-0.65-2.44-5.2-0.27-10.05c1.86-4.16,6.15-6.89,11.05-7.09"/>
	<path class="st3" d="M501.84,107.6c-0.58-1.08-0.14-2.46,0.97-3.05c1.43-0.77,3.01,0.82,3.08,0.89c1.22,1.27,1.42,3.66,0.08,5.02
		c-1.74,1.77-4.69,0.4-5.1,0.2c-2.06-1.01-3.49-3.38-3.16-5.91c0.37-2.81,2.76-4.69,5.02-5.22c3.28-0.77,5.77,1.43,6.16,1.77
		c2.55,2.25,3.16,5.94,2.19,8.96c-1.06,3.32-3.95,5.64-7.05,6.31c-4.54,0.98-8.44-1.86-10.29-4.63c-2.57-3.83-2.46-9.36,0.8-13.1
		c4.04-4.63,10.38-3.6,11.18-3.45c0.71,0.13,5.64,1.11,8.27,5.71c2.26,3.96,1.93,9.03-0.8,13.1"/>
	<g>
		
			<ellipse transform="matrix(0.3919 -0.92 0.92 0.3919 264.5063 682.2247)" class="st0" cx="648.33" cy="141.02" rx="22.21" ry="54.32"/>
		<line class="st2" x1="691.49" y1="153.87" x2="698.04" y2="158.57"/>
		<line class="st2" x1="689.88" y1="159.73" x2="696.43" y2="164.43"/>
		<line class="st2" x1="684.49" y1="163.2" x2="691.04" y2="167.9"/>
	</g>
</g>
<g id="polar_x5F_bear_x5F_confused2">
	<g>
		<ellipse class="st0" cx="899.81" cy="159.75" rx="103.5" ry="124"/>
	</g>
	<ellipse class="st1" cx="898.81" cy="137.25" rx="25.5" ry="21.5"/>
	<path d="M907.31,134.75c-0.91,1-3.45,3.81-7.5,4c-4.6,0.22-7.67-3.1-8.5-4c-2.65-2.87-5.32-8.42-3-12c1.94-3,6.35-3,11-3
		s9.06,0,11,3C912.63,126.35,909.87,131.92,907.31,134.75z"/>
	
		<ellipse transform="matrix(0.7071 -0.7071 0.7071 0.7071 197.5439 606.4355)" class="st0" cx="830.8" cy="64.76" rx="22" ry="21.5"/>
	
		<ellipse transform="matrix(0.7071 -0.7071 0.7071 0.7071 238.541 705.4264)" class="st0" cx="970.8" cy="64.77" rx="21.5" ry="22"/>
	<g>
		
			<ellipse transform="matrix(0.5159 -0.8566 0.8566 0.5159 253.3571 770.4876)" class="st0" cx="808.41" cy="161.07" rx="54.32" ry="22.21"/>
		<line class="st2" x1="781.04" y1="196.7" x2="778.48" y2="204.35"/>
		<line class="st2" x1="785.78" y1="200.51" x2="783.23" y2="208.16"/>
		<line class="st2" x1="792.18" y1="200.17" x2="789.62" y2="207.81"/>
	</g>
	<path class="st0" d="M879.81,269.73c0.03,1.45,0.05,9.14-5.4,14.31c-6.24,5.92-15.37,4.47-28.77,2.36
		c-13.66-2.16-23.67-3.76-27.48-11.62c-3.13-6.45-0.18-13.58,0.46-15.13c4.92-11.88,20.36-18.95,34.16-16.67
		C866.44,245.24,879.5,256.82,879.81,269.73z"/>
	<line class="st2" x1="859.23" y1="279.64" x2="857.76" y2="287.57"/>
	<line class="st2" x1="846.65" y1="277.56" x2="845.19" y2="285.49"/>
	<line class="st2" x1="833.01" y1="274.84" x2="831.54" y2="282.77"/>
	<path class="st0" d="M916.76,269.73c-0.03,1.45-0.05,9.14,5.4,14.31c6.24,5.92,15.37,4.47,28.77,2.36
		c13.66-2.16,23.67-3.76,27.48-11.62c3.13-6.45,0.18-13.58-0.46-15.13c-4.92-11.88-20.36-18.95-34.16-16.67
		C930.13,245.24,917.06,256.82,916.76,269.73z"/>
	<line class="st2" x1="937.34" y1="279.64" x2="938.8" y2="287.57"/>
	<line class="st2" x1="949.91" y1="277.56" x2="951.38" y2="285.49"/>
	<line class="st2" x1="963.56" y1="274.84" x2="965.02" y2="282.77"/>
	<path class="st3" d="M936,105.93c-0.53,1.11-1.9,1.57-3.04,1.02c-1.46-0.7-1.12-2.91-1.1-3.01c0.3-1.74,2.11-3.31,4-3.04
		c2.46,0.36,3.09,3.55,3.17,4c0.41,2.26-0.67,4.82-2.9,6.04c-2.48,1.36-5.42,0.55-7.18-0.97c-2.56-2.19-2.25-5.5-2.21-6.02
		c0.31-3.38,2.93-6.06,5.94-7.06c3.3-1.1,6.89-0.14,9.25,1.96c3.47,3.09,3.48,7.9,2.34,11.04c-1.58,4.33-6.11,7.51-11.05,7.09
		c-6.12-0.52-9.03-6.25-9.39-6.98c-0.32-0.65-2.44-5.2-0.27-10.05c1.86-4.16,6.15-6.89,11.05-7.09"/>
	<path class="st3" d="M861.96,107.6c-0.58-1.08-0.14-2.46,0.97-3.05c1.43-0.77,3.01,0.82,3.08,0.89c1.22,1.27,1.42,3.66,0.08,5.02
		c-1.74,1.77-4.69,0.4-5.1,0.2c-2.06-1.01-3.49-3.38-3.16-5.91c0.37-2.81,2.76-4.69,5.02-5.22c3.28-0.77,5.77,1.43,6.16,1.77
		c2.55,2.25,3.16,5.94,2.19,8.96c-1.06,3.32-3.95,5.64-7.05,6.31c-4.54,0.98-8.44-1.86-10.29-4.63c-2.57-3.83-2.46-9.36,0.8-13.1
		c4.04-4.63,10.38-3.6,11.18-3.45c0.71,0.13,5.64,1.11,8.27,5.71c2.26,3.96,1.93,9.03-0.8,13.1"/>
	<g>
		
			<ellipse transform="matrix(0.9751 -0.2218 0.2218 0.9751 -0.562 227.0138)" class="st0" cx="1010.49" cy="116.01" rx="54.32" ry="22.21"/>
		<line class="st2" x1="1052.95" y1="101.14" x2="1061.01" y2="101.11"/>
		<line class="st2" x1="1055.08" y1="106.84" x2="1063.14" y2="106.81"/>
		<line class="st2" x1="1052.75" y1="112.8" x2="1060.81" y2="112.77"/>
	</g>
</g>
<g id="polar_x5F_bear_x5F_confused3">
	<g>
		<ellipse class="st0" cx="1259.86" cy="159.75" rx="103.5" ry="124"/>
	</g>
	<ellipse class="st1" cx="1258.86" cy="137.25" rx="25.5" ry="21.5"/>
	<path d="M1267.36,134.75c-0.91,1-3.45,3.81-7.5,4c-4.6,0.22-7.67-3.1-8.5-4c-2.65-2.87-5.32-8.42-3-12c1.94-3,6.35-3,11-3
		s9.06,0,11,3C1272.68,126.35,1269.92,131.92,1267.36,134.75z"/>
	
		<ellipse transform="matrix(0.7071 -0.7071 0.7071 0.7071 302.9981 861.0167)" class="st0" cx="1190.84" cy="64.76" rx="22" ry="21.5"/>
	
		<ellipse transform="matrix(0.7071 -0.7071 0.7071 0.7071 344.0021 960.0104)" class="st0" cx="1330.84" cy="64.76" rx="21.5" ry="22"/>
	<path class="st0" d="M1239.85,269.73c0.03,1.45,0.05,9.14-5.4,14.31c-6.24,5.92-15.37,4.47-28.77,2.36
		c-13.66-2.16-23.67-3.76-27.48-11.62c-3.13-6.45-0.18-13.58,0.46-15.13c4.92-11.88,20.36-18.95,34.16-16.67
		C1226.48,245.24,1239.55,256.82,1239.85,269.73z"/>
	<line class="st2" x1="1219.28" y1="279.64" x2="1217.81" y2="287.57"/>
	<line class="st2" x1="1206.7" y1="277.56" x2="1205.23" y2="285.49"/>
	<line class="st2" x1="1193.06" y1="274.84" x2="1191.59" y2="282.77"/>
	<path class="st0" d="M1276.81,269.73c-0.03,1.45-0.05,9.14,5.4,14.31c6.24,5.92,15.37,4.47,28.77,2.36
		c13.66-2.16,23.67-3.76,27.48-11.62c3.13-6.45,0.18-13.58-0.46-15.13c-4.92-11.88-20.36-18.95-34.16-16.67
		C1290.18,245.24,1277.11,256.82,1276.81,269.73z"/>
	<line class="st2" x1="1297.38" y1="279.64" x2="1298.85" y2="287.57"/>
	<line class="st2" x1="1309.96" y1="277.56" x2="1311.43" y2="285.49"/>
	<line class="st2" x1="1323.6" y1="274.84" x2="1325.07" y2="282.77"/>
	<path class="st3" d="M1226.05,106.93c-0.53,1.11-1.9,1.57-3.04,1.02c-1.46-0.7-1.12-2.91-1.1-3.01c0.3-1.74,2.11-3.31,4-3.04
		c2.46,0.36,3.09,3.55,3.17,4c0.41,2.26-0.67,4.82-2.9,6.04c-2.48,1.36-5.42,0.55-7.18-0.97c-2.56-2.19-2.25-5.5-2.21-6.02
		c0.31-3.38,2.93-6.06,5.94-7.06c3.3-1.1,6.89-0.14,9.25,1.96c3.47,3.09,3.48,7.9,2.34,11.04c-1.58,4.33-6.11,7.51-11.05,7.09
		c-6.12-0.52-9.03-6.25-9.39-6.98c-0.32-0.65-2.44-5.2-0.27-10.05c1.86-4.16,6.15-6.89,11.05-7.09"/>
	<path class="st3" d="M1293.53,103.97c1.23,0,2.23,1.04,2.23,2.3c0,1.62-2.14,2.27-2.23,2.3c-1.69,0.48-3.9-0.47-4.47-2.3
		c-0.74-2.37,1.86-4.32,2.23-4.59c1.86-1.34,4.63-1.48,6.7,0c2.3,1.65,2.83,4.65,2.23,6.89c-0.87,3.25-3.98,4.41-4.47,4.59
		c-3.18,1.19-6.73-0.02-8.94-2.3c-2.42-2.5-3.11-6.15-2.23-9.19c1.28-4.46,5.62-6.56,8.94-6.89c4.59-0.45,9.41,2.25,11.17,6.89
		c2.18,5.75-1.73,10.85-2.23,11.48c-0.45,0.57-3.64,4.45-8.94,4.59c-4.55,0.12-8.87-2.56-11.17-6.89"/>
	<g>
		
			<ellipse transform="matrix(0.3919 -0.92 0.92 0.3919 702.4221 1344.7716)" class="st0" cx="1368.48" cy="141.03" rx="22.21" ry="54.32"/>
		<line class="st2" x1="1411.66" y1="153.87" x2="1418.21" y2="158.57"/>
		<line class="st2" x1="1410.04" y1="159.73" x2="1416.59" y2="164.43"/>
		<line class="st2" x1="1404.66" y1="163.2" x2="1411.21" y2="167.9"/>
	</g>
	<g>
		
			<ellipse transform="matrix(0.92 -0.3919 0.3919 0.92 36.4434 462.6443)" class="st0" cx="1151.51" cy="142.05" rx="54.32" ry="22.21"/>
		<line class="st2" x1="1108.38" y1="154.87" x2="1101.83" y2="159.57"/>
		<line class="st2" x1="1110" y1="160.73" x2="1103.45" y2="165.43"/>
		<line class="st2" x1="1115.38" y1="164.2" x2="1108.83" y2="168.9"/>
	</g>
</g>
<g id="polar_x5F_bear_x5F_confused4">
	<g>
		<ellipse class="st0" cx="1620.08" cy="159.75" rx="103.5" ry="124"/>
	</g>
	<ellipse class="st1" cx="1619.08" cy="137.25" rx="25.5" ry="21.5"/>
	<path d="M1627.58,134.75c-0.91,1-3.45,3.81-7.5,4c-4.6,0.22-7.67-3.1-8.5-4c-2.65-2.87-5.32-8.42-3-12c1.94-3,6.35-3,11-3
		s9.06,0,11,3C1632.9,126.35,1630.14,131.92,1627.58,134.75z"/>
	
		<ellipse transform="matrix(0.7071 -0.7071 0.7071 0.7071 408.4972 1115.7351)" class="st0" cx="1551.06" cy="64.77" rx="22" ry="21.5"/>
	
		<ellipse transform="matrix(0.7071 -0.7071 0.7071 0.7071 449.5013 1214.7289)" class="st0" cx="1691.06" cy="64.77" rx="21.5" ry="22"/>
	<g>
		
			<ellipse transform="matrix(0.8566 -0.5159 0.5159 0.8566 162.7914 906.0141)" class="st0" cx="1711.62" cy="160.09" rx="22.21" ry="54.32"/>
		<line class="st2" x1="1739.17" y1="195.7" x2="1741.73" y2="203.35"/>
		<line class="st2" x1="1734.43" y1="199.51" x2="1736.99" y2="207.16"/>
		<line class="st2" x1="1728.04" y1="199.17" x2="1730.59" y2="206.81"/>
	</g>
	<path class="st0" d="M1600.08,269.73c0.03,1.45,0.05,9.14-5.4,14.31c-6.24,5.92-15.37,4.47-28.77,2.36
		c-13.66-2.16-23.67-3.76-27.48-11.62c-3.13-6.45-0.18-13.58,0.46-15.13c4.92-11.88,20.36-18.95,34.16-16.67
		C1586.71,245.24,1599.77,256.82,1600.08,269.73z"/>
	<line class="st2" x1="1579.5" y1="279.64" x2="1578.03" y2="287.57"/>
	<line class="st2" x1="1566.92" y1="277.56" x2="1565.46" y2="285.49"/>
	<line class="st2" x1="1553.28" y1="274.84" x2="1551.81" y2="282.77"/>
	<path class="st0" d="M1637.03,269.73c-0.03,1.45-0.05,9.14,5.4,14.31c6.24,5.92,15.37,4.47,28.77,2.36
		c13.66-2.16,23.67-3.76,27.48-11.62c3.13-6.45,0.18-13.58-0.46-15.13c-4.92-11.88-20.36-18.95-34.16-16.67
		C1650.4,245.24,1637.33,256.82,1637.03,269.73z"/>
	<line class="st2" x1="1657.61" y1="279.64" x2="1659.07" y2="287.57"/>
	<line class="st2" x1="1670.18" y1="277.56" x2="1671.65" y2="285.49"/>
	<line class="st2" x1="1683.83" y1="274.84" x2="1685.29" y2="282.77"/>
	<path class="st3" d="M1656.27,105.93c-0.53,1.11-1.9,1.57-3.04,1.02c-1.46-0.7-1.12-2.91-1.1-3.01c0.3-1.74,2.11-3.31,4-3.04
		c2.46,0.36,3.09,3.55,3.17,4c0.41,2.26-0.67,4.82-2.9,6.04c-2.48,1.36-5.42,0.55-7.18-0.97c-2.56-2.19-2.25-5.5-2.21-6.02
		c0.31-3.38,2.93-6.06,5.94-7.06c3.3-1.1,6.89-0.14,9.25,1.96c3.47,3.09,3.48,7.9,2.34,11.04c-1.58,4.33-6.11,7.51-11.05,7.09
		c-6.12-0.52-9.03-6.25-9.39-6.98c-0.32-0.65-2.44-5.2-0.27-10.05c1.86-4.16,6.15-6.89,11.05-7.09"/>
	<path class="st3" d="M1582.23,107.6c-0.58-1.08-0.14-2.46,0.97-3.05c1.43-0.77,3.01,0.82,3.08,0.89c1.22,1.27,1.42,3.66,0.08,5.02
		c-1.74,1.77-4.69,0.4-5.1,0.2c-2.06-1.01-3.49-3.38-3.16-5.91c0.37-2.81,2.76-4.69,5.02-5.22c3.28-0.77,5.77,1.43,6.16,1.77
		c2.55,2.25,3.16,5.94,2.19,8.96c-1.06,3.32-3.95,5.64-7.05,6.31c-4.54,0.98-8.44-1.86-10.29-4.63c-2.57-3.83-2.46-9.36,0.8-13.1
		c4.04-4.63,10.38-3.6,11.18-3.45c0.71,0.13,5.64,1.11,8.27,5.71c2.26,3.96,1.93,9.03-0.8,13.1"/>
	<g>
		
			<ellipse transform="matrix(0.2218 -0.9751 0.9751 0.2218 1056.1283 1557.3605)" class="st0" cx="1503.76" cy="117.01" rx="22.21" ry="54.32"/>
		<line class="st2" x1="1461.27" y1="102.14" x2="1453.2" y2="102.11"/>
		<line class="st2" x1="1459.13" y1="107.84" x2="1451.07" y2="107.81"/>
		<line class="st2" x1="1461.47" y1="113.8" x2="1453.4" y2="113.77"/>
	</g>
</g>
<g id="polar_x5F_bear_x5F_confused5">
	<g>
		<ellipse class="st0" cx="1979.87" cy="159.75" rx="103.5" ry="124"/>
	</g>
	<ellipse class="st1" cx="1978.87" cy="137.25" rx="25.5" ry="21.5"/>
	<path d="M1987.37,134.75c-0.91,1-3.45,3.81-7.5,4c-4.6,0.22-7.67-3.1-8.5-4c-2.65-2.87-5.32-8.42-3-12c1.94-3,6.35-3,11-3
		s9.06,0,11,3C1992.69,126.35,1989.93,131.92,1987.37,134.75z"/>
	
		<ellipse transform="matrix(0.7071 -0.7071 0.7071 0.7071 513.8703 1370.1379)" class="st0" cx="1910.84" cy="64.77" rx="22" ry="21.5"/>
	
		<ellipse transform="matrix(0.7071 -0.7071 0.7071 0.7071 554.8745 1469.1317)" class="st0" cx="2050.84" cy="64.77" rx="21.5" ry="22"/>
	<path class="st0" d="M1959.86,269.73c0.03,1.45,0.05,9.14-5.4,14.31c-6.24,5.92-15.37,4.47-28.77,2.36
		c-13.66-2.16-23.67-3.76-27.48-11.62c-3.13-6.45-0.18-13.58,0.46-15.13c4.92-11.88,20.36-18.95,34.16-16.67
		C1946.49,245.24,1959.56,256.82,1959.86,269.73z"/>
	<line class="st2" x1="1939.29" y1="279.64" x2="1937.82" y2="287.57"/>
	<line class="st2" x1="1926.71" y1="277.56" x2="1925.24" y2="285.49"/>
	<line class="st2" x1="1913.07" y1="274.84" x2="1911.6" y2="282.77"/>
	<path class="st0" d="M1996.82,269.73c-0.03,1.45-0.05,9.14,5.4,14.31c6.24,5.92,15.37,4.47,28.77,2.36
		c13.66-2.16,23.67-3.76,27.48-11.62c3.13-6.45,0.18-13.58-0.46-15.13c-4.92-11.88-20.36-18.95-34.16-16.67
		C2010.19,245.24,1997.12,256.82,1996.82,269.73z"/>
	<line class="st2" x1="2017.39" y1="279.64" x2="2018.86" y2="287.57"/>
	<line class="st2" x1="2029.97" y1="277.56" x2="2031.44" y2="285.49"/>
	<line class="st2" x1="2043.61" y1="274.84" x2="2045.08" y2="282.77"/>
	<path class="st3" d="M2016.06,105.93c-0.53,1.11-1.9,1.57-3.04,1.02c-1.46-0.7-1.12-2.91-1.1-3.01c0.3-1.74,2.11-3.31,4-3.04
		c2.46,0.36,3.09,3.55,3.17,4c0.41,2.26-0.67,4.82-2.9,6.04c-2.48,1.36-5.42,0.55-7.18-0.97c-2.56-2.19-2.25-5.5-2.21-6.02
		c0.31-3.38,2.93-6.06,5.94-7.06c3.3-1.1,6.89-0.14,9.25,1.96c3.47,3.09,3.48,7.9,2.34,11.04c-1.58,4.33-6.11,7.51-11.05,7.09
		c-6.12-0.52-9.03-6.25-9.39-6.98c-0.32-0.65-2.44-5.2-0.27-10.05c1.86-4.16,6.15-6.89,11.05-7.09"/>
	<path class="st3" d="M1942.01,107.6c-0.58-1.08-0.14-2.46,0.97-3.05c1.43-0.77,3.01,0.82,3.08,0.89c1.22,1.27,1.42,3.66,0.08,5.02
		c-1.74,1.77-4.69,0.4-5.1,0.2c-2.06-1.01-3.49-3.38-3.16-5.91c0.37-2.81,2.76-4.69,5.02-5.22c3.28-0.77,5.77,1.43,6.16,1.77
		c2.55,2.25,3.16,5.94,2.19,8.96c-1.06,3.32-3.95,5.64-7.05,6.31c-4.54,0.98-8.44-1.86-10.29-4.63c-2.57-3.83-2.46-9.36,0.8-13.1
		c4.04-4.63,10.38-3.6,11.18-3.45c0.71,0.13,5.64,1.11,8.27,5.71c2.26,3.96,1.93,9.03-0.8,13.1"/>
	<g>
		
			<ellipse transform="matrix(0.3919 -0.92 0.92 0.3919 1139.3201 2007.7673)" class="st0" cx="2088.46" cy="142.03" rx="22.21" ry="54.32"/>
		<line class="st2" x1="2131.67" y1="154.87" x2="2138.22" y2="159.57"/>
		<line class="st2" x1="2130.05" y1="160.73" x2="2136.6" y2="165.43"/>
		<line class="st2" x1="2124.67" y1="164.2" x2="2131.22" y2="168.9"/>
	</g>
	<g>
		
			<ellipse transform="matrix(0.92 -0.3919 0.3919 0.92 93.6422 744.8964)" class="st0" cx="1871.52" cy="143.06" rx="54.32" ry="22.21"/>
		<line class="st2" x1="1828.39" y1="155.87" x2="1821.84" y2="160.57"/>
		<line class="st2" x1="1830.01" y1="161.73" x2="1823.46" y2="166.43"/>
		<line class="st2" x1="1835.39" y1="165.2" x2="1828.84" y2="169.9"/>
	</g>
</g>
<g id="polar_x5F_bear_x5F_confused6">
	<g>
		<ellipse class="st0" cx="2340.02" cy="159.75" rx="103.5" ry="124"/>
	</g>
	<ellipse class="st1" cx="2339.02" cy="137.25" rx="25.5" ry="21.5"/>
	<path d="M2347.52,134.75c-0.91,1-3.45,3.81-7.5,4c-4.6,0.22-7.67-3.1-8.5-4c-2.65-2.87-5.32-8.42-3-12c1.94-3,6.35-3,11-3
		s9.06,0,11,3C2352.85,126.35,2350.09,131.92,2347.52,134.75z"/>
	
		<ellipse transform="matrix(0.7071 -0.7071 0.7071 0.7071 619.3278 1624.8571)" class="st0" cx="2271.04" cy="64.83" rx="22" ry="21.5"/>
	
		<ellipse transform="matrix(0.7071 -0.7071 0.7071 0.7071 660.3535 1723.8031)" class="st0" cx="2410.99" cy="64.78" rx="21.5" ry="22"/>
	<path class="st0" d="M2320.02,269.73c0.03,1.45,0.05,9.14-5.4,14.31c-6.24,5.92-15.37,4.47-28.77,2.36
		c-13.66-2.16-23.67-3.76-27.48-11.62c-3.13-6.45-0.18-13.58,0.46-15.13c4.92-11.88,20.36-18.95,34.16-16.67
		C2306.65,245.24,2319.72,256.82,2320.02,269.73z"/>
	<line class="st2" x1="2299.45" y1="279.64" x2="2297.98" y2="287.57"/>
	<line class="st2" x1="2286.87" y1="277.56" x2="2285.4" y2="285.49"/>
	<line class="st2" x1="2273.23" y1="274.84" x2="2271.76" y2="282.77"/>
	<path class="st0" d="M2356.98,269.73c-0.03,1.45-0.05,9.14,5.4,14.31c6.24,5.92,15.37,4.47,28.76,2.36
		c13.66-2.16,23.67-3.76,27.48-11.62c3.13-6.45,0.18-13.58-0.46-15.13c-4.92-11.88-20.36-18.95-34.16-16.67
		C2370.34,245.24,2357.28,256.82,2356.98,269.73z"/>
	<line class="st2" x1="2377.55" y1="279.64" x2="2379.02" y2="287.57"/>
	<line class="st2" x1="2390.13" y1="277.56" x2="2391.6" y2="285.49"/>
	<line class="st2" x1="2403.77" y1="274.84" x2="2405.24" y2="282.77"/>
	<path class="st3" d="M2306.22,106.93c-0.53,1.11-1.9,1.57-3.04,1.02c-1.46-0.7-1.12-2.91-1.1-3.01c0.3-1.74,2.11-3.31,4-3.04
		c2.46,0.36,3.09,3.55,3.17,4c0.41,2.26-0.67,4.82-2.9,6.04c-2.48,1.36-5.42,0.55-7.18-0.97c-2.56-2.19-2.25-5.5-2.21-6.02
		c0.31-3.38,2.93-6.06,5.94-7.06c3.3-1.1,6.89-0.14,9.25,1.96c3.47,3.09,3.48,7.9,2.34,11.04c-1.58,4.33-6.1,7.51-11.05,7.09
		c-6.12-0.52-9.03-6.25-9.39-6.98c-0.32-0.65-2.44-5.2-0.27-10.05c1.86-4.16,6.15-6.89,11.05-7.09"/>
	<path class="st3" d="M2373.7,103.97c1.23,0,2.23,1.04,2.23,2.3c0,1.62-2.14,2.27-2.23,2.3c-1.69,0.48-3.9-0.47-4.47-2.3
		c-0.74-2.37,1.86-4.32,2.23-4.59c1.86-1.34,4.63-1.48,6.7,0c2.3,1.65,2.83,4.65,2.23,6.89c-0.87,3.25-3.98,4.41-4.47,4.59
		c-3.18,1.19-6.73-0.02-8.94-2.3c-2.42-2.5-3.11-6.15-2.23-9.19c1.28-4.46,5.62-6.56,8.94-6.89c4.59-0.45,9.41,2.25,11.17,6.89
		c2.18,5.75-1.73,10.85-2.23,11.48c-0.45,0.57-3.64,4.45-8.94,4.59c-4.55,0.12-8.87-2.56-11.17-6.89"/>
	<g>
		
			<ellipse transform="matrix(0.5159 -0.8566 0.8566 0.5159 952.6252 2004.1031)" class="st0" cx="2249.57" cy="159.16" rx="54.32" ry="22.21"/>
		<line class="st2" x1="2222.26" y1="194.7" x2="2219.7" y2="202.35"/>
		<line class="st2" x1="2227" y1="198.51" x2="2224.44" y2="206.16"/>
		<line class="st2" x1="2233.39" y1="198.17" x2="2230.84" y2="205.81"/>
	</g>
	<g>
		
			<ellipse transform="matrix(0.9751 -0.2218 0.2218 0.9751 35.7815 546.6265)" class="st0" cx="2451.72" cy="114" rx="54.32" ry="22.21"/>
		<line class="st2" x1="2494.16" y1="99.14" x2="2502.23" y2="99.11"/>
		<line class="st2" x1="2496.29" y1="104.84" x2="2504.36" y2="104.81"/>
		<line class="st2" x1="2493.96" y1="110.8" x2="2502.03" y2="110.77"/>
	</g>
</g>
<g id="polar_x5F_bear_x5F_confused7">
	<g>
		<ellipse class="st0" cx="2699.75" cy="159.75" rx="103.5" ry="124"/>
	</g>
	<ellipse class="st1" cx="2698.75" cy="137.25" rx="25.5" ry="21.5"/>
	<path d="M2707.25,134.75c-0.91,1-3.45,3.81-7.5,4c-4.6,0.22-7.67-3.1-8.5-4c-2.65-2.87-5.32-8.42-3-12c1.94-3,6.35-3,11-3
		s9.06,0,11,3C2712.57,126.35,2709.81,131.92,2707.25,134.75z"/>
	
		<ellipse transform="matrix(0.7071 -0.7071 0.7071 0.7071 724.7066 1879.1698)" class="st0" cx="2630.71" cy="64.79" rx="22" ry="21.5"/>
	
		<ellipse transform="matrix(0.7071 -0.7071 0.7071 0.7071 765.7108 1978.1636)" class="st0" cx="2770.71" cy="64.79" rx="21.5" ry="22"/>
	<g>
		
			<ellipse transform="matrix(0.5159 -0.8566 0.8566 0.5159 1124.5309 2312.356)" class="st0" cx="2608.26" cy="161.18" rx="54.32" ry="22.21"/>
		<line class="st2" x1="2580.98" y1="196.7" x2="2578.42" y2="204.35"/>
		<line class="st2" x1="2585.72" y1="200.51" x2="2583.17" y2="208.16"/>
		<line class="st2" x1="2592.12" y1="200.17" x2="2589.56" y2="207.81"/>
	</g>
	<path class="st0" d="M2679.75,269.73c0.03,1.45,0.05,9.14-5.4,14.31c-6.24,5.92-15.37,4.47-28.76,2.36
		c-13.66-2.16-23.67-3.76-27.48-11.62c-3.13-6.45-0.18-13.58,0.46-15.13c4.92-11.88,20.36-18.95,34.16-16.67
		C2666.38,245.24,2679.44,256.82,2679.75,269.73z"/>
	<line class="st2" x1="2659.17" y1="279.64" x2="2657.7" y2="287.57"/>
	<line class="st2" x1="2646.59" y1="277.56" x2="2645.13" y2="285.49"/>
	<line class="st2" x1="2632.95" y1="274.84" x2="2631.48" y2="282.77"/>
	<path class="st0" d="M2716.7,269.73c-0.03,1.45-0.05,9.14,5.4,14.31c6.24,5.92,15.37,4.47,28.77,2.36
		c13.66-2.16,23.67-3.76,27.48-11.62c3.13-6.45,0.18-13.58-0.46-15.13c-4.92-11.88-20.36-18.95-34.16-16.67
		C2730.07,245.24,2717,256.82,2716.7,269.73z"/>
	<line class="st2" x1="2737.28" y1="279.64" x2="2738.74" y2="287.57"/>
	<line class="st2" x1="2749.85" y1="277.56" x2="2751.32" y2="285.49"/>
	<line class="st2" x1="2763.5" y1="274.84" x2="2764.96" y2="282.77"/>
	<path class="st3" d="M2735.94,105.93c-0.53,1.11-1.9,1.57-3.04,1.02c-1.46-0.7-1.12-2.91-1.1-3.01c0.3-1.74,2.11-3.31,4-3.04
		c2.46,0.36,3.09,3.55,3.17,4c0.41,2.26-0.67,4.82-2.9,6.04c-2.48,1.36-5.42,0.55-7.18-0.97c-2.56-2.19-2.25-5.5-2.21-6.02
		c0.31-3.38,2.93-6.06,5.94-7.06c3.3-1.1,6.89-0.14,9.25,1.96c3.47,3.09,3.48,7.9,2.34,11.04c-1.57,4.33-6.1,7.51-11.05,7.09
		c-6.12-0.52-9.03-6.25-9.39-6.98c-0.32-0.65-2.44-5.2-0.27-10.05c1.86-4.16,6.15-6.89,11.05-7.09"/>
	<path class="st3" d="M2661.9,107.6c-0.58-1.08-0.14-2.46,0.97-3.05c1.43-0.77,3.01,0.82,3.08,0.89c1.22,1.27,1.42,3.66,0.08,5.02
		c-1.74,1.77-4.69,0.4-5.1,0.2c-2.06-1.01-3.49-3.38-3.16-5.91c0.37-2.81,2.76-4.69,5.02-5.22c3.28-0.77,5.77,1.43,6.16,1.77
		c2.55,2.25,3.16,5.94,2.19,8.96c-1.06,3.32-3.95,5.64-7.05,6.31c-4.54,0.98-8.44-1.86-10.29-4.63c-2.57-3.83-2.46-9.36,0.8-13.1
		c4.04-4.63,10.38-3.6,11.18-3.45c0.71,0.13,5.64,1.11,8.27,5.71c2.26,3.96,1.93,9.03-0.8,13.1"/>
	<g>
		
			<ellipse transform="matrix(0.3919 -0.92 0.92 0.3919 1577.9834 2669.4509)" class="st0" cx="2808.33" cy="141.04" rx="22.21" ry="54.32"/>
		<line class="st2" x1="2851.55" y1="153.87" x2="2858.1" y2="158.57"/>
		<line class="st2" x1="2849.94" y1="159.73" x2="2856.49" y2="164.43"/>
		<line class="st2" x1="2844.55" y1="163.2" x2="2851.1" y2="167.9"/>
	</g>
</g>
<g id="polar_x5F_bear_x5F_confused8_x28_0_x29_">
	<g>
		<ellipse class="st0" cx="3059.8" cy="159.75" rx="103.5" ry="124"/>
	</g>
	<ellipse class="st1" cx="3058.8" cy="137.25" rx="25.5" ry="21.5"/>
	<circle cx="3093.8" cy="106.25" r="9.5"/>
	<circle cx="3023.8" cy="106.25" r="9.5"/>
	<path d="M3067.3,134.75c-0.91,1-3.45,3.81-7.5,4c-4.6,0.22-7.67-3.1-8.5-4c-2.65-2.87-5.32-8.42-3-12c1.94-3,6.35-3,11-3
		s9.06,0,11,3C3072.62,126.35,3069.86,131.92,3067.3,134.75z"/>
	
		<ellipse transform="matrix(0.7071 -0.7071 0.7071 0.7071 830.1566 2133.7588)" class="st0" cx="2990.75" cy="64.79" rx="22" ry="21.5"/>
	
		<ellipse transform="matrix(0.7071 -0.7071 0.7071 0.7071 871.1606 2232.7527)" class="st0" cx="3130.75" cy="64.79" rx="21.5" ry="22"/>
	<g>
		
			<ellipse transform="matrix(0.5159 -0.8566 0.8566 0.5159 1298.8007 2620.7837)" class="st0" cx="2968.3" cy="161.2" rx="54.32" ry="22.21"/>
		<line class="st2" x1="2941.03" y1="196.7" x2="2938.47" y2="204.35"/>
		<line class="st2" x1="2945.77" y1="200.51" x2="2943.22" y2="208.16"/>
		<line class="st2" x1="2952.17" y1="200.17" x2="2949.61" y2="207.81"/>
	</g>
	<path class="st0" d="M3039.8,269.73c0.03,1.45,0.05,9.14-5.4,14.31c-6.24,5.92-15.37,4.47-28.76,2.36
		c-13.66-2.16-23.67-3.76-27.48-11.62c-3.13-6.45-0.18-13.58,0.46-15.13c4.92-11.88,20.36-18.95,34.16-16.67
		C3026.43,245.24,3039.49,256.82,3039.8,269.73z"/>
	<line class="st2" x1="3019.22" y1="279.64" x2="3017.75" y2="287.57"/>
	<line class="st2" x1="3006.64" y1="277.56" x2="3005.18" y2="285.49"/>
	<line class="st2" x1="2993" y1="274.84" x2="2991.53" y2="282.77"/>
	<path class="st0" d="M3076.75,269.73c-0.03,1.45-0.05,9.14,5.4,14.31c6.24,5.92,15.37,4.47,28.76,2.36
		c13.66-2.16,23.67-3.76,27.48-11.62c3.13-6.45,0.18-13.58-0.46-15.13c-4.92-11.88-20.36-18.95-34.16-16.67
		C3090.12,245.24,3077.05,256.82,3076.75,269.73z"/>
	<line class="st2" x1="3097.33" y1="279.64" x2="3098.79" y2="287.57"/>
	<line class="st2" x1="3109.9" y1="277.56" x2="3111.37" y2="285.49"/>
	<line class="st2" x1="3123.55" y1="274.84" x2="3125.01" y2="282.77"/>
	
		<ellipse transform="matrix(0.8561 -0.5169 0.5169 0.8561 370.474 1652.2189)" class="st0" cx="3151.73" cy="160.94" rx="22.21" ry="54.32"/>
	<line class="st2" x1="3174.2" y1="200.49" x2="3176.76" y2="208.13"/>
	<line class="st2" x1="3167.8" y1="200.15" x2="3170.37" y2="207.79"/>
	<g>
		
			<ellipse transform="matrix(0.8566 -0.5159 0.5159 0.8566 368.6272 1648.8988)" class="st0" cx="3151.24" cy="161.16" rx="22.21" ry="54.32"/>
		<line class="st2" x1="3178.89" y1="196.7" x2="3181.45" y2="204.35"/>
		<line class="st2" x1="3174.15" y1="200.51" x2="3176.71" y2="208.16"/>
		<line class="st2" x1="3167.76" y1="200.17" x2="3170.31" y2="207.81"/>
	</g>
</g>
</svg>
