<?xml version="1.0" encoding="utf-8"?>
<!-- Generator: Adobe Illustrator 23.0.1, SVG Export Plug-In . SVG Version: 6.00 Build 0)  -->
<svg version="1.1" id="Layer_1" xmlns="http://www.w3.org/2000/svg" xmlns:xlink="http://www.w3.org/1999/xlink" x="0px" y="0px"
	 viewBox="0 0 253 254" style="enable-background:new 0 0 253 254;" xml:space="preserve">
<style type="text/css">
	.st0{fill:#FFFFFF;}
	.st1{fill:#F2F2F2;}
	.st2{fill:none;stroke:#F2F2F2;stroke-miterlimit:10;}
</style>
<g>
	<g>
		<ellipse class="st0" cx="125.5" cy="125" rx="103.5" ry="124"/>
	</g>
	<ellipse class="st1" cx="124.5" cy="102.5" rx="25.5" ry="21.5"/>
	<circle cx="159.5" cy="71.5" r="9.5"/>
	<circle cx="89.5" cy="71.5" r="9.5"/>
	<path d="M133,100c-0.91,1-3.45,3.81-7.5,4c-4.6,0.22-7.67-3.1-8.5-4c-2.65-2.87-5.32-8.42-3-12c1.94-3,6.35-3,11-3
		c4.65,0,9.06,0,11,3C138.32,91.6,135.56,97.17,133,100z"/>
	<ellipse transform="matrix(0.7071 -0.7071 0.7071 0.7071 -4.665 48.738)" class="st0" cx="56.5" cy="30" rx="22" ry="21.5"/>
	<ellipse transform="matrix(0.7071 -0.7071 0.7071 0.7071 36.339 147.7325)" class="st0" cx="196.5" cy="30" rx="21.5" ry="22"/>
	
		<ellipse transform="matrix(0.5169 -0.8561 0.8561 0.5169 -91.5917 90.2553)" class="st0" cx="34.17" cy="126.27" rx="54.32" ry="22.21"/>
	<line class="st2" x1="6.69" y1="161.92" x2="4.13" y2="169.56"/>
	<line class="st2" x1="11.43" y1="165.74" x2="8.87" y2="173.38"/>
	<line class="st2" x1="17.83" y1="165.39" x2="15.26" y2="173.04"/>
	<path class="st0" d="M105.5,234.98c0.03,1.45,0.05,9.14-5.4,14.31c-6.24,5.92-15.37,4.47-28.77,2.36
		c-13.66-2.16-23.67-3.76-27.48-11.62c-3.13-6.45-0.18-13.58,0.46-15.13c4.92-11.88,20.36-18.95,34.16-16.67
		C92.13,210.49,105.2,222.07,105.5,234.98z"/>
	<line class="st2" x1="84.92" y1="244.89" x2="83.45" y2="252.81"/>
	<line class="st2" x1="72.35" y1="242.81" x2="70.88" y2="250.74"/>
	<line class="st2" x1="58.7" y1="240.09" x2="57.23" y2="248.01"/>
	<path class="st0" d="M142.45,234.98c-0.03,1.45-0.05,9.14,5.4,14.31c6.24,5.92,15.37,4.47,28.77,2.36
		c13.66-2.16,23.67-3.76,27.48-11.62c3.13-6.45,0.18-13.58-0.46-15.13c-4.92-11.88-20.36-18.95-34.16-16.67
		C155.82,210.49,142.76,222.07,142.45,234.98z"/>
	<line class="st2" x1="163.03" y1="244.89" x2="164.5" y2="252.81"/>
	<line class="st2" x1="175.61" y1="242.81" x2="177.07" y2="250.74"/>
	<line class="st2" x1="189.25" y1="240.09" x2="190.72" y2="248.01"/>
	
		<ellipse transform="matrix(0.8561 -0.5169 0.5169 0.8561 -34.0102 130.427)" class="st0" cx="217.17" cy="126.28" rx="22.21" ry="54.32"/>
	<line class="st2" x1="244.64" y1="161.92" x2="247.2" y2="169.56"/>
	<line class="st2" x1="239.9" y1="165.74" x2="242.46" y2="173.38"/>
	<line class="st2" x1="233.5" y1="165.39" x2="236.07" y2="173.04"/>
</g>
</svg>
