<?xml version="1.0" encoding="utf-8"?>
<!-- Generator: Adobe Illustrator 23.0.1, SVG Export Plug-In . SVG Version: 6.00 Build 0)  -->
<svg version="1.1" id="Layer_1" xmlns="http://www.w3.org/2000/svg" xmlns:xlink="http://www.w3.org/1999/xlink" x="0px" y="0px"
	 viewBox="0 0 3240 324" style="enable-background:new 0 0 3240 324;" xml:space="preserve">
<style type="text/css">
	.st0{fill:#FFFFFF;}
	.st1{fill:#F2F2F2;}
	.st2{fill:none;stroke:#F2F2F2;stroke-miterlimit:10;}
</style>
<g id="polar_x5F_bear_x5F_sad0_x28_0_x29_">
	<g>
		<ellipse class="st0" cx="179.82" cy="159.75" rx="103.5" ry="124"/>
	</g>
	<ellipse class="st1" cx="178.82" cy="137.25" rx="25.5" ry="21.5"/>
	<circle cx="213.82" cy="106.25" r="9.5"/>
	<circle cx="143.82" cy="106.25" r="9.5"/>
	<path d="M187.32,134.75c-0.91,1-3.45,3.81-7.5,4c-4.6,0.22-7.67-3.1-8.5-4c-2.65-2.87-5.32-8.42-3-12c1.94-3,6.35-3,11-3
		s9.06,0,11,3C192.64,126.35,189.88,131.92,187.32,134.75z"/>
	
		<ellipse transform="matrix(0.7071 -0.7071 0.7071 0.7071 -13.3252 97.3243)" class="st0" cx="110.82" cy="64.75" rx="22" ry="21.5"/>
	
		<ellipse transform="matrix(0.7071 -0.7071 0.7071 0.7071 27.6789 196.3183)" class="st0" cx="250.82" cy="64.75" rx="21.5" ry="22"/>
	<g>
		
			<ellipse transform="matrix(0.5159 -0.8566 0.8566 0.5159 -95.1133 153.7255)" class="st0" cx="88.46" cy="161.02" rx="54.32" ry="22.21"/>
		<line class="st2" x1="61.05" y1="196.7" x2="58.49" y2="204.35"/>
		<line class="st2" x1="65.79" y1="200.51" x2="63.24" y2="208.16"/>
		<line class="st2" x1="72.19" y1="200.17" x2="69.63" y2="207.81"/>
	</g>
	<path class="st0" d="M159.82,269.73c0.03,1.45,0.05,9.14-5.4,14.31c-6.24,5.92-15.37,4.47-28.77,2.36
		c-13.66-2.16-23.67-3.76-27.48-11.62c-3.13-6.45-0.18-13.58,0.46-15.13c4.92-11.88,20.36-18.95,34.16-16.67
		C146.45,245.24,159.51,256.82,159.82,269.73z"/>
	<line class="st2" x1="139.24" y1="279.64" x2="137.77" y2="287.57"/>
	<line class="st2" x1="126.66" y1="277.56" x2="125.2" y2="285.49"/>
	<line class="st2" x1="113.02" y1="274.84" x2="111.55" y2="282.77"/>
	<path class="st0" d="M196.77,269.73c-0.03,1.45-0.05,9.14,5.4,14.31c6.24,5.92,15.37,4.47,28.77,2.36
		c13.66-2.16,23.67-3.76,27.48-11.62c3.13-6.45,0.18-13.58-0.46-15.13c-4.92-11.88-20.36-18.95-34.16-16.67
		C210.14,245.24,197.07,256.82,196.77,269.73z"/>
	<line class="st2" x1="217.35" y1="279.64" x2="218.81" y2="287.57"/>
	<line class="st2" x1="229.92" y1="277.56" x2="231.39" y2="285.49"/>
	<line class="st2" x1="243.57" y1="274.84" x2="245.03" y2="282.77"/>
	
		<ellipse transform="matrix(0.8561 -0.5169 0.5169 0.8561 -44.1522 163.5136)" class="st0" cx="271.51" cy="161.03" rx="22.21" ry="54.32"/>
	<line class="st2" x1="294.22" y1="200.49" x2="296.78" y2="208.13"/>
	<line class="st2" x1="287.82" y1="200.15" x2="290.39" y2="207.79"/>
	<g>
		
			<ellipse transform="matrix(0.8566 -0.5159 0.5159 0.8566 -44.1599 163.1294)" class="st0" cx="271.45" cy="161.02" rx="22.21" ry="54.32"/>
		<line class="st2" x1="298.91" y1="196.7" x2="301.47" y2="204.35"/>
		<line class="st2" x1="294.17" y1="200.51" x2="296.73" y2="208.16"/>
		<line class="st2" x1="287.78" y1="200.17" x2="290.33" y2="207.81"/>
	</g>
</g>
<g id="polar_x5F_bear_x5F_sad1_x28_1_x2F_2L_x29_">
	<g>
		<ellipse class="st0" cx="539.82" cy="159.75" rx="103.5" ry="124"/>
	</g>
	<ellipse class="st1" cx="525.82" cy="137.25" rx="25.5" ry="21.5"/>
	<path d="M531.32,134.75c-0.91,1-3.45,3.81-7.5,4c-4.6,0.22-7.67-3.1-8.5-4c-2.65-2.87-5.32-8.42-3-12c1.94-3,6.35-3,11-3
		s9.06,0,11,3C536.64,126.35,533.88,131.92,531.32,134.75z"/>
	
		<ellipse transform="matrix(0.7071 -0.7071 0.7071 0.7071 92.1082 351.876)" class="st0" cx="470.81" cy="64.75" rx="22" ry="21.5"/>
	
		<ellipse transform="matrix(0.7071 -0.7071 0.7071 0.7071 133.1122 450.8698)" class="st0" cx="610.8" cy="64.75" rx="21.5" ry="22"/>
	<g>
		
			<ellipse transform="matrix(0.5159 -0.8566 0.8566 0.5159 79.1285 462.1078)" class="st0" cx="448.44" cy="161.04" rx="54.32" ry="22.21"/>
		<line class="st2" x1="421.05" y1="196.7" x2="418.49" y2="204.35"/>
		<line class="st2" x1="425.79" y1="200.51" x2="423.24" y2="208.16"/>
		<line class="st2" x1="432.19" y1="200.17" x2="429.63" y2="207.81"/>
	</g>
	<path class="st0" d="M519.82,269.73c0.03,1.45,0.05,9.14-5.4,14.31c-6.24,5.92-15.37,4.47-28.77,2.36
		c-13.66-2.16-23.67-3.76-27.48-11.62c-3.13-6.45-0.18-13.58,0.46-15.13c4.92-11.88,20.36-18.95,34.16-16.67
		C506.45,245.24,519.51,256.82,519.82,269.73z"/>
	<line class="st2" x1="499.24" y1="279.64" x2="497.77" y2="287.57"/>
	<line class="st2" x1="486.66" y1="277.56" x2="485.2" y2="285.49"/>
	<line class="st2" x1="473.02" y1="274.84" x2="471.55" y2="282.77"/>
	<path class="st0" d="M556.77,269.73c-0.03,1.45-0.05,9.14,5.4,14.31c6.24,5.92,15.37,4.47,28.77,2.36
		c13.66-2.16,23.67-3.76,27.48-11.62c3.13-6.45,0.18-13.58-0.46-15.13c-4.92-11.88-20.36-18.95-34.16-16.67
		C570.14,245.24,557.07,256.82,556.77,269.73z"/>
	<line class="st2" x1="577.35" y1="279.64" x2="578.81" y2="287.57"/>
	<line class="st2" x1="589.92" y1="277.56" x2="591.39" y2="285.49"/>
	<line class="st2" x1="603.57" y1="274.84" x2="605.03" y2="282.77"/>
	
		<ellipse transform="matrix(0.8561 -0.5169 0.5169 0.8561 7.6737 349.6013)" class="st0" cx="631.53" cy="161.02" rx="22.21" ry="54.32"/>
	<line class="st2" x1="654.22" y1="200.49" x2="656.78" y2="208.13"/>
	<line class="st2" x1="647.82" y1="200.15" x2="650.39" y2="207.79"/>
	<g>
		
			<ellipse transform="matrix(0.8566 -0.5159 0.5159 0.8566 7.4395 348.8515)" class="st0" cx="631.42" cy="161.04" rx="22.21" ry="54.32"/>
		<line class="st2" x1="658.91" y1="196.7" x2="661.47" y2="204.35"/>
		<line class="st2" x1="654.17" y1="200.51" x2="656.73" y2="208.16"/>
		<line class="st2" x1="647.78" y1="200.17" x2="650.33" y2="207.81"/>
	</g>
	<polygon points="482.32,98.75 484.32,94.75 502.32,104.75 502.32,108.75 484.32,116.75 482.32,112.75 496.32,106.75 	"/>
	<polygon points="568.32,98.75 566.32,94.75 548.32,104.75 548.32,108.75 566.32,116.75 568.32,112.75 554.32,106.75 	"/>
</g>
<g id="polar_x5F_bear_x5F_sad2_x28_2_x2F_2L_x29_">
	<g>
		<ellipse class="st0" cx="899.81" cy="159.75" rx="103.5" ry="124"/>
	</g>
	<ellipse class="st1" cx="868.81" cy="137.25" rx="25.5" ry="21.5"/>
	<path d="M873.31,134.75c-0.91,1-3.45,3.81-7.5,4c-4.6,0.22-7.67-3.1-8.5-4c-2.65-2.87-5.32-8.42-3-12c1.94-3,6.35-3,11-3
		s9.06,0,11,3C878.63,126.35,875.87,131.92,873.31,134.75z"/>
	
		<ellipse transform="matrix(0.7071 -0.7071 0.7071 0.7071 197.5485 606.4304)" class="st0" cx="830.8" cy="64.75" rx="22" ry="21.5"/>
	
		<ellipse transform="matrix(0.7071 -0.7071 0.7071 0.7071 238.5455 705.4212)" class="st0" cx="970.79" cy="64.76" rx="21.5" ry="22"/>
	<g>
		
			<ellipse transform="matrix(0.5159 -0.8566 0.8566 0.5159 253.3603 770.4899)" class="st0" cx="808.42" cy="161.07" rx="54.32" ry="22.21"/>
		<line class="st2" x1="781.04" y1="196.7" x2="778.48" y2="204.35"/>
		<line class="st2" x1="785.78" y1="200.51" x2="783.23" y2="208.16"/>
		<line class="st2" x1="792.18" y1="200.17" x2="789.62" y2="207.81"/>
	</g>
	<path class="st0" d="M879.81,269.73c0.03,1.45,0.05,9.14-5.4,14.31c-6.24,5.92-15.37,4.47-28.77,2.36
		c-13.66-2.16-23.67-3.76-27.48-11.62c-3.13-6.45-0.18-13.58,0.46-15.13c4.92-11.88,20.36-18.95,34.16-16.67
		C866.44,245.24,879.5,256.82,879.81,269.73z"/>
	<line class="st2" x1="859.23" y1="279.64" x2="857.76" y2="287.57"/>
	<line class="st2" x1="846.65" y1="277.56" x2="845.19" y2="285.49"/>
	<line class="st2" x1="833.01" y1="274.84" x2="831.54" y2="282.77"/>
	<path class="st0" d="M916.76,269.73c-0.03,1.45-0.05,9.14,5.4,14.31c6.24,5.92,15.37,4.47,28.77,2.36
		c13.66-2.16,23.67-3.76,27.48-11.62c3.13-6.45,0.18-13.58-0.46-15.13c-4.92-11.88-20.36-18.95-34.16-16.67
		C930.13,245.24,917.06,256.82,916.76,269.73z"/>
	<line class="st2" x1="937.34" y1="279.64" x2="938.8" y2="287.57"/>
	<line class="st2" x1="949.91" y1="277.56" x2="951.38" y2="285.49"/>
	<line class="st2" x1="963.56" y1="274.84" x2="965.02" y2="282.77"/>
	
		<ellipse transform="matrix(0.8561 -0.5169 0.5169 0.8561 59.5072 535.6889)" class="st0" cx="991.56" cy="161" rx="22.21" ry="54.32"/>
	<line class="st2" x1="1014.21" y1="200.49" x2="1016.77" y2="208.13"/>
	<line class="st2" x1="1007.81" y1="200.15" x2="1010.38" y2="207.79"/>
	<g>
		
			<ellipse transform="matrix(0.8566 -0.5159 0.5159 0.8566 59.0388 534.5735)" class="st0" cx="991.4" cy="161.06" rx="22.21" ry="54.32"/>
		<line class="st2" x1="1018.9" y1="196.7" x2="1021.46" y2="204.35"/>
		<line class="st2" x1="1014.16" y1="200.51" x2="1016.72" y2="208.16"/>
		<line class="st2" x1="1007.77" y1="200.17" x2="1010.32" y2="207.81"/>
	</g>
	<polygon points="832.31,98.75 834.31,94.75 852.31,104.75 852.31,108.75 834.31,116.75 832.31,112.75 846.31,106.75 	"/>
	<polygon points="912.31,98.75 910.31,94.75 892.31,104.75 892.31,108.75 910.31,116.75 912.31,112.75 898.31,106.75 	"/>
</g>
<g id="polar_x5F_bear_x5F_sad3_x28_1_x2F_2L_x29_">
	<g>
		<ellipse class="st0" cx="1259.81" cy="159.75" rx="103.5" ry="124"/>
	</g>
	<ellipse class="st1" cx="1245.81" cy="137.25" rx="25.5" ry="21.5"/>
	<path d="M1251.31,134.75c-0.91,1-3.45,3.81-7.5,4c-4.6,0.22-7.67-3.1-8.5-4c-2.65-2.87-5.32-8.42-3-12c1.94-3,6.35-3,11-3
		s9.06,0,11,3C1256.63,126.35,1253.87,131.92,1251.31,134.75z"/>
	
		<ellipse transform="matrix(0.7071 -0.7071 0.7071 0.7071 302.9789 860.9888)" class="st0" cx="1190.79" cy="64.77" rx="22" ry="21.5"/>
	
		<ellipse transform="matrix(0.7071 -0.7071 0.7071 0.7071 343.983 959.9826)" class="st0" cx="1330.79" cy="64.77" rx="21.5" ry="22"/>
	<g>
		
			<ellipse transform="matrix(0.5159 -0.8566 0.8566 0.5159 427.6021 1078.8724)" class="st0" cx="1168.4" cy="161.09" rx="54.32" ry="22.21"/>
		<line class="st2" x1="1141.04" y1="196.7" x2="1138.48" y2="204.35"/>
		<line class="st2" x1="1145.78" y1="200.51" x2="1143.23" y2="208.16"/>
		<line class="st2" x1="1152.18" y1="200.17" x2="1149.62" y2="207.81"/>
	</g>
	<path class="st0" d="M1239.81,269.73c0.03,1.45,0.05,9.14-5.4,14.31c-6.24,5.92-15.37,4.47-28.77,2.36
		c-13.66-2.16-23.67-3.76-27.48-11.62c-3.13-6.45-0.18-13.58,0.46-15.13c4.92-11.88,20.36-18.95,34.16-16.67
		C1226.44,245.24,1239.5,256.82,1239.81,269.73z"/>
	<line class="st2" x1="1219.23" y1="279.64" x2="1217.76" y2="287.57"/>
	<line class="st2" x1="1206.65" y1="277.56" x2="1205.19" y2="285.49"/>
	<line class="st2" x1="1193.01" y1="274.84" x2="1191.54" y2="282.77"/>
	<path class="st0" d="M1276.76,269.73c-0.03,1.45-0.05,9.14,5.4,14.31c6.24,5.92,15.37,4.47,28.77,2.36
		c13.66-2.16,23.67-3.76,27.48-11.62c3.13-6.45,0.18-13.58-0.46-15.13c-4.92-11.88-20.36-18.95-34.16-16.67
		C1290.13,245.24,1277.06,256.82,1276.76,269.73z"/>
	<line class="st2" x1="1297.34" y1="279.64" x2="1298.8" y2="287.57"/>
	<line class="st2" x1="1309.91" y1="277.56" x2="1311.38" y2="285.49"/>
	<line class="st2" x1="1323.56" y1="274.84" x2="1325.02" y2="282.77"/>
	
		<ellipse transform="matrix(0.8561 -0.5169 0.5169 0.8561 111.3331 721.7767)" class="st0" cx="1351.59" cy="160.99" rx="22.21" ry="54.32"/>
	<line class="st2" x1="1374.21" y1="200.49" x2="1376.77" y2="208.13"/>
	<line class="st2" x1="1367.81" y1="200.15" x2="1370.38" y2="207.79"/>
	<g>
		
			<ellipse transform="matrix(0.8566 -0.5159 0.5159 0.8566 110.6382 720.2957)" class="st0" cx="1351.38" cy="161.07" rx="22.21" ry="54.32"/>
		<line class="st2" x1="1378.9" y1="196.7" x2="1381.46" y2="204.35"/>
		<line class="st2" x1="1374.16" y1="200.51" x2="1376.72" y2="208.16"/>
		<line class="st2" x1="1367.77" y1="200.17" x2="1370.32" y2="207.81"/>
	</g>
	<polygon points="1202.31,98.75 1204.31,94.75 1222.31,104.75 1222.31,108.75 1204.31,116.75 1202.31,112.75 1216.31,106.75 	"/>
	<polygon points="1288.31,98.75 1286.31,94.75 1268.31,104.75 1268.31,108.75 1286.31,116.75 1288.31,112.75 1274.31,106.75 	"/>
</g>
<g id="polar_x5F_bear_x5F_sad4_x28_1_x29_">
	<g>
		<ellipse class="st0" cx="1619.82" cy="159.75" rx="103.5" ry="124"/>
	</g>
	<ellipse class="st1" cx="1618.82" cy="137.25" rx="25.5" ry="21.5"/>
	<path d="M1627.32,134.75c-0.91,1-3.45,3.81-7.5,4c-4.6,0.22-7.67-3.1-8.5-4c-2.65-2.87-5.32-8.42-3-12c1.94-3,6.35-3,11-3
		s9.06,0,11,3C1632.64,126.35,1629.88,131.92,1627.32,134.75z"/>
	
		<ellipse transform="matrix(0.7071 -0.7071 0.7071 0.7071 408.4211 1115.5513)" class="st0" cx="1550.8" cy="64.77" rx="22" ry="21.5"/>
	
		<ellipse transform="matrix(0.7071 -0.7071 0.7071 0.7071 449.4253 1214.545)" class="st0" cx="1690.8" cy="64.77" rx="21.5" ry="22"/>
	<g>
		
			<ellipse transform="matrix(0.5159 -0.8566 0.8566 0.5159 601.8475 1387.2653)" class="st0" cx="1528.39" cy="161.11" rx="54.32" ry="22.21"/>
		<line class="st2" x1="1501.05" y1="196.7" x2="1498.49" y2="204.35"/>
		<line class="st2" x1="1505.79" y1="200.51" x2="1503.24" y2="208.16"/>
		<line class="st2" x1="1512.19" y1="200.17" x2="1509.63" y2="207.81"/>
	</g>
	<path class="st0" d="M1599.82,269.73c0.03,1.45,0.05,9.14-5.4,14.31c-6.24,5.92-15.37,4.47-28.77,2.36
		c-13.66-2.16-23.67-3.76-27.48-11.62c-3.13-6.45-0.18-13.58,0.46-15.13c4.92-11.88,20.36-18.95,34.16-16.67
		C1586.45,245.24,1599.51,256.82,1599.82,269.73z"/>
	<line class="st2" x1="1579.24" y1="279.64" x2="1577.77" y2="287.57"/>
	<line class="st2" x1="1566.66" y1="277.56" x2="1565.2" y2="285.49"/>
	<line class="st2" x1="1553.02" y1="274.84" x2="1551.55" y2="282.77"/>
	<path class="st0" d="M1636.77,269.73c-0.03,1.45-0.05,9.14,5.4,14.31c6.24,5.92,15.37,4.47,28.77,2.36
		c13.66-2.16,23.67-3.76,27.48-11.62c3.13-6.45,0.18-13.58-0.46-15.13c-4.92-11.88-20.36-18.95-34.16-16.67
		C1650.14,245.24,1637.07,256.82,1636.77,269.73z"/>
	<line class="st2" x1="1657.35" y1="279.64" x2="1658.81" y2="287.57"/>
	<line class="st2" x1="1669.92" y1="277.56" x2="1671.39" y2="285.49"/>
	<line class="st2" x1="1683.57" y1="274.84" x2="1685.03" y2="282.77"/>
	
		<ellipse transform="matrix(0.8561 -0.5169 0.5169 0.8561 163.1637 907.8737)" class="st0" cx="1711.63" cy="160.98" rx="22.21" ry="54.32"/>
	<line class="st2" x1="1734.22" y1="200.49" x2="1736.78" y2="208.13"/>
	<line class="st2" x1="1727.82" y1="200.15" x2="1730.39" y2="207.79"/>
	<g>
		
			<ellipse transform="matrix(0.8566 -0.5159 0.5159 0.8566 162.2383 906.0233)" class="st0" cx="1711.36" cy="161.09" rx="22.21" ry="54.32"/>
		<line class="st2" x1="1738.91" y1="196.7" x2="1741.47" y2="204.35"/>
		<line class="st2" x1="1734.17" y1="200.51" x2="1736.73" y2="208.16"/>
		<line class="st2" x1="1727.78" y1="200.17" x2="1730.33" y2="207.81"/>
	</g>
	<polygon points="1573.32,98.75 1575.32,94.75 1593.32,104.75 1593.32,108.75 1575.32,116.75 1573.32,112.75 1587.32,106.75 	"/>
	<polygon points="1664.32,98.75 1662.32,94.75 1644.32,104.75 1644.32,108.75 1662.32,116.75 1664.32,112.75 1650.32,106.75 	"/>
</g>
<g id="polar_x5F_bear_x5F_sad5_x28_1_x2F_2R_x29_">
	<g>
		<ellipse class="st0" cx="1980.22" cy="159.75" rx="103.5" ry="124"/>
	</g>
	<ellipse class="st1" cx="1994.22" cy="137.25" rx="25.5" ry="21.5"/>
	<path d="M1988.72,134.75c0.91,1,3.45,3.81,7.5,4c4.6,0.22,7.67-3.1,8.5-4c2.65-2.87,5.32-8.42,3-12c-1.94-3-6.35-3-11-3
		s-9.06,0-11,3C1983.4,126.35,1986.16,131.92,1988.72,134.75z"/>
	
		<ellipse transform="matrix(0.7071 -0.7071 0.7071 0.7071 554.392 1467.9695)" class="st0" cx="2049.19" cy="64.77" rx="21.5" ry="22"/>
	
		<ellipse transform="matrix(0.7071 -0.7071 0.7071 0.7071 513.3879 1368.9757)" class="st0" cx="1909.19" cy="64.77" rx="22" ry="21.5"/>
	<g>
		
			<ellipse transform="matrix(0.8566 -0.5159 0.5159 0.8566 213.8481 1091.788)" class="st0" cx="2071.42" cy="161.11" rx="22.21" ry="54.32"/>
		<line class="st2" x1="2098.99" y1="196.7" x2="2101.55" y2="204.35"/>
		<line class="st2" x1="2094.25" y1="200.51" x2="2096.8" y2="208.16"/>
		<line class="st2" x1="2087.85" y1="200.17" x2="2090.41" y2="207.81"/>
	</g>
	<path class="st0" d="M2000.22,269.73c-0.03,1.45-0.05,9.14,5.4,14.31c6.24,5.92,15.37,4.47,28.77,2.36
		c13.66-2.16,23.67-3.76,27.48-11.62c3.13-6.45,0.18-13.58-0.46-15.13c-4.92-11.88-20.36-18.95-34.16-16.67
		C2013.59,245.24,2000.53,256.82,2000.22,269.73z"/>
	<line class="st2" x1="2020.8" y1="279.64" x2="2022.27" y2="287.57"/>
	<line class="st2" x1="2033.38" y1="277.56" x2="2034.84" y2="285.49"/>
	<line class="st2" x1="2047.02" y1="274.84" x2="2048.49" y2="282.77"/>
	<path class="st0" d="M1963.27,269.73c0.03,1.45,0.05,9.14-5.4,14.31c-6.24,5.92-15.37,4.47-28.77,2.36
		c-13.66-2.16-23.67-3.76-27.48-11.62c-3.13-6.45-0.18-13.58,0.46-15.13c4.92-11.88,20.36-18.95,34.16-16.67
		C1949.9,245.24,1962.97,256.82,1963.27,269.73z"/>
	<line class="st2" x1="1942.69" y1="279.64" x2="1941.23" y2="287.57"/>
	<line class="st2" x1="1930.12" y1="277.56" x2="1928.65" y2="285.49"/>
	<line class="st2" x1="1916.47" y1="274.84" x2="1915.01" y2="282.77"/>
	
		<ellipse transform="matrix(0.5169 -0.8561 0.8561 0.5169 774.7323 1694.5026)" class="st0" cx="1888.63" cy="160.87" rx="54.32" ry="22.21"/>
	<line class="st2" x1="1865.82" y1="200.49" x2="1863.26" y2="208.13"/>
	<line class="st2" x1="1872.22" y1="200.15" x2="1869.65" y2="207.79"/>
	<g>
		
			<ellipse transform="matrix(0.5159 -0.8566 0.8566 0.5159 776.1285 1695.7212)" class="st0" cx="1888.46" cy="161.13" rx="54.32" ry="22.21"/>
		<line class="st2" x1="1861.13" y1="196.7" x2="1858.57" y2="204.35"/>
		<line class="st2" x1="1865.87" y1="200.51" x2="1863.31" y2="208.16"/>
		<line class="st2" x1="1872.26" y1="200.17" x2="1869.71" y2="207.81"/>
	</g>
	<polygon points="2037.72,98.75 2035.72,94.75 2017.72,104.75 2017.72,108.75 2035.72,116.75 2037.72,112.75 2023.72,106.75 	"/>
	<polygon points="1951.72,98.75 1953.72,94.75 1971.72,104.75 1971.72,108.75 1953.72,116.75 1951.72,112.75 1965.72,106.75 	"/>
</g>
<g id="polar_x5F_bear_x5F_sad6_x28_2_x2F_2R_x29_">
	<g>
		<ellipse class="st0" cx="2340.23" cy="159.75" rx="103.5" ry="124"/>
	</g>
	<ellipse class="st1" cx="2371.23" cy="137.25" rx="25.5" ry="21.5"/>
	<path d="M2366.73,134.75c0.91,1,3.45,3.81,7.5,4c4.6,0.22,7.67-3.1,8.5-4c2.65-2.87,5.32-8.42,3-12c-1.94-3-6.35-3-11-3
		s-9.06,0-11,3C2361.41,126.35,2364.17,131.92,2366.73,134.75z"/>
	
		<ellipse transform="matrix(0.7071 -0.7071 0.7071 0.7071 659.8311 1722.5391)" class="st0" cx="2409.2" cy="64.78" rx="21.5" ry="22"/>
	
		<ellipse transform="matrix(0.7071 -0.7071 0.7071 0.7071 618.8484 1623.4977)" class="st0" cx="2269.16" cy="64.73" rx="22" ry="21.5"/>
	<g>
		
			<ellipse transform="matrix(0.8566 -0.5159 0.5159 0.8566 265.4482 1277.5156)" class="st0" cx="2431.41" cy="161.13" rx="22.21" ry="54.32"/>
		<line class="st2" x1="2459" y1="196.7" x2="2461.56" y2="204.35"/>
		<line class="st2" x1="2454.26" y1="200.51" x2="2456.81" y2="208.16"/>
		<line class="st2" x1="2447.86" y1="200.17" x2="2450.42" y2="207.81"/>
	</g>
	<path class="st0" d="M2360.23,269.73c-0.03,1.45-0.05,9.14,5.4,14.31c6.24,5.92,15.37,4.47,28.76,2.36
		c13.66-2.16,23.67-3.76,27.48-11.62c3.13-6.45,0.18-13.58-0.46-15.13c-4.92-11.88-20.36-18.95-34.16-16.67
		C2373.6,245.24,2360.54,256.82,2360.23,269.73z"/>
	<line class="st2" x1="2380.81" y1="279.64" x2="2382.28" y2="287.57"/>
	<line class="st2" x1="2393.39" y1="277.56" x2="2394.85" y2="285.49"/>
	<line class="st2" x1="2407.03" y1="274.84" x2="2408.5" y2="282.77"/>
	<path class="st0" d="M2323.28,269.73c0.03,1.45,0.05,9.14-5.4,14.31c-6.24,5.92-15.37,4.47-28.76,2.36
		c-13.66-2.16-23.67-3.76-27.48-11.62c-3.13-6.45-0.18-13.58,0.46-15.13c4.92-11.88,20.36-18.95,34.16-16.67
		C2309.91,245.24,2322.98,256.82,2323.28,269.73z"/>
	<line class="st2" x1="2302.7" y1="279.64" x2="2301.24" y2="287.57"/>
	<line class="st2" x1="2290.13" y1="277.56" x2="2288.66" y2="285.49"/>
	<line class="st2" x1="2276.48" y1="274.84" x2="2275.02" y2="282.77"/>
	
		<ellipse transform="matrix(0.5169 -0.8561 0.8561 0.5169 948.6909 2002.6831)" class="st0" cx="2248.65" cy="160.84" rx="54.32" ry="22.21"/>
	<line class="st2" x1="2225.83" y1="200.49" x2="2223.27" y2="208.13"/>
	<line class="st2" x1="2232.23" y1="200.15" x2="2229.66" y2="207.79"/>
	<g>
		
			<ellipse transform="matrix(0.5159 -0.8566 0.8566 0.5159 950.3737 2004.1139)" class="st0" cx="2248.45" cy="161.16" rx="54.32" ry="22.21"/>
		<line class="st2" x1="2221.14" y1="196.7" x2="2218.58" y2="204.35"/>
		<line class="st2" x1="2225.88" y1="200.51" x2="2223.32" y2="208.16"/>
		<line class="st2" x1="2232.27" y1="200.17" x2="2229.72" y2="207.81"/>
	</g>
	<polygon points="2407.73,98.75 2405.73,94.75 2387.73,104.75 2387.73,108.75 2405.73,116.75 2407.73,112.75 2393.73,106.75 	"/>
	<polygon points="2327.73,98.75 2329.73,94.75 2347.73,104.75 2347.73,108.75 2329.73,116.75 2327.73,112.75 2341.73,106.75 	"/>
</g>
<g id="polar_x5F_bear_x5F_sad7_x28_1_x2F_2R_x29_">
	<g>
		<ellipse class="st0" cx="2700.24" cy="159.75" rx="103.5" ry="124"/>
	</g>
	<ellipse class="st1" cx="2714.24" cy="137.25" rx="25.5" ry="21.5"/>
	<path d="M2708.74,134.75c0.91,1,3.45,3.81,7.5,4c4.6,0.22,7.67-3.1,8.5-4c2.65-2.87,5.32-8.42,3-12c-1.94-3-6.35-3-11-3
		s-9.06,0-11,3C2703.42,126.35,2706.18,131.92,2708.74,134.75z"/>
	
		<ellipse transform="matrix(0.7071 -0.7071 0.7071 0.7071 765.2661 1977.0989)" class="st0" cx="2769.2" cy="64.79" rx="21.5" ry="22"/>
	
		<ellipse transform="matrix(0.7071 -0.7071 0.7071 0.7071 724.2691 1878.108)" class="st0" cx="2629.21" cy="64.78" rx="22" ry="21.5"/>
	<g>
		
			<ellipse transform="matrix(0.8566 -0.5159 0.5159 0.8566 317.0482 1463.2433)" class="st0" cx="2791.4" cy="161.14" rx="22.21" ry="54.32"/>
		<line class="st2" x1="2819.01" y1="196.7" x2="2821.57" y2="204.35"/>
		<line class="st2" x1="2814.27" y1="200.51" x2="2816.82" y2="208.16"/>
		<line class="st2" x1="2807.87" y1="200.17" x2="2810.43" y2="207.81"/>
	</g>
	<path class="st0" d="M2720.24,269.73c-0.03,1.45-0.05,9.14,5.4,14.31c6.24,5.92,15.37,4.47,28.76,2.36
		c13.66-2.16,23.67-3.76,27.48-11.62c3.13-6.45,0.18-13.58-0.46-15.13c-4.92-11.88-20.36-18.95-34.16-16.67
		C2733.61,245.24,2720.55,256.82,2720.24,269.73z"/>
	<line class="st2" x1="2740.82" y1="279.64" x2="2742.29" y2="287.57"/>
	<line class="st2" x1="2753.4" y1="277.56" x2="2754.86" y2="285.49"/>
	<line class="st2" x1="2767.04" y1="274.84" x2="2768.51" y2="282.77"/>
	<path class="st0" d="M2683.29,269.73c0.03,1.45,0.05,9.14-5.4,14.31c-6.24,5.92-15.37,4.47-28.76,2.36
		c-13.66-2.16-23.67-3.76-27.48-11.62c-3.13-6.45-0.18-13.58,0.46-15.13c4.92-11.88,20.36-18.95,34.16-16.67
		C2669.92,245.24,2682.99,256.82,2683.29,269.73z"/>
	<line class="st2" x1="2662.71" y1="279.64" x2="2661.25" y2="287.57"/>
	<line class="st2" x1="2650.14" y1="277.56" x2="2648.67" y2="285.49"/>
	<line class="st2" x1="2636.49" y1="274.84" x2="2635.03" y2="282.77"/>
	
		<ellipse transform="matrix(0.5169 -0.8561 0.8561 0.5169 1122.6492 2310.8748)" class="st0" cx="2608.67" cy="160.81" rx="54.32" ry="22.21"/>
	<line class="st2" x1="2585.84" y1="200.49" x2="2583.28" y2="208.13"/>
	<line class="st2" x1="2592.24" y1="200.15" x2="2589.67" y2="207.79"/>
	<g>
		
			<ellipse transform="matrix(0.5159 -0.8566 0.8566 0.5159 1124.6187 2312.5078)" class="st0" cx="2608.44" cy="161.18" rx="54.32" ry="22.21"/>
		<line class="st2" x1="2581.15" y1="196.7" x2="2578.59" y2="204.35"/>
		<line class="st2" x1="2585.89" y1="200.51" x2="2583.33" y2="208.16"/>
		<line class="st2" x1="2592.28" y1="200.17" x2="2589.73" y2="207.81"/>
	</g>
	<polygon points="2757.74,98.75 2755.74,94.75 2737.74,104.75 2737.74,108.75 2755.74,116.75 2757.74,112.75 2743.74,106.75 	"/>
	<polygon points="2671.74,98.75 2673.74,94.75 2691.74,104.75 2691.74,108.75 2673.74,116.75 2671.74,112.75 2685.74,106.75 	"/>
</g>
<g id="polar_x5F_bear_x5F_sad8_x28_0_x29_">
	<g>
		<ellipse class="st0" cx="3059.8" cy="159.75" rx="103.5" ry="124"/>
	</g>
	<ellipse class="st1" cx="3058.8" cy="137.25" rx="25.5" ry="21.5"/>
	<circle cx="3093.8" cy="106.25" r="9.5"/>
	<circle cx="3023.8" cy="106.25" r="9.5"/>
	<path d="M3067.3,134.75c-0.91,1-3.45,3.81-7.5,4c-4.6,0.22-7.67-3.1-8.5-4c-2.65-2.87-5.32-8.42-3-12c1.94-3,6.35-3,11-3
		s9.06,0,11,3C3072.62,126.35,3069.86,131.92,3067.3,134.75z"/>
	
		<ellipse transform="matrix(0.7071 -0.7071 0.7071 0.7071 830.1566 2133.7588)" class="st0" cx="2990.75" cy="64.79" rx="22" ry="21.5"/>
	
		<ellipse transform="matrix(0.7071 -0.7071 0.7071 0.7071 871.1606 2232.7527)" class="st0" cx="3130.75" cy="64.79" rx="21.5" ry="22"/>
	<g>
		
			<ellipse transform="matrix(0.5159 -0.8566 0.8566 0.5159 1298.8007 2620.7837)" class="st0" cx="2968.3" cy="161.2" rx="54.32" ry="22.21"/>
		<line class="st2" x1="2941.03" y1="196.7" x2="2938.47" y2="204.35"/>
		<line class="st2" x1="2945.77" y1="200.51" x2="2943.22" y2="208.16"/>
		<line class="st2" x1="2952.17" y1="200.17" x2="2949.61" y2="207.81"/>
	</g>
	<path class="st0" d="M3039.8,269.73c0.03,1.45,0.05,9.14-5.4,14.31c-6.24,5.92-15.37,4.47-28.76,2.36
		c-13.66-2.16-23.67-3.76-27.48-11.62c-3.13-6.45-0.18-13.58,0.46-15.13c4.92-11.88,20.36-18.95,34.16-16.67
		C3026.43,245.24,3039.49,256.82,3039.8,269.73z"/>
	<line class="st2" x1="3019.22" y1="279.64" x2="3017.75" y2="287.57"/>
	<line class="st2" x1="3006.64" y1="277.56" x2="3005.18" y2="285.49"/>
	<line class="st2" x1="2993" y1="274.84" x2="2991.53" y2="282.77"/>
	<path class="st0" d="M3076.75,269.73c-0.03,1.45-0.05,9.14,5.4,14.31c6.24,5.92,15.37,4.47,28.76,2.36
		c13.66-2.16,23.67-3.76,27.48-11.62c3.13-6.45,0.18-13.58-0.46-15.13c-4.92-11.88-20.36-18.95-34.16-16.67
		C3090.12,245.24,3077.05,256.82,3076.75,269.73z"/>
	<line class="st2" x1="3097.33" y1="279.64" x2="3098.79" y2="287.57"/>
	<line class="st2" x1="3109.9" y1="277.56" x2="3111.37" y2="285.49"/>
	<line class="st2" x1="3123.55" y1="274.84" x2="3125.01" y2="282.77"/>
	
		<ellipse transform="matrix(0.8561 -0.5169 0.5169 0.8561 370.474 1652.2189)" class="st0" cx="3151.73" cy="160.94" rx="22.21" ry="54.32"/>
	<line class="st2" x1="3174.2" y1="200.49" x2="3176.76" y2="208.13"/>
	<line class="st2" x1="3167.8" y1="200.15" x2="3170.37" y2="207.79"/>
	<g>
		
			<ellipse transform="matrix(0.8566 -0.5159 0.5159 0.8566 368.6272 1648.8988)" class="st0" cx="3151.24" cy="161.16" rx="22.21" ry="54.32"/>
		<line class="st2" x1="3178.89" y1="196.7" x2="3181.45" y2="204.35"/>
		<line class="st2" x1="3174.15" y1="200.51" x2="3176.71" y2="208.16"/>
		<line class="st2" x1="3167.76" y1="200.17" x2="3170.31" y2="207.81"/>
	</g>
</g>
</svg>
