<?xml version="1.0" encoding="utf-8"?>
<!-- Generator: Adobe Illustrator 23.0.1, SVG Export Plug-In . SVG Version: 6.00 Build 0)  -->
<svg version="1.1" id="Layer_1" xmlns="http://www.w3.org/2000/svg" xmlns:xlink="http://www.w3.org/1999/xlink" x="0px" y="0px"
	 viewBox="0 0 241 210" style="enable-background:new 0 0 241 210;" xml:space="preserve">
<style type="text/css">
	.st0{fill:none;stroke:#FFFFFF;stroke-miterlimit:10;}
	.st1{fill:#FFFFFF;}
</style>
<g>
	<line class="st0" x1="61.56" y1="151.13" x2="66.87" y2="156.13"/>
	<line class="st0" x1="72.82" y1="151.13" x2="67.51" y2="156.13"/>
	<line class="st0" x1="77.12" y1="154.41" x2="76.02" y2="161.71"/>
	<line class="st0" x1="83.39" y1="163.98" x2="76.38" y2="162.25"/>
	<line class="st0" x1="83.98" y1="170.29" x2="77.11" y2="172.55"/>
	<line class="st0" x1="78.42" y1="180.31" x2="76.8" y2="173.11"/>
	<line class="st0" x1="72.74" y1="183.25" x2="67.58" y2="178.1"/>
	<line class="st0" x1="61.5" y1="182.92" x2="66.94" y2="178.08"/>
	<line class="st0" x1="56.03" y1="179.87" x2="57.57" y2="172.65"/>
	<line class="st0" x1="50.35" y1="169.92" x2="57.25" y2="172.09"/>
	<line class="st0" x1="51.1" y1="163.73" x2="58.05" y2="161.75"/>
	<line class="st0" x1="57.04" y1="153.94" x2="58.39" y2="161.19"/>
	<line class="st0" x1="67.08" y1="147" x2="67.08" y2="187"/>
	<line class="st0" x1="84" y1="157" x2="50.17" y2="177"/>
	<line class="st0" x1="50.17" y1="157" x2="84" y2="177"/>
	<ellipse class="st1" cx="169.09" cy="67.89" rx="35.37" ry="42.99"/>
	<ellipse class="st1" cx="50.53" cy="79.14" rx="50.53" ry="35.75"/>
	<ellipse class="st1" cx="91.74" cy="84.36" rx="45.87" ry="54.64"/>
	<ellipse class="st1" cx="116.61" cy="36.96" rx="40.43" ry="36.96"/>
	<ellipse class="st1" cx="185.41" cy="87.18" rx="55.59" ry="38.97"/>
	<ellipse class="st1" cx="72.69" cy="37.36" rx="21.38" ry="22.1"/>
	<ellipse class="st1" cx="136.05" cy="97.62" rx="28.76" ry="33.34"/>
	<line class="st0" x1="104.79" y1="130.48" x2="107.92" y2="133.48"/>
	<line class="st0" x1="111.42" y1="130.48" x2="108.29" y2="133.48"/>
	<line class="st0" x1="113.95" y1="132.45" x2="113.31" y2="136.83"/>
	<line class="st0" x1="117.64" y1="138.19" x2="113.51" y2="137.15"/>
	<line class="st0" x1="117.99" y1="141.98" x2="113.95" y2="143.33"/>
	<line class="st0" x1="114.72" y1="147.99" x2="113.76" y2="143.67"/>
	<line class="st0" x1="111.37" y1="149.75" x2="108.33" y2="146.66"/>
	<line class="st0" x1="104.75" y1="149.55" x2="107.96" y2="146.65"/>
	<line class="st0" x1="101.54" y1="147.72" x2="102.44" y2="143.39"/>
	<line class="st0" x1="98.19" y1="141.75" x2="102.25" y2="143.05"/>
	<line class="st0" x1="98.64" y1="138.04" x2="102.73" y2="136.85"/>
	<line class="st0" x1="102.13" y1="132.16" x2="102.92" y2="136.52"/>
	<line class="st0" x1="108.04" y1="128" x2="108.04" y2="152"/>
	<line class="st0" x1="118" y1="134" x2="98.08" y2="146"/>
	<line class="st0" x1="98.08" y1="134" x2="118" y2="146"/>
	<line class="st0" x1="125.25" y1="167.85" x2="131.34" y2="173.73"/>
	<line class="st0" x1="138.16" y1="167.85" x2="132.07" y2="173.73"/>
	<line class="st0" x1="143.11" y1="171.71" x2="141.85" y2="180.28"/>
	<line class="st0" x1="150.3" y1="182.95" x2="142.25" y2="180.92"/>
	<line class="st0" x1="150.98" y1="190.37" x2="143.1" y2="193.02"/>
	<line class="st0" x1="144.6" y1="202.14" x2="142.74" y2="193.68"/>
	<line class="st0" x1="138.08" y1="205.59" x2="132.15" y2="199.54"/>
	<line class="st0" x1="125.17" y1="205.21" x2="131.42" y2="199.52"/>
	<line class="st0" x1="118.9" y1="201.62" x2="120.66" y2="193.14"/>
	<line class="st0" x1="112.38" y1="189.93" x2="120.29" y2="192.48"/>
	<line class="st0" x1="113.24" y1="182.65" x2="121.22" y2="180.33"/>
	<line class="st0" x1="120.06" y1="171.15" x2="121.61" y2="179.68"/>
	<line class="st0" x1="131.58" y1="163" x2="131.58" y2="210"/>
	<line class="st0" x1="151" y1="174.75" x2="112.17" y2="198.25"/>
	<line class="st0" x1="112.17" y1="174.75" x2="151" y2="198.25"/>
	<line class="st0" x1="166.43" y1="129.2" x2="170.82" y2="133.08"/>
	<line class="st0" x1="175.74" y1="129.2" x2="171.35" y2="133.08"/>
	<line class="st0" x1="179.31" y1="131.74" x2="178.4" y2="137.4"/>
	<line class="st0" x1="184.5" y1="139.16" x2="178.69" y2="137.82"/>
	<line class="st0" x1="184.99" y1="144.05" x2="179.3" y2="145.8"/>
	<line class="st0" x1="180.38" y1="151.81" x2="179.04" y2="146.24"/>
	<line class="st0" x1="175.69" y1="154.09" x2="171.41" y2="150.1"/>
	<line class="st0" x1="166.38" y1="153.84" x2="170.88" y2="150.09"/>
	<line class="st0" x1="161.86" y1="151.47" x2="163.13" y2="145.88"/>
	<line class="st0" x1="157.15" y1="143.76" x2="162.86" y2="145.44"/>
	<line class="st0" x1="157.78" y1="138.96" x2="163.53" y2="137.43"/>
	<line class="st0" x1="162.69" y1="131.38" x2="163.81" y2="137"/>
	<line class="st0" x1="171" y1="126" x2="171" y2="157"/>
	<line class="st0" x1="185" y1="133.75" x2="157" y2="149.25"/>
	<line class="st0" x1="157" y1="133.75" x2="185" y2="149.25"/>
</g>
</svg>
