<?xml version="1.0" encoding="utf-8"?>
<!-- Generator: Adobe Illustrator 23.0.1, SVG Export Plug-In . SVG Version: 6.00 Build 0)  -->
<svg version="1.1" id="Layer_1" xmlns="http://www.w3.org/2000/svg" xmlns:xlink="http://www.w3.org/1999/xlink" x="0px" y="0px"
	 viewBox="0 0 240.37 240.37" style="enable-background:new 0 0 240.37 240.37;" xml:space="preserve">
<style type="text/css">
	.st0{fill:#FBC53B;}
</style>
<g>
	<circle class="st0" cx="120.49" cy="119.88" r="77.5"/>
	<path class="st0" d="M103.99,31.38L120.32,0l15.67,31.38c-3.36-1.3-8.93-3-16-3C116.39,28.38,110.58,28.82,103.99,31.38z"/>
	<path class="st0" d="M136.38,208.87l-16.08,31.5l-15.92-31.25c3.37,1.28,8.96,2.93,16.02,2.87
		C124.01,211.97,129.82,211.48,136.38,208.87z"/>
	<path class="st0" d="M31.33,136.16L0,119.76l31.41-15.59c-1.31,3.35-3.02,8.93-3.04,15.99C28.37,123.76,28.79,129.57,31.33,136.16z
		"/>
	<path class="st0" d="M208.91,104.21l31.46,16.15l-31.29,15.85c1.29-3.36,2.95-8.95,2.91-16.02
		C211.98,116.59,211.5,110.78,208.91,104.21z"/>
	<path class="st0" d="M150.69,35.22l29.86-18.97l-2.17,35c-2.25-2.81-6.23-7.07-12.34-10.62C162.92,38.84,157.67,36.31,150.69,35.22
		z"/>
	<path class="st0" d="M89.75,205.04l-29.7,19.2l1.89-35.02c2.27,2.79,6.28,7.02,12.43,10.52C77.49,201.52,82.76,204.01,89.75,205.04
		z"/>
	<path class="st0" d="M35.29,89.48L16.4,59.58l35,2.25c-2.82,2.24-7.09,6.21-10.65,12.31C38.94,77.25,36.4,82.5,35.29,89.48z"/>
	<path class="st0" d="M204.96,150.84l19.13,29.75l-35.02-1.97c2.8-2.27,7.04-6.27,10.55-12.4
		C201.41,163.09,203.92,157.82,204.96,150.84z"/>
	<path class="st0" d="M188.39,61.04l35.32-1.91l-19.03,29.46c-0.59-3.55-1.97-9.22-5.56-15.3
		C197.29,70.19,193.95,65.41,188.39,61.04z"/>
	<path class="st0" d="M52.09,179.26l-35.3,2.2l18.79-29.61c0.61,3.55,2.04,9.2,5.68,15.25C43.13,170.19,46.5,174.94,52.09,179.26z"
		/>
	<path class="st0" d="M61.21,51.84l-1.83-35.32l29.41,19.1c-3.55,0.58-9.22,1.94-15.31,5.52C70.38,42.96,65.59,46.29,61.21,51.84z"
		/>
	<path class="st0" d="M179.09,188.43l2.11,35.31l-29.56-18.87c3.55-0.61,9.21-2.02,15.27-5.65
		C170,197.37,174.76,194.01,179.09,188.43z"/>
</g>
</svg>
